<?xml version="1.0" encoding="UTF-8"?>
<svg width="55px" height="55px" viewBox="0 0 55 55" version="1.1" xmlns="http://www.w3.org/2000/svg" xmlns:xlink="http://www.w3.org/1999/xlink">
    <!-- Generator: Sketch 59 (86127) - https://sketch.com -->
    <title>Group</title>
    <desc>Created with Sketch.</desc>
    <g id="Page-1" stroke="none" stroke-width="1" fill="none" fill-rule="evenodd">
        <g id="Artboard" transform="translate(-580.000000, -395.000000)" fill="#FFFFFF">
            <g id="Group" transform="translate(580.000000, 395.000000)">
                <circle id="Oval" fill-opacity="0.161795236" cx="27.5" cy="27.5" r="27.5"></circle>
                <g id="noun_Close_3402542" transform="translate(17.000000, 17.000000)" fill-rule="nonzero">
                    <path d="M20.1666667,22 C20.6341667,22 21.10625,21.82125 21.46375,21.46375 C22.17875,20.74875 22.17875,19.5891667 21.46375,18.8695833 L13.5941667,11 L21.46375,3.13041667 C22.17875,2.41541667 22.17875,1.25583333 21.46375,0.53625 C20.74875,-0.17875 19.5891667,-0.17875 18.8695833,0.53625 L11,8.40583333 L3.13041667,0.53625 C2.41541667,-0.17875 1.25583333,-0.17875 0.53625,0.53625 C-0.17875,1.25125 -0.17875,2.41083333 0.53625,3.13041667 L8.40583333,11 L0.53625,18.8695833 C-0.17875,19.5845833 -0.17875,20.7441667 0.53625,21.46375 C0.89375,21.82125 1.36583333,22 1.83333333,22 C2.30083333,22 2.77291667,21.82125 3.13041667,21.46375 L11,13.5941667 L18.8695833,21.46375 C19.2270833,21.82125 19.6991667,22 20.1666667,22 Z" id="Path"></path>
                </g>
            </g>
        </g>
    </g>
</svg>