<?xml version="1.0" encoding="UTF-8"?>
<svg width="35px" height="35px" viewBox="0 0 35 35" version="1.1" xmlns="http://www.w3.org/2000/svg" xmlns:xlink="http://www.w3.org/1999/xlink">
    <!-- Generator: Sketch 59 (86127) - https://sketch.com -->
    <title>011-instagram</title>
    <desc>Created with Sketch.</desc>
    <g id="Page-1" stroke="none" stroke-width="1" fill="none" fill-rule="evenodd">
        <g id="011-instagram" fill="#FFFFFF" fill-rule="nonzero">
            <path d="M20.8496094,17.5 C20.8496094,19.3499756 19.3499756,20.8496094 17.5,20.8496094 C15.6500244,20.8496094 14.1503906,19.3499756 14.1503906,17.5 C14.1503906,15.6500244 15.6500244,14.1503906 17.5,14.1503906 C19.3499756,14.1503906 20.8496094,15.6500244 20.8496094,17.5 Z" id="Path"></path>
            <path d="M25.3335571,11.5735627 C25.1725387,11.1372375 24.9156571,10.7423019 24.581871,10.418129 C24.2576981,10.0843429 23.8630295,9.82746126 23.4264373,9.66644287 C23.0723572,9.52892302 22.5404358,9.36523438 21.5607071,9.32064055 C20.5008698,9.27230835 20.1831055,9.26189421 17.5,9.26189421 C14.8166275,9.26189421 14.4988632,9.27204134 13.4392929,9.32037354 C12.4595642,9.36523438 11.9273758,9.52892302 11.5735627,9.66644287 C11.1369705,9.82746126 10.7420349,10.0843429 10.418129,10.418129 C10.0843429,10.7423019 9.82746126,11.1369705 9.66617586,11.5735627 C9.52865601,11.9276428 9.36496736,12.4598312 9.32037354,13.4395599 C9.27204134,14.4991302 9.2616272,14.8168945 9.2616272,17.500267 C9.2616272,20.1833725 9.27204134,20.5011368 9.32037354,21.5609741 C9.36496736,22.5407028 9.52865601,23.0726242 9.66617586,23.4267044 C9.82746126,23.8632965 10.0840759,24.2579651 10.417862,24.582138 C10.7420349,24.9159241 11.1367035,25.1728058 11.5732956,25.3338241 C11.9273758,25.471611 12.4595642,25.6352996 13.4392929,25.6798935 C14.4988632,25.7282257 14.8163605,25.7383728 17.499733,25.7383728 C20.1833725,25.7383728 20.5011368,25.7282257 21.5604401,25.6798935 C22.5401688,25.6352996 23.0723572,25.471611 23.4264373,25.3338241 C24.3028259,24.9957657 24.9954987,24.3030929 25.3335571,23.4267044 C25.471077,23.0726242 25.6347656,22.5407028 25.6796265,21.5609741 C25.7279587,20.5011368 25.7381058,20.1833725 25.7381058,17.500267 C25.7381058,14.8168945 25.7279587,14.4991302 25.6796265,13.4395599 C25.6350326,12.4598312 25.471344,11.9276428 25.3335571,11.5735627 L25.3335571,11.5735627 Z M17.5,22.6600647 C14.6500015,22.6600647 12.3396683,20.3499985 12.3396683,17.5 C12.3396683,14.6500015 14.6500015,12.3399353 17.5,12.3399353 C20.3497314,12.3399353 22.6600647,14.6500015 22.6600647,17.5 C22.6600647,20.3499985 20.3497314,22.6600647 17.5,22.6600647 Z M22.8640747,13.3418274 C22.1981048,13.3418274 21.6581726,12.8018952 21.6581726,12.1359253 C21.6581726,11.4699554 22.1981048,10.9300232 22.8640747,10.9300232 C23.5300446,10.9300232 24.0699768,11.4699554 24.0699768,12.1359253 C24.0697098,12.8018952 23.5300446,13.3418274 22.8640747,13.3418274 Z" id="Shape"></path>
            <path d="M17.5,0 C7.83649446,0 0,7.83649446 0,17.5 C0,27.1635055 7.83649446,35 17.5,35 C27.1635055,35 35,27.1635055 35,17.5 C35,7.83649446 27.1635055,0 17.5,0 Z M27.4882126,21.642952 C27.4396134,22.7126694 27.269516,23.4429932 27.0211792,24.0822601 C26.4991379,25.4320907 25.4320907,26.4991379 24.0822601,27.0211792 C23.4432602,27.269516 22.7126694,27.4393463 21.643219,27.4882126 C20.5716324,27.5370789 20.2293014,27.5488281 17.500267,27.5488281 C14.7709656,27.5488281 14.4289017,27.5370789 13.357048,27.4882126 C12.2875977,27.4393463 11.5570068,27.269516 10.9180069,27.0211792 C10.2472305,26.768837 9.640007,26.3733673 9.13799284,25.8620072 C8.62689974,25.36026 8.23143002,24.7527695 7.97908781,24.0822601 C7.73075105,23.4432602 7.56065365,22.7126694 7.51205444,21.643219 C7.46265413,20.5713654 7.45117187,20.2290344 7.45117187,17.5 C7.45117187,14.7709656 7.46265413,14.4286346 7.51178743,13.357048 C7.56038664,12.2873306 7.73021696,11.5570068 7.97855379,10.9177399 C8.230896,10.2472305 8.62663266,9.63973999 9.13799284,9.13799284 C9.63973999,8.62663266 10.2472305,8.23116301 10.9177399,7.9788208 C11.5570068,7.73048404 12.2873306,7.56065365 13.357048,7.51178743 C14.4286346,7.46292114 14.7709656,7.45117188 17.5,7.45117188 C20.2290344,7.45117188 20.5713654,7.46292114 21.642952,7.51205444 C22.7126694,7.56065365 23.4429932,7.73048404 24.0822601,7.97855379 C24.7527695,8.230896 25.36026,8.62663266 25.8622742,9.13799284 C26.3733673,9.640007 26.769104,10.2472305 27.0211792,10.9177399 C27.269783,11.5570068 27.4396134,12.2873306 27.4884796,13.357048 C27.5373459,14.4286346 27.5488281,14.7709656 27.5488281,17.5 C27.5488281,20.2290344 27.5373459,20.5713654 27.4882126,21.642952 L27.4882126,21.642952 Z" id="Shape"></path>
        </g>
    </g>
</svg>