<?xml version="1.0" encoding="UTF-8"?>
<svg width="35px" height="35px" viewBox="0 0 35 35" version="1.1" xmlns="http://www.w3.org/2000/svg" xmlns:xlink="http://www.w3.org/1999/xlink">
    <!-- Generator: Sketch 59 (86127) - https://sketch.com -->
    <title>010-linkedin</title>
    <desc>Created with Sketch.</desc>
    <g id="Page-1" stroke="none" stroke-width="1" fill="none" fill-rule="evenodd">
        <g id="010-linkedin" fill="#FFFFFF" fill-rule="nonzero">
            <path d="M17.5,0 C7.83649446,0 0,7.83649446 0,17.5 C0,27.1635055 7.83649446,35 17.5,35 C27.1635055,35 35,27.1635055 35,17.5 C35,7.83649446 27.1635055,0 17.5,0 Z M12.4147034,26.4550781 L8.15265657,26.4550781 L8.15265657,13.6326217 L12.4147034,13.6326217 L12.4147034,26.4550781 Z M10.2838135,11.8817139 L10.2560425,11.8817139 C8.82583618,11.8817139 7.90084839,10.8971786 7.90084839,9.66670988 C7.90084839,8.40847014 8.85414127,7.45117188 10.3121185,7.45117188 C11.7700959,7.45117188 12.6673127,8.40847014 12.6950837,9.66670988 C12.6950837,10.8971786 11.7700959,11.8817139 10.2838135,11.8817139 Z M27.7827454,26.4550781 L23.5212326,26.4550781 L23.5212326,19.5953751 C23.5212326,17.8714371 22.9041291,16.6957092 21.3620377,16.6957092 C20.1847077,16.6957092 19.48349,17.4887848 19.1753387,18.2543564 C19.0626526,18.528328 19.0351486,18.9112472 19.0351486,19.2944336 L19.0351486,26.4550781 L14.7733688,26.4550781 C14.7733688,26.4550781 14.8291779,14.8355866 14.7733688,13.6326217 L19.0351486,13.6326217 L19.0351486,15.4481506 C19.6015168,14.5744324 20.614891,13.3316803 22.876091,13.3316803 C25.6801605,13.3316803 27.7827454,15.164299 27.7827454,19.1027069 L27.7827454,26.4550781 Z" id="Shape"></path>
        </g>
    </g>
</svg>