<?xml version="1.0" encoding="UTF-8"?>
<svg width="35px" height="35px" viewBox="0 0 35 35" version="1.1" xmlns="http://www.w3.org/2000/svg" xmlns:xlink="http://www.w3.org/1999/xlink">
    <!-- Generator: Sketch 59 (86127) - https://sketch.com -->
    <title>002-twitter</title>
    <desc>Created with Sketch.</desc>
    <g id="Page-1" stroke="none" stroke-width="1" fill="none" fill-rule="evenodd">
        <g id="002-twitter" fill="#FFFFFF" fill-rule="nonzero">
            <path d="M17.5,0 C7.83649446,0 0,7.83649446 0,17.5 C0,27.1635055 7.83649446,35 17.5,35 C27.1635055,35 35,27.1635055 35,17.5 C35,7.83649446 27.1635055,0 17.5,0 Z M19.7577286,27.3824692 C15.451355,27.4567032 13.820076,24.3148422 13.820076,22.1033096 L13.820076,15.6446838 L11.8192292,15.6446838 L11.8192292,13.0913543 C14.8184967,12.0098877 15.5394745,9.3048859 15.7087708,7.76386263 C15.72052,7.65785221 15.803833,7.61619564 15.8513641,7.61619564 L18.7462235,7.61619564 L18.7462235,12.651825 L22.7025223,12.651825 L22.7025223,15.6449508 L18.732605,15.6449508 L18.732605,21.7986297 C18.7454224,22.635231 19.0525055,23.7893295 20.6351852,23.7468719 C21.1593628,23.7337875 21.8621826,23.5813141 22.2298813,23.4058761 L23.1805038,26.2243652 C22.8242874,26.7496109 21.2106323,27.3576355 19.7577286,27.3824692 L19.7577286,27.3824692 Z" id="Shape"></path>
        </g>
    </g>
</svg>