<?xml version="1.0" encoding="UTF-8"?>
<svg width="35px" height="35px" viewBox="0 0 35 35" version="1.1" xmlns="http://www.w3.org/2000/svg" xmlns:xlink="http://www.w3.org/1999/xlink">
    <!-- Generator: Sketch 59 (86127) - https://sketch.com -->
    <title>008-youtube</title>
    <desc>Created with Sketch.</desc>
    <g id="Page-1" stroke="none" stroke-width="1" fill="none" fill-rule="evenodd">
        <g id="008-youtube" fill="#FFFFFF" fill-rule="nonzero">
            <polygon id="Path" points="15.3202438 20.7785797 21.012764 17.5 15.3202438 14.2214203"></polygon>
            <path d="M17.5,0 C7.83649446,0 0,7.83649446 0,17.5 C0,27.1635055 7.83649446,35 17.5,35 C27.1635055,35 35,27.1635055 35,17.5 C35,7.83649446 27.1635055,0 17.5,0 Z M28.4349238,17.5178909 C28.4349238,17.5178909 28.4349238,21.0669709 27.9846191,22.7783585 C27.7322769,23.7150955 26.9936752,24.4536972 26.0569382,24.7057724 C24.3455505,25.15625 17.5,25.15625 17.5,25.15625 C17.5,25.15625 10.6723404,25.15625 8.94306185,24.6878815 C8.00632479,24.4358063 7.26772307,23.6969376 7.01538086,22.7602005 C6.56490324,21.0669709 6.56490324,17.5 6.56490324,17.5 C6.56490324,17.5 6.56490324,13.9511872 7.01538086,12.2397995 C7.26745605,11.3030624 8.02421566,10.5463028 8.94306185,10.2942276 C10.6544495,9.84375 17.5,9.84375 17.5,9.84375 C17.5,9.84375 24.3455505,9.84375 26.0569382,10.3121185 C26.9936752,10.5641937 27.7322769,11.3030624 27.9846191,12.2397995 C28.4529876,13.9511872 28.4349238,17.5178909 28.4349238,17.5178909 L28.4349238,17.5178909 Z" id="Shape"></path>
        </g>
    </g>
</svg>