<?xml version="1.0" encoding="UTF-8"?>
<svg width="512px" height="492px" viewBox="0 0 512 492" version="1.1" xmlns="http://www.w3.org/2000/svg" xmlns:xlink="http://www.w3.org/1999/xlink">
    <!-- Generator: Sketch 59 (86127) - https://sketch.com -->
    <title>like (1)</title>
    <desc>Created with Sketch.</desc>
    <g id="Page-1" stroke="none" stroke-width="1" fill="none" fill-rule="evenodd">
        <g id="like-(1)" fill="#FFFFFF" fill-rule="nonzero">
            <path d="M53.333,214 C23.936,214 0,237.936 0,267.333 L0,438 C0,467.397 23.936,491.333 53.333,491.333 L117.333,491.333 C129.344,491.333 140.394,487.28 149.333,480.538 L149.333,214 L53.333,214 Z" id="Path"></path>
            <path d="M512,294 C512,281.179 506.923,269.232 498.112,260.421 C508.075,249.52 513.152,234.906 511.765,219.696 C509.269,192.581 484.842,171.333 456.128,171.333 L324.352,171.333 C330.88,151.514 341.333,115.184 341.333,86 C341.333,39.728 302.016,0.667 277.333,0.667 C255.168,0.667 239.338,13.147 238.656,13.659 C236.139,15.686 234.667,18.758 234.667,22 L234.667,94.341 L173.227,227.44 L170.667,228.741 L170.667,457.392 C188.032,465.584 210.005,470 224,470 L419.819,470 C443.051,470 463.382,454.341 468.16,432.731 C470.613,421.616 469.184,410.416 464.299,400.688 C480.064,392.752 490.667,376.517 490.667,358 C490.667,350.448 488.939,343.216 485.654,336.667 C501.419,328.731 512,312.496 512,294 Z" id="Path"></path>
        </g>
    </g>
</svg>