<?xml version="1.0" encoding="UTF-8"?>
<svg width="192px" height="192px" viewBox="0 0 192 192" version="1.1" xmlns="http://www.w3.org/2000/svg" xmlns:xlink="http://www.w3.org/1999/xlink">
    <!-- Generator: Sketch 59 (86127) - https://sketch.com -->
    <title>siren</title>
    <desc>Created with Sketch.</desc>
    <g id="Page-1" stroke="none" stroke-width="1" fill="none" fill-rule="evenodd">
        <g id="siren" fill="#FFFFFF" fill-rule="nonzero">
            <g id="Group" transform="translate(41.346535, 64.633663)">
                <rect id="Rectangle" x="0.427722772" y="99.7069307" width="108.356436" height="27.5643564"></rect>
                <path d="M98.8039604,90.0594059 L98.8039604,44.5782178 C98.8039604,44.4831683 98.8039604,44.4356436 98.8039604,44.3881188 C98.8514851,19.960396 79.0811881,0.19009901 54.7009901,0.142574257 C30.2257426,0.19009901 10.4079208,20.0554455 10.4079208,44.5306931 L10.4079208,90.0118812 C10.4079208,90.0594059 10.2653465,90.2019802 10.2653465,90.2019802 L98.9940594,90.2019802 C98.9940594,90.2019802 98.8039604,90.1069307 98.8039604,90.0594059 Z" id="Path"></path>
            </g>
            <path d="M95.9524752,0 C93.3386139,0 91.2,2.13861386 91.2,4.75247525 L91.2,34.2653465 C91.2,36.9267327 93.3386139,39.0178218 95.9524752,39.0178218 C98.5663366,39.0178218 100.70495,36.8792079 100.70495,34.2653465 L100.70495,4.75247525 C100.70495,2.13861386 98.5663366,0 95.9524752,0 Z" id="Path"></path>
            <path d="M186.867327,81.1247525 L157.354455,81.1247525 C154.740594,81.1247525 152.60198,83.2633663 152.60198,85.8772277 C152.60198,88.4910891 154.740594,90.629703 157.354455,90.629703 L186.867327,90.629703 C189.481188,90.629703 191.619802,88.4910891 191.619802,85.8772277 C191.619802,83.2633663 189.576238,81.1247525 186.867327,81.1247525 Z" id="Path"></path>
            <path d="M34.550495,81.1247525 L5.03762376,81.1247525 C2.42376238,81.1247525 0.285148515,83.2633663 0.285148515,85.8772277 C0.285148515,88.4910891 2.42376238,90.629703 5.03762376,90.629703 L34.550495,90.629703 C37.1168317,90.629703 39.3029703,88.4910891 39.3029703,85.8772277 C39.3029703,83.2633663 37.1643564,81.1247525 34.550495,81.1247525 Z" id="Path"></path>
            <path d="M61.7821782,45.6712871 L40.9188119,24.8079208 C39.0653465,22.9544554 36.0712871,22.9544554 34.2178218,24.8079208 C32.3643564,26.6613861 32.3643564,29.6554455 34.2178218,31.5089109 L55.0811881,52.3722772 C56.9346535,54.2257426 59.9287129,54.2257426 61.7821782,52.3722772 C63.6356436,50.5188119 63.6356436,47.5247525 61.7821782,45.6712871 Z" id="Path"></path>
            <path d="M157.782178,24.8079208 C155.928713,22.9544554 152.934653,22.9069307 151.081188,24.760396 C151.081188,24.760396 151.081188,24.760396 151.033663,24.8079208 L130.170297,45.6712871 C128.316832,47.5247525 128.316832,50.5188119 130.170297,52.3722772 C131.025743,53.2277228 132.213861,53.750495 133.49703,53.750495 C134.780198,53.750495 135.968317,53.2277228 136.871287,52.3722772 L157.734653,31.5089109 C159.588119,29.6554455 159.635644,26.6613861 157.782178,24.8079208 Z" id="Path"></path>
        </g>
    </g>
</svg>