<?xml version="1.0" encoding="UTF-8"?>
<svg width="192px" height="157px" viewBox="0 0 192 157" version="1.1" xmlns="http://www.w3.org/2000/svg" xmlns:xlink="http://www.w3.org/1999/xlink">
    <!-- Generator: Sketch 59 (86127) - https://sketch.com -->
    <title>noun_Book_17900</title>
    <desc>Created with Sketch.</desc>
    <g id="Page-1" stroke="none" stroke-width="1" fill="none" fill-rule="evenodd">
        <g id="noun_Book_17900" fill="#FFFFFF" fill-rule="nonzero">
            <path d="M45.98016,53.71968 L70.93824,53.71968 L70.93824,47.64096 L45.98016,47.64096 L45.98016,53.71968 Z M70.93824,59.80416 L26.56512,59.80416 L26.56512,65.8848 L70.93824,65.8848 L70.93824,59.80416 Z M70.93824,71.9616 L26.56512,71.9616 L26.56512,78.04416 L70.93824,78.04416 L70.93824,71.9616 Z M70.93824,84.12288 L26.56512,84.12288 L26.56512,90.19776 L70.93824,90.19776 L70.93824,84.12288 Z M70.93824,96.288 L26.56512,96.288 L26.56512,102.36864 L70.93824,102.36864 L70.93824,96.288 Z" id="Shape"></path>
            <g id="Group">
                <path d="M186.98688,0.98496 L128.832,0.98496 C109.81056,0.98496 100.512,5.4624 95.99232,10.10496 C91.48032,5.4624 82.17984,0.98496 63.1584,0.98496 L5.0016,0.98496 C2.23296,0.98496 0,3.25824 0,6.04032 L0,143.69472 C0,146.47296 2.23104,148.73856 5.0016,148.73856 L5.55264,148.73856 L36.44544,148.73856 L63.1584,148.73856 C75.43296,148.73856 87.69216,153.98784 87.81312,154.63104 L87.88608,154.63104 C90.38016,156.49536 90.39552,156.45702 92.88768,156.45702 L99.5424,156.45702 C102.07872,156.45702 102.20544,156.49728 104.4672,154.12416 C104.8704,153.43104 117.552,148.73664 128.82816,148.73664 L155.53536,148.73664 L186.43968,148.73664 L186.98304,148.73664 C189.75936,148.73664 191.996165,146.47104 191.996165,143.6928 L191.996165,6.0384 C192,3.25824 189.7632,0.98496 186.98688,0.98496 Z M88.45632,19.27488 L88.45632,145.3152 C88.45632,145.3152 77.78496,139.42464 63.3888,139.42464 C59.86176,139.42464 10.12608,139.42464 10.12608,139.42464 L10.12608,10.3104 C10.12608,10.3104 59.85984,10.3104 63.3888,10.3104 C91.25568,10.3104 88.45632,19.27488 88.45632,19.27488 Z M151.50528,90.23616 C144.47616,95.808 142.50432,99.2832 140.24832,101.53536 C137.99808,99.2832 136.11264,95.68896 128.99328,90.23616 C122.1216,85.00224 113.23008,77.67168 113.23008,67.72608 C113.23008,53.11488 131.2416,47.49504 140.24832,61.00608 C149.24928,47.49312 167.26848,53.11296 167.26848,67.83168 C167.26848,77.7888 158.27328,84.88512 151.50528,90.23616 Z" id="Shape"></path>
                <path d="M45.98016,53.71968 L70.93824,53.71968 L70.93824,47.64096 L45.98016,47.64096 L45.98016,53.71968 Z M70.93824,59.80416 L26.56512,59.80416 L26.56512,65.8848 L70.93824,65.8848 L70.93824,59.80416 Z M70.93824,71.9616 L26.56512,71.9616 L26.56512,78.04416 L70.93824,78.04416 L70.93824,71.9616 Z M70.93824,84.12288 L26.56512,84.12288 L26.56512,90.19776 L70.93824,90.19776 L70.93824,84.12288 Z M70.93824,96.288 L26.56512,96.288 L26.56512,102.36864 L70.93824,102.36864 L70.93824,96.288 Z" id="Shape"></path>
            </g>
        </g>
    </g>
</svg>