<?xml version="1.0" encoding="UTF-8"?>
<svg width="130px" height="131px" viewBox="0 0 130 131" version="1.1" xmlns="http://www.w3.org/2000/svg" xmlns:xlink="http://www.w3.org/1999/xlink">
    <!-- Generator: Sketch 59 (86127) - https://sketch.com -->
    <title>Group 3</title>
    <desc>Created with Sketch.</desc>
    <defs>
        <polygon id="path-1" points="0 0.00015928473 129.551775 0.00015928473 129.551775 130.924759 0 130.924759"></polygon>
    </defs>
    <g id="Page-1" stroke="none" stroke-width="1" fill="none" fill-rule="evenodd">
        <g id="EcosysGroup_Mobile--Home(A)" transform="translate(-178.000000, -171.000000)">
            <g id="Group-3" transform="translate(178.000000, 171.000000)">
                <mask id="mask-2" fill="white">
                    <use xlink:href="#path-1"></use>
                </mask>
                <g id="Clip-2"></g>
                <path d="M122.5698,10.7871 C115.3958,0.7891 102.4478,-1.8429 90.9888,1.1831 C78.3868,4.5101 66.4208,14.2221 57.3658,23.7821 C43.0318,17.7721 26.3918,13.0491 12.3138,22.1801 C-1.6912,31.2641 -2.6622,49.2471 3.9668,63.2571 C11.2248,78.5961 25.3558,91.0231 38.5918,101.1791 C52.9748,112.2161 68.6928,121.2851 84.4008,130.2711 C86.1928,131.2971 89.0358,131.1721 90.4598,129.4901 C109.4878,107.0091 125.0598,81.1121 128.6658,51.3861 C130.2328,38.4601 130.5318,21.8831 122.5698,10.7871 M85.7818,119.5391 C62.0468,105.9491 37.6948,91.6201 20.2778,70.1171 C12.4078,60.4001 3.8708,43.5301 14.9588,32.7511 C26.2268,21.7961 44.0348,28.7091 56.1298,34.0601 C56.3068,34.1381 56.4828,34.2051 56.6578,34.2631 C58.3488,35.2061 60.4818,35.1741 62.1898,33.2781 C70.7498,23.7731 83.3238,12.1811 96.4898,10.2111 C102.6838,9.2841 109.6358,10.6081 113.7738,15.6591 C118.2828,21.1641 119.0438,29.2121 119.3198,36.0411 C120.5838,67.4011 105.1378,95.9141 85.7818,119.5391" id="Fill-1" fill="#FFFFFF" mask="url(#mask-2)"></path>
            </g>
        </g>
    </g>
</svg>