<?xml version="1.0" encoding="UTF-8"?>
<svg width="192px" height="194px" viewBox="0 0 192 194" version="1.1" xmlns="http://www.w3.org/2000/svg" xmlns:xlink="http://www.w3.org/1999/xlink">
    <!-- Generator: Sketch 59 (86127) - https://sketch.com -->
    <title>noun_Happy_1683205</title>
    <desc>Created with Sketch.</desc>
    <g id="Page-1" stroke="none" stroke-width="1" fill="none" fill-rule="evenodd">
        <g id="noun_Happy_1683205" fill="#FFFFFF" fill-rule="nonzero">
            <path d="M61.1540426,56.7634043 C54.9837559,56.802112 49.1513701,59.5872822 45.2425532,64.3617021 C41.5889627,68.7553769 40.1647271,74.587961 41.3821277,80.1710638 C41.3821277,80.4978723 42.9753191,80.7634043 44.8748936,80.7429787 C46.0654605,80.8503466 47.2655481,80.725482 48.4085106,80.3753191 L48.4085106,80.3753191 C50.600895,75.2911757 55.6071282,71.9981074 61.1438298,71.9981074 C66.6805313,71.9981074 71.6867646,75.2911757 73.8791489,80.3753191 L73.8791489,80.3753191 C75.0942309,80.7141647 76.3615731,80.8249706 77.6170213,80.7021277 C79.5370213,80.7021277 81.1097872,80.4774468 81.2119149,80.1302128 L81.2119149,80.1302128 C82.3592482,74.4997458 80.8527344,68.6544724 77.1268085,64.28 C73.1867351,59.5219387 67.3316889,56.7666229 61.1540426,56.7634043 L61.1540426,56.7634043 Z" id="Path"></path>
            <path d="M113.770213,80.3140426 L113.770213,80.3140426 C115.962597,75.2298991 120.96883,71.9368308 126.505532,71.9368308 C132.042233,71.9368308 137.048467,75.2298991 139.240851,80.3140426 L139.240851,80.3140426 C140.452077,80.6734999 141.719487,80.8050889 142.978723,80.7021277 C144.898723,80.7021277 146.471489,80.4774468 146.573617,80.1302128 L146.573617,80.1302128 C147.72095,74.4997458 146.214437,68.6544724 142.488511,64.28 C138.533582,59.5588891 132.685991,56.8383296 126.52725,56.8540429 C120.368508,56.8698927 114.534937,59.6203847 110.604255,64.3617021 C106.950665,68.7553769 105.526429,74.587961 106.74383,80.1710638 C106.74383,80.4978723 108.337021,80.7634043 110.236596,80.7429787 C111.431141,80.8305694 112.631316,80.6848834 113.770213,80.3140426 L113.770213,80.3140426 Z" id="Path"></path>
            <path d="M96.4085106,0.736170213 C71.5285374,0.409901156 47.5148959,9.864264 29.5353191,27.0646809 C11.8326216,43.9932144 1.50201775,67.2077247 0.776170213,91.6910638 C0.674042553,94.693617 2.04255319,97.0425532 4.08510638,97.0425532 C6.12765957,97.0425532 7.65957447,94.8365957 7.86382979,92.0995745 L7.86382979,91.3234043 C9.95702264,69.2571601 20.4860956,48.8502215 37.2561702,34.3565957 C53.7401665,20.1347004 75.0742849,12.8184732 96.8170213,13.9310638 C141.126329,16.3355458 175.757983,53.0778658 175.539929,97.4518309 C175.321875,141.825796 140.330799,178.22599 96,180.194894 C74.2867999,181.045458 53.0781564,173.512733 36.7659574,159.156596 C20.135156,144.524159 9.79584886,124.035794 7.90468085,101.965106 L7.90468085,101.965106 C7.63914894,99.2076596 5.94382979,97.0425532 4.08510638,97.0425532 C2.22638298,97.0425532 0.694468085,99.3506383 0.734520599,102.394043 L0.734520599,103.170213 C1.69060702,127.668774 12.2314332,150.811646 30.0868085,167.612766 C68.1007464,203.214943 127.627013,201.806736 163.914894,164.446809 C200.784428,126.777072 200.55695,66.4773002 163.404255,29.0868085 C145.686644,11.1687794 121.605947,0.978533374 96.4085106,0.736170213 Z" id="Path"></path>
            <path d="M67.0570213,113.893617 C66.8731915,113.546383 65.28,113.648511 63.4417021,114.097872 C61.6034043,114.547234 60.1940426,115.282553 60.2553191,115.75234 L60.2553191,115.895319 C61.0991911,123.936478 64.925108,131.369688 70.9787234,136.729362 C84.068524,148.396801 103.825944,148.396801 116.915745,136.729362 C122.968052,131.356645 126.780824,123.906067 127.598298,115.854468 L127.598298,115.854468 C127.598298,115.34383 126.188936,114.608511 124.330213,114.159149 C122.471489,113.709787 120.857872,113.60766 120.633191,113.934468 L120.633191,113.934468 C108.561702,135.851064 79.1693617,135.851064 67.0570213,113.893617 Z" id="Path"></path>
        </g>
    </g>
</svg>