<?xml version="1.0" standalone="no"?>
<!DOCTYPE svg PUBLIC "-//W3C//DTD SVG 1.1//EN" "http://www.w3.org/Graphics/SVG/1.1/DTD/svg11.dtd" >
<svg xmlns="http://www.w3.org/2000/svg" xmlns:xlink="http://www.w3.org/1999/xlink" version="1.1">
<metadata>
Created by FontForge 20170924 at Wed Sep 12 09:22:45 2018
 By www-data
Copyright \(c\) 2018 by Connary Fagen. All rights reserved. Desktop use is strictly prohibited.
</metadata>
<defs>
<font id="CriteriaCF-Medium" horiz-adv-x="1366" >
  <font-face 
    font-family="Criteria CF"
    font-weight="500"
    font-stretch="normal"
    units-per-em="2048"
    panose-1="0 0 6 0 0 0 0 0 0 0"
    ascent="1638"
    descent="-410"
    x-height="1065"
    cap-height="1434"
    bbox="-477 -596 2566 1942"
    underline-thickness="0"
    underline-position="0"
    stemh="195"
    stemv="211"
    unicode-range="U+0020-25CA"
  />
<missing-glyph horiz-adv-x="1024" 
d="M190 1638h650v-2048h-650v2048zM682 1434v67h-338v-67h133v-76h-135v-68h340v68h-135v76h135zM547 1094v143h-205v-213h340v70h-135zM410 1167h67v-73h-67v73zM682 901v68h-340v-68h135v-76h-135v-67h205v143h135zM682 641v205h-68v-135h-272v-70h340zM682 365v231h-205
v-115h70v47h67v-96h-204v164h-68v-231h340zM682 10v232h-340v-232h340zM410 174h204v-96h-204v96zM682 -104v67h-340v-67h143l-143 -97v-67h340v67h-209l143 97h66z" />
    <glyph glyph-name="f_f.liga" unicode="ff" horiz-adv-x="1669" 
d="M1602 1294h-119c-115 0 -160 -47 -160 -159v-70h279v-219h-279v-846h-256v846h-514v-846h-256v846h-227v219h227v70c0 119 29 210 87 274s154 96 288 96h157v-211h-116c-115 0 -160 -47 -160 -159v-70h514v70c0 247 126 371 377 370h158v-211z" />
    <glyph glyph-name=".notdef" horiz-adv-x="1024" 
d="M190 1638h650v-2048h-650v2048zM682 1434v67h-338v-67h133v-76h-135v-68h340v68h-135v76h135zM547 1094v143h-205v-213h340v70h-135zM410 1167h67v-73h-67v73zM682 901v68h-340v-68h135v-76h-135v-67h205v143h135zM682 641v205h-68v-135h-272v-70h340zM682 365v231h-205
v-115h70v47h67v-96h-204v164h-68v-231h340zM682 10v232h-340v-232h340zM410 174h204v-96h-204v96zM682 -104v67h-340v-67h143l-143 -97v-67h340v67h-209l143 97h66z" />
    <glyph glyph-name="glyph1" horiz-adv-x="0" 
 />
    <glyph glyph-name="glyph2" horiz-adv-x="681" 
 />
    <glyph glyph-name="space" unicode=" " horiz-adv-x="389" 
 />
    <glyph glyph-name="exclam" unicode="!" horiz-adv-x="565" 
d="M406 383h-248l-8 1051h266zM389 31c-26 -27 -61 -41 -106 -41s-81 14 -107 41s-39 61 -39 100c0 81 56 143 146 143s145 -60 145 -143c0 -39 -13 -73 -39 -100z" />
    <glyph glyph-name="quotedbl" unicode="&#x22;" horiz-adv-x="704" 
d="M281 872h-222l-14 562h250zM645 872h-221l-14 562h249z" />
    <glyph glyph-name="numbersign" unicode="#" horiz-adv-x="1615" 
d="M1561 1083l-68 -213h-225l-99 -303h230l-72 -213h-225l-115 -354h-256l115 354h-311l-115 -354h-256l115 354h-224l72 213h219l98 303h-223l68 213h225l113 351h256l-113 -351h311l113 351h256l-113 -351h224zM602 567h311l99 303h-312z" />
    <glyph glyph-name="dollar" unicode="$" horiz-adv-x="1169" 
d="M1083 496c3 -235 -163 -349 -508 -349h-32l-56 -202l-206 55l47 178c-151 45 -232 148 -242 307h225c19 -107 98 -145 273 -145s256 41 256 141c0 81 -46 114 -166 125l-242 25c-229 21 -336 121 -336 309c0 223 163 334 490 334h37l55 199l207 -56l-49 -178
c139 -51 212 -153 219 -307h-226c-16 104 -86 151 -251 151c-160 0 -240 -46 -240 -139c0 -79 47 -118 170 -129l244 -22c232 -21 328 -109 331 -297z" />
    <glyph glyph-name="percent" unicode="%" horiz-adv-x="1335" 
d="M381 1178c-31 -32 -73 -48 -125 -48s-93 16 -124 49c-31 32 -46 71 -46 117c0 96 67 168 170 168c107 0 172 -72 172 -168c0 -47 -16 -86 -47 -118zM358 0h-272l891 1434h272zM1077 -29c-52 0 -93 16 -124 49c-31 32 -46 72 -46 119s15 86 46 119s72 49 124 49
s94 -16 125 -49s47 -72 47 -119c0 -96 -65 -168 -172 -168z" />
    <glyph glyph-name="ampersand" unicode="&#x26;" horiz-adv-x="1556" 
d="M1470 524c0 -145 -52 -267 -157 -368l125 -187h-260l-64 92l-10 17c-95 -73 -217 -109 -365 -109c-197 0 -355 55 -474 166s-179 251 -179 420c0 119 31 223 92 312s149 156 262 200l-245 367h878v-222h-473l574 -850c35 52 53 114 53 185c0 64 -10 112 -31 143h238
c24 -31 36 -87 36 -166zM344 557c0 -112 39 -201 116 -267c77 -67 184 -100 322 -100c81 0 155 13 222 39l-437 650c-149 -55 -223 -162 -223 -322z" />
    <glyph glyph-name="quotesingle" unicode="'" horiz-adv-x="339" 
d="M281 872h-222l-14 562h250z" />
    <glyph glyph-name="parenleft" unicode="(" horiz-adv-x="864" 
d="M774 -283h-96c-227 0 -381 66 -464 198c-41 66 -70 140 -87 221s-25 179 -25 292v569c0 232 29 391 112 524c83 132 237 199 464 199h96v-235h-74c-135 0 -225 -38 -268 -114s-65 -205 -65 -388v-541c0 -176 22 -301 66 -376c43 -76 132 -113 267 -113h74v-236z" />
    <glyph glyph-name="parenright" unicode=")" horiz-adv-x="899" 
d="M184 -283h-94v236h74c135 0 225 37 269 113c43 75 65 200 65 376v541c0 181 -22 310 -65 387c-44 77 -134 115 -269 115h-74v235h94c227 0 381 -67 465 -199c83 -133 113 -292 113 -524v-569c0 -227 -30 -381 -113 -513c-84 -132 -238 -198 -465 -198z" />
    <glyph glyph-name="asterisk" unicode="*" horiz-adv-x="1245" 
d="M623 711l-217 -295l-201 145l221 293l-350 113l76 233l344 -115l-2 365h258l-2 -365l344 115l75 -233l-348 -113l219 -293l-198 -145z" />
    <glyph glyph-name="plus" unicode="+" horiz-adv-x="1335" 
d="M786 827h484v-225h-484v-489h-237v489h-483v225h483v492h237v-492z" />
    <glyph glyph-name="comma" unicode="," horiz-adv-x="505" 
d="M283 -215h-238l180 477h236z" />
    <glyph glyph-name="hyphen" unicode="-" horiz-adv-x="800" 
d="M735 420h-669v225h669v-225z" />
    <glyph glyph-name="period" unicode="." horiz-adv-x="421" 
d="M318 31c-26 -27 -62 -41 -107 -41s-81 14 -106 41c-26 27 -39 61 -39 100c0 81 54 143 145 143s145 -60 145 -143c0 -39 -13 -73 -38 -100z" />
    <glyph glyph-name="slash" unicode="/" horiz-adv-x="997" 
d="M311 0h-256l631 1434h256z" />
    <glyph glyph-name="zero" unicode="0" horiz-adv-x="1476" 
d="M1223 178c-112 -139 -273 -209 -483 -209c-211 0 -372 70 -485 209s-169 319 -169 539s56 400 169 539s274 208 485 208c210 0 371 -69 483 -208s168 -319 168 -539s-56 -400 -168 -539zM739 209c129 0 226 46 291 139s98 216 98 369s-33 276 -98 369s-162 139 -291 139
c-130 0 -228 -46 -293 -139s-98 -216 -98 -369s33 -276 98 -369s163 -139 293 -139z" />
    <glyph glyph-name="one" unicode="1" horiz-adv-x="669" 
d="M78 1434h454v-1434h-258v1198h-213z" />
    <glyph glyph-name="two" unicode="2" horiz-adv-x="1310" 
d="M1194 0h-1085v229l606 449c87 63 147 115 180 157c33 41 49 92 49 152c0 156 -100 244 -289 244c-215 0 -315 -107 -301 -320h-256c-19 368 178 553 557 553c183 0 320 -41 412 -123c91 -83 137 -195 137 -337c0 -87 -21 -164 -62 -230c-42 -67 -119 -142 -231 -227
l-293 -223l-126 -95h702v-229z" />
    <glyph glyph-name="three" unicode="3" horiz-adv-x="1302" 
d="M647 -31c-186 0 -328 44 -426 132s-143 215 -135 380h258c-7 -89 19 -156 76 -203s136 -71 235 -71c193 0 301 94 301 250c0 83 -28 145 -84 185s-128 60 -217 60c-59 0 -113 -7 -163 -20v186l354 330h-686v236h973v-228l-345 -332c129 -13 232 -58 311 -133
c79 -76 118 -176 118 -301c0 -135 -47 -248 -141 -337c-95 -89 -238 -134 -429 -134z" />
    <glyph glyph-name="four" unicode="4" horiz-adv-x="1333" 
d="M846 1434h350v-1434h-258v221h-877v232zM938 1202l-598 -749h598v749z" />
    <glyph glyph-name="five" unicode="5" horiz-adv-x="1300" 
d="M1069 106c-97 -91 -239 -137 -426 -137s-329 44 -424 131s-140 214 -133 381h258c-11 -180 97 -276 301 -276c206 0 309 93 309 280c0 177 -101 281 -309 281c-153 0 -246 -56 -278 -119h-244v787h1003v-228h-745v-315c61 53 165 80 311 80c193 0 338 -61 414 -160
s108 -210 108 -338c0 -154 -48 -276 -145 -367z" />
    <glyph glyph-name="six" unicode="6" horiz-adv-x="1300" 
d="M690 993c168 0 297 -47 388 -142s136 -214 136 -359c0 -153 -50 -278 -149 -376c-100 -98 -238 -147 -414 -147c-177 0 -316 49 -415 146c-100 97 -150 223 -150 379c0 150 60 294 180 432l443 508h305l-396 -445c33 3 57 4 72 4zM651 207c95 0 170 26 224 79
s81 121 81 206c0 86 -26 155 -79 207c-53 51 -128 77 -225 77s-173 -26 -226 -77c-53 -52 -80 -121 -80 -207c0 -87 27 -156 80 -207c53 -52 128 -78 225 -78z" />
    <glyph glyph-name="seven" unicode="7" horiz-adv-x="1331" 
d="M70 1434h1216l-846 -1434h-276l719 1202h-813v232z" />
    <glyph glyph-name="eight" unicode="8" horiz-adv-x="1374" 
d="M1116 88c-94 -79 -237 -119 -428 -119s-334 40 -429 119s-142 183 -142 311c0 177 93 307 252 367c-124 69 -186 174 -187 313c0 113 42 206 127 278c85 71 211 107 379 107c167 0 292 -36 377 -107c85 -72 127 -165 127 -278c0 -139 -62 -244 -186 -313
c168 -63 252 -185 251 -367c0 -129 -47 -232 -141 -311zM497 901c45 -35 109 -53 191 -53s146 17 192 52c45 35 68 86 68 153c0 131 -96 202 -260 202s-260 -71 -260 -202c0 -67 23 -117 69 -152zM688 195c185 0 303 82 303 241c0 156 -115 236 -303 236s-305 -80 -305 -236
c0 -159 117 -241 305 -241z" />
    <glyph glyph-name="nine" unicode="9" horiz-adv-x="1300" 
d="M651 1464c176 0 314 -48 414 -145c99 -97 149 -223 149 -379c0 -150 -60 -294 -180 -432l-442 -508h-305l399 446c-35 -3 -61 -4 -76 -4c-168 0 -297 47 -388 142c-91 94 -136 214 -136 360c0 153 50 278 150 375c99 97 238 145 415 145zM651 657c95 0 170 26 223 78
s80 121 80 207c0 85 -26 153 -79 206s-128 79 -224 79c-97 0 -172 -26 -225 -78s-80 -121 -80 -207s27 -155 80 -207s128 -78 225 -78z" />
    <glyph glyph-name="colon" unicode=":" horiz-adv-x="421" 
d="M318 852c-26 -27 -62 -41 -107 -41s-81 14 -106 41c-26 27 -39 61 -39 100c0 81 54 144 145 144s145 -61 145 -144c0 -39 -13 -73 -38 -100zM318 31c-26 -27 -62 -41 -107 -41s-81 14 -106 41c-26 27 -39 61 -39 100c0 81 54 143 145 143s145 -60 145 -143
c0 -39 -13 -73 -38 -100z" />
    <glyph glyph-name="semicolon" unicode=";" horiz-adv-x="542" 
d="M459 852c-26 -27 -61 -41 -106 -41s-81 14 -107 41s-39 61 -39 100c0 81 56 144 146 144s145 -61 145 -144c0 -39 -13 -73 -39 -100zM283 -215h-238l180 477h236z" />
    <glyph glyph-name="less" unicode="&#x3c;" horiz-adv-x="1335" 
d="M1270 291v-238l-1204 359v237l1204 359v-238l-842 -240z" />
    <glyph glyph-name="equal" unicode="=" horiz-adv-x="1353" 
d="M1288 705h-1222v225h1222v-225zM1288 133h-1222v225h1222v-225z" />
    <glyph glyph-name="greater" unicode="&#x3e;" horiz-adv-x="1335" 
d="M1270 412l-1204 -359v238l839 239l-839 240v238l1204 -359v-237z" />
    <glyph glyph-name="question" unicode="?" horiz-adv-x="1355" 
d="M778 375h-260c-5 100 7 178 38 233s99 103 206 144l59 22c65 26 113 55 142 88s43 78 43 137c0 155 -105 233 -314 234c-247 0 -364 -107 -350 -322h-256c-16 368 187 553 604 553c387 0 580 -154 580 -463c0 -86 -19 -157 -57 -214c-39 -57 -108 -107 -209 -150l-74 -33
c-65 -27 -107 -58 -126 -91s-27 -79 -26 -138zM754 31c-26 -27 -61 -41 -106 -41s-81 14 -107 41s-39 61 -39 100c0 81 56 143 146 143s145 -60 145 -143c0 -39 -13 -73 -39 -100z" />
    <glyph glyph-name="at" unicode="@" horiz-adv-x="1347" 
d="M674 -31c-177 0 -320 54 -427 163s-161 242 -161 401c0 158 54 291 161 400s250 163 427 163s320 -55 427 -164s161 -244 161 -404c0 -67 -11 -124 -32 -173s-57 -74 -106 -74c-60 0 -90 35 -90 104v492h-106l-19 -95l11 -41c-60 105 -155 158 -285 158
c-105 0 -191 -35 -256 -104c-65 -70 -98 -157 -98 -262s33 -193 99 -262c66 -70 154 -105 265 -105c141 0 236 60 287 180v-43c0 -88 61 -129 137 -129c39 0 71 14 96 43c-93 -151 -267 -248 -491 -248zM657 285c-78 0 -138 23 -180 69c-42 45 -63 105 -63 179
c0 73 21 133 63 179c41 45 101 68 179 68c77 0 138 -23 181 -68c43 -46 64 -106 64 -180c0 -73 -21 -132 -64 -178s-103 -69 -180 -69z" />
    <glyph glyph-name="A" unicode="A" horiz-adv-x="1634" 
d="M1589 0h-276l-88 203h-817l-89 -203h-274l629 1434h284zM817 1143l-317 -729h633z" />
    <glyph glyph-name="B" unicode="B" horiz-adv-x="1531" 
d="M1184 729c173 -55 260 -170 260 -346c0 -112 -38 -204 -113 -275c-76 -72 -202 -108 -377 -108h-817v1434h772c173 0 297 -35 372 -106s112 -164 112 -279c0 -156 -70 -263 -209 -320zM885 1206h-484v-377h484c169 0 243 57 243 185c0 133 -74 192 -243 192zM401 227h519
c183 0 260 63 260 199c0 133 -80 197 -260 197h-519v-396z" />
    <glyph glyph-name="C" unicode="C" horiz-adv-x="1656" 
d="M854 211c235 0 385 102 451 307h256c-33 -176 -111 -311 -234 -406c-124 -95 -282 -143 -473 -143c-236 0 -423 71 -561 213s-207 320 -207 535c0 214 69 392 207 534s325 213 561 213c191 0 349 -47 472 -142s202 -230 235 -407h-256c-65 205 -216 307 -451 308
c-159 0 -282 -47 -370 -141c-88 -95 -132 -216 -132 -365c0 -147 44 -268 132 -363s211 -143 370 -143z" />
    <glyph glyph-name="D" unicode="D" horiz-adv-x="1632" 
d="M805 0h-668v1434h668c231 0 410 -64 539 -191c128 -128 192 -303 192 -526c0 -221 -64 -396 -192 -524c-129 -129 -308 -193 -539 -193zM401 1200v-967h396c315 0 473 172 473 484c0 311 -160 483 -473 483h-396z" />
    <glyph glyph-name="E" unicode="E" horiz-adv-x="1433" 
d="M1346 1434v-232h-945v-391h904v-209h-904v-371h945v-231h-1209v1434h1209z" />
    <glyph glyph-name="F" unicode="F" horiz-adv-x="1433" 
d="M1346 1434v-234h-945v-416h895v-235h-895v-549h-264v1434h1209z" />
    <glyph glyph-name="G" unicode="G" horiz-adv-x="1665" 
d="M1276 555h-420v203h672v-522c-154 -177 -371 -266 -651 -267c-249 0 -443 70 -582 210s-209 319 -209 538c0 216 69 395 208 536s325 211 560 211c184 0 335 -45 452 -136s191 -217 222 -378h-258c-57 181 -193 272 -408 273c-163 0 -288 -47 -377 -142
s-133 -218 -133 -368c0 -151 46 -275 138 -370c91 -96 226 -144 405 -144c161 0 288 39 381 118v238z" />
    <glyph glyph-name="H" unicode="H" horiz-adv-x="1648" 
d="M1247 786v648h264v-1434h-264v561h-846v-561h-264v1434h264v-648h846z" />
    <glyph glyph-name="I" unicode="I" horiz-adv-x="538" 
d="M401 0h-264v1434h264v-1434z" />
    <glyph glyph-name="J" unicode="J" horiz-adv-x="1515" 
d="M731 -31c-443 0 -645 198 -645 602h264c0 -125 29 -217 87 -274s156 -86 294 -86c139 0 238 29 296 87s87 152 87 282v854h264v-854c0 -412 -202 -611 -647 -611z" />
    <glyph glyph-name="K" unicode="K" horiz-adv-x="1644" 
d="M995 741l604 -741h-309l-450 551l-445 -551h-258v1434h258v-1078l854 1078h305z" />
    <glyph glyph-name="L" unicode="L" horiz-adv-x="1406" 
d="M401 1434v-1201h920v-233h-1184v1434h264z" />
    <glyph glyph-name="M" unicode="M" horiz-adv-x="2021" 
d="M399 0h-262v1434h426l438 -1168h19l438 1168h426v-1434h-262v1153h-20l-441 -1151h-303l-438 1151h-21v-1153z" />
    <glyph glyph-name="N" unicode="N" horiz-adv-x="1642" 
d="M401 0h-264v1434h340l748 -1127h18l-2 207v920h264v-1434h-340l-749 1126h-17l2 -206v-920z" />
    <glyph glyph-name="O" unicode="O" horiz-adv-x="1708" 
d="M1415 182c-138 -142 -325 -213 -561 -213s-423 71 -561 213s-207 320 -207 535c0 214 69 392 207 534s325 213 561 213s423 -71 561 -213s207 -320 207 -534c0 -215 -69 -393 -207 -535zM484 354c88 -95 211 -143 370 -143s282 48 370 143s132 216 132 363
c0 149 -44 270 -132 365c-88 94 -211 141 -370 141s-282 -47 -370 -141c-88 -95 -132 -216 -132 -365c0 -147 44 -268 132 -363z" />
    <glyph glyph-name="P" unicode="P" horiz-adv-x="1570" 
d="M137 1434h760c190 0 331 -48 424 -145s139 -228 139 -392s-46 -294 -139 -391s-234 -146 -424 -146h-496v-360h-264v1434zM401 594h463c221 0 332 101 332 303c0 211 -113 303 -332 303h-463v-606z" />
    <glyph glyph-name="Q" unicode="Q" horiz-adv-x="1708" 
d="M1622 717c0 -195 -58 -362 -174 -499s-275 -218 -477 -243v-190h-234v190c-202 25 -361 106 -477 243s-174 304 -174 499c0 215 69 393 207 535c138 141 325 212 561 212s423 -71 561 -212c138 -142 207 -320 207 -535zM971 569v-348c123 23 218 80 285 170
s100 199 100 326c0 149 -44 270 -132 365c-88 94 -211 141 -370 141s-282 -47 -370 -141c-88 -95 -132 -216 -132 -365c0 -127 34 -235 101 -325c67 -91 161 -148 284 -171v348h234z" />
    <glyph glyph-name="R" unicode="R" horiz-adv-x="1552" 
d="M1198 502l279 -502h-267l-249 453h-39h-521v-453h-264v1434h785c183 0 318 -45 406 -134c88 -90 132 -209 132 -358c0 -219 -87 -365 -262 -440zM885 1200h-484v-514h484c213 0 313 76 313 256s-104 258 -313 258z" />
    <glyph glyph-name="S" unicode="S" horiz-adv-x="1470" 
d="M711 -31h-2c-125 0 -211 7 -327 44c-57 17 -105 41 -144 71c-80 60 -144 171 -152 315h244c27 -142 161 -213 401 -213c257 0 385 77 385 230c0 67 -22 114 -65 143c-44 29 -116 48 -215 57l-232 21c-331 31 -493 158 -493 410c0 279 211 418 634 417
c128 0 225 -9 334 -45c55 -19 101 -43 140 -74c76 -62 133 -168 141 -311h-244c-33 156 -156 213 -383 213c-237 0 -356 -67 -356 -200c0 -123 89 -174 282 -193l230 -20c171 -17 296 -57 376 -120c79 -64 119 -162 119 -294c0 -301 -224 -451 -673 -451z" />
    <glyph glyph-name="T" unicode="T" horiz-adv-x="1482" 
d="M70 1434h1343v-234h-541v-1200h-262v1200h-540v234z" />
    <glyph glyph-name="U" unicode="U" horiz-adv-x="1603" 
d="M803 -31c-444 0 -666 213 -666 639v826h264v-828c0 -263 134 -395 402 -395c266 0 399 132 399 395v828h264v-826c1 -426 -220 -639 -663 -639z" />
    <glyph glyph-name="V" unicode="V" horiz-adv-x="1634" 
d="M817 291l496 1143h276l-631 -1434h-284l-629 1434h274z" />
    <glyph glyph-name="W" unicode="W" horiz-adv-x="2461" 
d="M1784 319l358 1115h275l-471 -1434h-295l-420 1112l-422 -1112h-295l-469 1434h272l359 -1115l422 1115h264z" />
    <glyph glyph-name="X" unicode="X" horiz-adv-x="1619" 
d="M371 0h-326l588 717l-582 717h324l434 -543l436 543h324l-582 -717l588 -717h-326l-440 543z" />
    <glyph glyph-name="Y" unicode="Y" horiz-adv-x="1646" 
d="M1321 1434h281l-646 -1080v-354h-264v348l-647 1086h279l491 -826h14z" />
    <glyph glyph-name="Z" unicode="Z" horiz-adv-x="1536" 
d="M1399 0h-1262v231l940 971h-921v232h1243v-232l-942 -971h942v-231z" />
    <glyph glyph-name="bracketleft" unicode="[" horiz-adv-x="876" 
d="M807 -190h-670v1826h670v-239h-406v-1348h406v-239z" />
    <glyph glyph-name="backslash" unicode="\" horiz-adv-x="997" 
d="M311 1434l631 -1434h-256l-631 1434h256z" />
    <glyph glyph-name="bracketright" unicode="]" horiz-adv-x="876" 
d="M739 1636v-1826h-669v239h403v1348h-403v239h669z" />
    <glyph glyph-name="asciicircum" unicode="^" horiz-adv-x="1292" 
d="M645 1153l-391 -573l-203 151l492 703h207l491 -703l-203 -151z" />
    <glyph glyph-name="underscore" unicode="_" horiz-adv-x="882" 
d="M817 -225h-751v225h751v-225z" />
    <glyph glyph-name="grave" unicode="`" horiz-adv-x="454" 
d="M264 1540l170 -338h-244l-170 338h244z" />
    <glyph glyph-name="a" unicode="a" horiz-adv-x="1280" 
d="M637 1096c355 0 516 -115 516 -342v-754h-219l-23 119l27 59c-51 -68 -120 -120 -207 -155c-87 -36 -179 -54 -276 -54c-243 0 -379 118 -379 334c0 209 128 313 385 313h434v109c0 125 -75 176 -266 176c-177 0 -249 -41 -262 -137h-228c-3 121 40 207 127 257
s211 75 371 75zM532 166h25c138 0 251 39 338 117v172h-393c-111 0 -166 -47 -166 -140c-1 -99 65 -149 196 -149z" />
    <glyph glyph-name="b" unicode="b" horiz-adv-x="1384" 
d="M774 1096c160 0 289 -53 388 -160c98 -107 147 -241 147 -403c0 -163 -49 -297 -147 -404c-99 -107 -228 -160 -388 -160c-177 0 -308 66 -391 199l-4 -168h-252v1454h256v-526l-45 -101c98 179 243 269 436 269zM471 289c61 -63 144 -94 248 -94c103 0 186 31 247 94
s91 144 91 244c0 99 -30 180 -91 243s-144 94 -247 94c-104 0 -187 -31 -248 -94s-92 -144 -92 -243c0 -100 31 -181 92 -244z" />
    <glyph glyph-name="c" unicode="c" horiz-adv-x="1280" 
d="M662 -31c-184 0 -328 53 -432 160s-155 241 -154 404c1 162 53 296 156 403c102 107 245 160 430 160c154 0 278 -39 373 -116c94 -77 150 -181 169 -312h-250c-38 134 -135 201 -292 200c-104 0 -186 -31 -245 -93s-89 -143 -89 -242c0 -100 30 -181 89 -243
s141 -93 245 -93c157 0 255 67 292 200h250c-19 -131 -76 -235 -170 -312s-218 -116 -372 -116z" />
    <glyph glyph-name="d" unicode="d" horiz-adv-x="1384" 
d="M1001 928v526h256v-1454h-251l-5 166c-85 -131 -215 -197 -391 -197c-160 0 -289 54 -387 161s-147 242 -147 403s49 295 148 402c98 107 227 161 386 161c193 0 338 -90 437 -269zM419 289c61 -63 143 -94 247 -94c103 0 186 31 248 94c61 63 92 144 92 244
c0 99 -31 180 -92 243c-62 63 -145 94 -248 94c-104 0 -186 -31 -247 -94s-91 -144 -91 -243c0 -100 30 -181 91 -244z" />
    <glyph glyph-name="e" unicode="e" horiz-adv-x="1300" 
d="M1223 446h-889c29 -186 143 -279 344 -278c134 0 222 45 264 135h246c-27 -98 -88 -178 -181 -240c-94 -63 -210 -94 -348 -94c-183 0 -325 53 -428 159s-155 241 -155 404s52 297 155 404s245 160 426 160c186 0 330 -57 433 -172c102 -115 146 -274 133 -478zM657 903
c-195 0 -304 -99 -325 -297h645c-29 198 -136 297 -320 297z" />
    <glyph glyph-name="f" unicode="f" horiz-adv-x="899" 
d="M829 1294h-116c-115 0 -160 -47 -160 -159v-70h276v-219h-276v-846h-256v846h-227v219h227v70c0 119 29 210 87 274s154 96 288 96h157v-211z" />
    <glyph glyph-name="g" unicode="g" horiz-adv-x="1339" 
d="M352 33h676c131 0 197 -56 197 -168c0 -74 -26 -131 -78 -172h-195l9 33c21 81 1 112 -78 112h-746l-35 195l170 231c-121 78 -182 202 -182 371c0 141 45 253 135 336s220 125 389 125c171 0 299 -48 385 -144l76 113h240l-178 -283c13 -42 20 -91 20 -147
c0 -142 -45 -254 -136 -336s-223 -123 -398 -123c-55 0 -106 4 -154 12zM1034 907l2 2l-4 2c0 -3 2 -1 2 -4zM841 827c-50 44 -123 66 -218 66c-96 0 -169 -22 -218 -66c-50 -45 -75 -109 -75 -192c0 -169 101 -262 293 -262c191 0 292 93 292 262c0 83 -25 147 -74 192z
" />
    <glyph glyph-name="h" unicode="h" 
d="M791 1096c295 0 448 -177 448 -486v-610h-256v561c0 206 -95 309 -285 309c-196 0 -315 -110 -315 -315v-555h-256v1454h256v-545l-29 -80c87 178 232 267 437 267z" />
    <glyph glyph-name="i" unicode="i" horiz-adv-x="516" 
d="M362 1303c-25 -26 -60 -39 -103 -39c-44 0 -79 13 -104 39c-25 25 -38 57 -38 94c0 76 54 135 142 135c87 0 140 -59 140 -135c0 -37 -12 -68 -37 -94zM387 0h-256v1065h256v-1065z" />
    <glyph glyph-name="j" unicode="j" horiz-adv-x="516" 
d="M362 1301c-25 -26 -60 -39 -103 -39c-44 0 -79 13 -104 39c-25 25 -38 57 -38 96c0 38 13 70 38 96s60 39 104 39c43 0 78 -13 103 -39s37 -58 37 -96c0 -39 -12 -71 -37 -96zM387 -317h-258v1382h258v-1382z" />
    <glyph glyph-name="k" unicode="k" horiz-adv-x="1370" 
d="M850 563l489 -563h-303l-336 389l-329 -389h-244v1454h256v-936l-4 -178h6l137 176l455 549h299z" />
    <glyph glyph-name="l" unicode="l" horiz-adv-x="509" 
d="M383 0h-256v1454h256v-1454z" />
    <glyph glyph-name="m" unicode="m" horiz-adv-x="2142" 
d="M1577 1096c297 0 438 -180 438 -492v-604h-258v565c0 203 -89 305 -268 305c-191 0 -291 -114 -291 -311v-559h-256v559c0 207 -90 311 -270 311c-191 0 -289 -114 -289 -311v-559h-256v1065h248l8 -156l-23 -63c81 167 216 250 406 250c195 0 326 -81 391 -244
c78 163 218 244 420 244z" />
    <glyph glyph-name="n" unicode="n" 
d="M791 1096c295 0 448 -177 448 -486v-610h-256v561c0 206 -95 309 -285 309c-196 0 -315 -110 -315 -315v-555h-256v1065h248l8 -156l-29 -80c87 178 232 267 437 267z" />
    <glyph glyph-name="o" unicode="o" horiz-adv-x="1318" 
d="M1086 129c-105 -107 -247 -160 -426 -160s-321 54 -426 161s-158 241 -158 402c0 163 53 297 158 404s247 160 426 160s321 -53 426 -160s157 -241 157 -403c0 -163 -52 -297 -157 -404zM659 197c104 0 185 31 244 93s88 143 88 243c0 99 -29 180 -88 242
s-140 93 -243 93c-104 0 -185 -31 -244 -93s-88 -143 -88 -243c0 -98 30 -178 89 -241s139 -94 242 -94z" />
    <glyph glyph-name="p" unicode="p" horiz-adv-x="1384" 
d="M774 1096c160 0 289 -53 388 -160c98 -107 147 -241 147 -403c0 -163 -49 -297 -147 -404c-99 -107 -228 -160 -388 -160c-177 0 -308 66 -391 199v-463h-256v1360h252l4 -137l-45 -101c98 179 243 269 436 269zM471 289c61 -63 144 -94 248 -94c103 0 186 31 247 94
s91 144 91 244c0 99 -30 180 -91 243s-144 94 -247 94c-104 0 -187 -31 -248 -94s-92 -144 -92 -243c0 -100 31 -181 92 -244z" />
    <glyph glyph-name="q" unicode="q" horiz-adv-x="1384" 
d="M1001 928l5 137h251v-1360h-256v461c-86 -131 -216 -197 -391 -197c-160 0 -289 54 -387 161s-147 242 -147 403s49 295 148 402c98 107 227 161 386 161c193 0 338 -90 437 -269zM419 289c61 -63 143 -94 247 -94c103 0 186 31 248 94c61 63 92 144 92 244
c0 99 -31 180 -92 243c-62 63 -145 94 -248 94c-104 0 -186 -31 -247 -94s-91 -144 -91 -243c0 -100 30 -181 91 -244z" />
    <glyph glyph-name="r" unicode="r" horiz-adv-x="1228" 
d="M739 1096c129 0 227 -38 294 -114s100 -178 100 -306v-72h-240v23c0 163 -79 244 -236 243c-172 0 -274 -100 -274 -297v-573h-256v1065h248l8 -156l-18 -49c79 153 186 236 374 236z" />
    <glyph glyph-name="s" unicode="s" horiz-adv-x="1179" 
d="M580 -31c-136 0 -236 15 -335 62c-100 47 -161 142 -169 278h233c19 -107 102 -147 279 -147c180 0 264 40 264 141c0 81 -47 114 -170 127l-250 23c-231 22 -346 125 -346 309c0 223 169 334 506 334c128 0 222 -16 319 -61c96 -45 154 -140 162 -279h-231
c-16 104 -85 149 -260 149c-164 0 -246 -46 -246 -137c0 -79 48 -118 176 -129l250 -25c237 -21 339 -106 342 -295c0 -233 -175 -350 -524 -350z" />
    <glyph glyph-name="t" unicode="t" horiz-adv-x="931" 
d="M854 1065v-219h-295v-461c0 -117 50 -166 170 -166h125v-229h-172c-271 0 -379 125 -379 362v494h-233v219h233v369h256v-369h295z" />
    <glyph glyph-name="u" unicode="u" 
d="M983 510v555h256v-1065h-246l-10 156l27 71c-86 -172 -231 -258 -435 -258c-295 0 -448 177 -448 486v610h256v-561c0 -206 95 -309 285 -309c196 0 315 112 315 315z" />
    <glyph glyph-name="v" unicode="v" horiz-adv-x="1277" 
d="M774 0h-270l-469 1065h266l334 -778h8l334 778h266z" />
    <glyph glyph-name="w" unicode="w" horiz-adv-x="1982" 
d="M682 0h-283l-364 1065h264l252 -791l305 791h268l308 -791l251 791h265l-365 -1065h-283l-309 791z" />
    <glyph glyph-name="x" unicode="x" horiz-adv-x="1265" 
d="M346 0h-301l442 537l-434 528h299l281 -348l280 348h299l-432 -528l441 -537h-301l-287 358z" />
    <glyph glyph-name="y" unicode="y" horiz-adv-x="1286" 
d="M645 -295h-264l135 297l-57 117l-424 946h268l336 -778h8l336 778h268z" />
    <glyph glyph-name="z" unicode="z" horiz-adv-x="1173" 
d="M1094 0h-1004v219l672 627h-656v219h977v-219l-673 -627h684v-219z" />
    <glyph glyph-name="braceleft" unicode="{" horiz-adv-x="997" 
d="M930 1636v-239h-406v-1348h406v-239h-670v786h-190v254h190v786h670z" />
    <glyph glyph-name="bar" unicode="|" horiz-adv-x="538" 
d="M401 -205h-264v1843h264v-1843z" />
    <glyph glyph-name="braceright" unicode="}" horiz-adv-x="997" 
d="M739 850h191v-254h-191v-786h-669v239h403v1348h-403v239h669v-786z" />
    <glyph glyph-name="asciitilde" unicode="~" horiz-adv-x="1392" 
d="M399 367c-127 0 -239 22 -338 65v238c104 -48 222 -72 355 -72c78 0 173 17 284 50s208 50 293 50c123 0 235 -22 338 -67v-236c-108 48 -226 72 -354 72c-78 0 -173 -17 -284 -50s-209 -50 -294 -50z" />
    <glyph glyph-name="exclamdown" unicode="&#xa1;" horiz-adv-x="565" 
d="M176 1055c26 27 62 41 107 41s80 -14 106 -41s39 -61 39 -101c0 -81 -55 -143 -145 -143s-146 62 -146 143c0 39 13 73 39 101zM150 -348l8 1050h248l10 -1050h-266z" />
    <glyph glyph-name="cent" unicode="&#xa2;" horiz-adv-x="1280" 
d="M662 373c159 0 256 67 292 200h250c-19 -131 -76 -235 -170 -312s-218 -116 -372 -116c-21 0 -36 1 -46 2l-53 -202l-209 55l52 190c-107 42 -189 109 -246 202c-57 92 -85 198 -84 317c1 163 53 297 156 404c102 106 245 159 430 159h34l56 201l206 -56l-51 -188
c169 -67 268 -195 297 -385h-250c-38 134 -135 201 -292 200c-104 0 -186 -31 -245 -94s-89 -143 -89 -241c0 -100 30 -181 89 -243s141 -93 245 -93z" />
    <glyph glyph-name="sterling" unicode="&#xa3;" horiz-adv-x="1357" 
d="M1272 911h-260c13 213 -106 312 -307 312c-185 0 -302 -85 -302 -246c0 -41 7 -78 23 -126c8 -24 15 -42 20 -53c5 -12 14 -33 28 -63c13 -30 22 -49 26 -57h649v-211h-582c3 -30 4 -54 4 -72c0 -104 -31 -147 -96 -178c143 60 282 90 416 90c117 0 240 -22 369 -67v-240
c-133 48 -263 72 -392 72c-74 0 -159 -12 -254 -37s-171 -37 -227 -37c-109 0 -210 32 -301 96l107 191c107 -65 157 -40 157 59c0 39 -7 80 -22 123h-201v190l115 9c-67 145 -100 265 -101 362c0 134 48 240 144 319c95 78 234 117 417 117c385 0 586 -188 570 -553z" />
    <glyph glyph-name="currency" unicode="&#xa4;" horiz-adv-x="1374" 
d="M1245 530c0 -100 -25 -193 -74 -278l127 -127l-182 -178l-127 125c-90 -51 -191 -76 -303 -76c-115 0 -215 25 -301 76l-127 -125l-182 178l127 127c-51 85 -76 177 -76 278c0 104 25 198 76 283l-127 127l182 178l127 -125c86 51 186 76 301 76c112 0 213 -25 303 -76
l127 125l182 -178l-127 -127c49 -86 74 -180 74 -283zM373 530c0 -89 28 -163 85 -222s133 -89 228 -89c97 0 173 30 229 89s84 133 84 222c0 91 -28 167 -84 227c-56 59 -132 89 -229 89c-95 0 -171 -30 -228 -89c-57 -60 -85 -136 -85 -227z" />
    <glyph glyph-name="yen" unicode="&#xa5;" horiz-adv-x="1646" 
d="M1321 1434h281l-500 -836h375v-192h-1309v192h377l-500 836h279l491 -826h14zM692 139h-524v193h1309v-193h-521v-139h-264v139z" />
    <glyph glyph-name="brokenbar" unicode="&#xa6;" horiz-adv-x="538" 
d="M401 780h-264v858h264v-858zM401 -205h-264v858h264v-858z" />
    <glyph glyph-name="section" unicode="&#xa7;" horiz-adv-x="1277" 
d="M631 -72c-314 0 -475 116 -484 348h228c24 -101 97 -143 266 -143s254 45 254 135c0 78 -57 121 -170 129l-244 17c-263 19 -395 122 -395 309c0 120 53 203 160 250c-71 44 -106 110 -107 198c0 216 172 334 508 334c314 0 475 -116 483 -348h-227
c-24 101 -95 143 -264 143c-171 0 -256 -45 -256 -135c0 -78 57 -121 170 -129l244 -16c276 -19 395 -126 395 -311c0 -117 -53 -200 -160 -248c71 -44 106 -110 107 -199c0 -208 -175 -334 -508 -334zM512 592l236 -19c128 -8 198 43 198 134c0 82 -60 127 -180 135
l-236 18c-125 11 -198 -42 -198 -133c0 -82 60 -127 180 -135z" />
    <glyph glyph-name="dieresis" unicode="&#xa8;" horiz-adv-x="894" 
d="M265 1306c-25 -25 -60 -38 -103 -38c-44 0 -79 13 -104 38s-38 56 -38 93s13 68 38 93s60 38 104 38c43 0 78 -13 103 -38s38 -56 38 -93s-13 -68 -38 -93zM837 1306c-25 -25 -60 -38 -103 -38c-44 0 -79 13 -104 38s-38 56 -38 93s13 68 38 93s60 38 104 38
c43 0 78 -13 103 -38s37 -56 37 -93s-12 -68 -37 -93z" />
    <glyph glyph-name="copyright" unicode="&#xa9;" horiz-adv-x="1302" 
d="M1061 535c-104 -104 -241 -156 -410 -156s-306 52 -409 156c-104 103 -156 232 -156 387c0 154 52 283 156 387c103 103 240 155 409 155s306 -52 410 -155c104 -104 156 -233 156 -387c0 -155 -52 -284 -156 -387zM657 535c104 0 190 27 259 81c68 53 109 123 122 209
h-182c-26 -87 -92 -131 -199 -131c-71 0 -126 21 -166 64c-41 42 -61 97 -61 164s20 121 61 164c40 42 95 63 166 63c107 0 173 -44 199 -131h182c-13 87 -54 158 -122 211c-69 53 -155 80 -259 80c-124 0 -223 -37 -296 -112c-74 -75 -111 -166 -111 -275s37 -201 111 -275
c73 -75 172 -112 296 -112z" />
    <glyph glyph-name="guillemotleft" unicode="&#xab;" horiz-adv-x="1462" 
d="M737 190l-125 -178l-551 437v208l551 437l125 -179l-452 -362zM1401 190l-123 -178l-553 437v208l553 437l123 -179l-453 -362z" />
    <glyph glyph-name="logicalnot" unicode="&#xac;" horiz-adv-x="1353" 
d="M66 862h1222v-682h-254v457h-968v225z" />
    <glyph glyph-name="registered" unicode="&#xae;" horiz-adv-x="1302" 
d="M1061 535c-104 -104 -241 -156 -410 -156s-306 52 -409 156c-104 103 -156 232 -156 387c0 154 52 283 156 387c103 103 240 155 409 155s306 -52 410 -155c104 -104 156 -233 156 -387c0 -155 -52 -284 -156 -387zM330 1274v-709h172v197h233l109 -197h174l-129 230
c82 45 123 120 123 223c0 153 -94 256 -285 256h-397zM711 903h-209v227h209c87 0 131 -38 131 -114c0 -75 -44 -113 -131 -113z" />
    <glyph glyph-name="overscore" unicode="&#xaf;" horiz-adv-x="792" 
d="M772 1315h-752v225h752v-225z" />
    <glyph glyph-name="degree" unicode="&#xb0;" horiz-adv-x="999" 
d="M809 765c-77 -79 -180 -118 -309 -118c-130 0 -233 39 -309 118c-77 79 -115 176 -115 292c0 115 39 211 116 290c77 78 179 117 308 117c128 0 231 -39 308 -117c77 -79 116 -175 116 -290c0 -116 -38 -213 -115 -292zM343 906c39 -40 91 -60 157 -60
c65 0 118 20 157 60c39 39 58 90 58 151s-19 112 -58 152c-39 39 -92 59 -157 59c-66 0 -118 -20 -157 -59c-39 -40 -58 -91 -58 -152s19 -112 58 -151z" />
    <glyph glyph-name="plusminus" unicode="&#xb1;" horiz-adv-x="1335" 
d="M786 1411v-491h486v-226h-486v-489h-237v489h-483v226h483v491h237zM1270 -119h-1204v228h1204v-228z" />
    <glyph glyph-name="acute" unicode="&#xb4;" horiz-adv-x="454" 
d="M264 1202h-244l170 338h244z" />
    <glyph glyph-name="paragraph" unicode="&#xb6;" horiz-adv-x="1681" 
d="M1614 0h-801c-220 0 -396 66 -528 197c-133 131 -199 304 -199 520c0 217 65 391 195 522c129 130 307 195 532 195h801v-240h-203v-954h203v-240zM926 1194v-954h221v954h-221z" />
    <glyph glyph-name="middot" unicode="&#xb7;" horiz-adv-x="495" 
d="M354 481c-26 -27 -61 -41 -106 -41s-81 13 -107 40s-39 61 -39 102c0 39 13 73 40 101s62 42 106 42c43 0 78 -14 105 -42s40 -62 40 -101c0 -41 -13 -74 -39 -101z" />
    <glyph glyph-name="cedilla" unicode="&#xb8;" horiz-adv-x="456" 
d="M217 -90h23c57 0 104 -19 141 -56s55 -84 55 -143c0 -63 -20 -113 -59 -152c-40 -38 -92 -57 -156 -57c-69 0 -123 20 -160 60l74 98c21 -18 44 -27 70 -27c55 0 84 31 84 78c0 44 -30 78 -82 78h-187l132 240h135z" />
    <glyph glyph-name="guillemotright" unicode="&#xbb;" horiz-adv-x="1462" 
d="M737 449l-551 -437l-125 178l453 363l-453 362l125 179l551 -437v-208zM1401 449l-551 -437l-125 178l453 363l-453 362l125 179l551 -437v-208z" />
    <glyph glyph-name="questiondown" unicode="&#xbf;" horiz-adv-x="1355" 
d="M602 1055c26 27 62 41 107 41s80 -14 106 -41s39 -61 39 -101c0 -81 -55 -143 -145 -143s-146 62 -146 143c0 39 13 73 39 101zM578 711h260c5 -100 -7 -178 -38 -233s-99 -103 -206 -144l-59 -23c-128 -52 -185 -110 -185 -225c0 -155 105 -233 314 -233
c243 0 363 97 350 321h256c16 -368 -187 -553 -604 -553c-387 0 -580 154 -580 463c0 86 19 157 58 214c38 57 107 107 208 151l74 32c65 27 107 58 126 92c19 33 27 79 26 138z" />
    <glyph glyph-name="Agrave" unicode="&#xc0;" horiz-adv-x="1634" 
d="M770 1909l170 -338h-244l-170 338h244zM1589 0h-276l-88 203h-817l-89 -203h-274l629 1434h284zM817 1143l-317 -729h633z" />
    <glyph glyph-name="Aacute" unicode="&#xc1;" horiz-adv-x="1634" 
d="M889 1909h244l-170 -338h-244zM1589 0h-276l-88 203h-817l-89 -203h-274l629 1434h284zM817 1143l-317 -729h633z" />
    <glyph glyph-name="Acircumflex" unicode="&#xc2;" horiz-adv-x="1634" 
d="M932 1571l-115 227l-115 -227h-237l170 338h366l170 -338h-239zM1589 0h-276l-88 203h-817l-89 -203h-274l629 1434h284zM817 1143l-317 -729h633z" />
    <glyph glyph-name="Atilde" unicode="&#xc3;" horiz-adv-x="1634" 
d="M1012 1718c-52 0 -117 -15 -194 -46s-145 -46 -202 -46c-82 0 -153 21 -213 64v198c63 -44 136 -66 220 -65c52 0 117 15 194 46s144 46 201 46c82 0 153 -21 213 -64v-198c-63 43 -136 65 -219 65zM1589 0h-276l-88 203h-817l-89 -203h-274l629 1434h284zM817 1143
l-317 -729h633z" />
    <glyph glyph-name="Adieresis" unicode="&#xc4;" horiz-adv-x="1634" 
d="M634 1674c-25 -25 -60 -38 -103 -38c-44 0 -79 13 -104 38s-38 57 -38 94s13 68 38 93s60 37 104 37c43 0 78 -12 103 -37s38 -56 38 -93s-13 -69 -38 -94zM1205 1674c-25 -25 -60 -38 -103 -38c-44 0 -78 13 -103 38s-38 57 -38 94s13 68 38 93s59 37 103 37
c43 0 78 -12 103 -37s38 -56 38 -93s-13 -69 -38 -94zM1589 0h-276l-88 203h-817l-89 -203h-274l629 1434h284zM817 1143l-317 -729h633z" />
    <glyph glyph-name="Aring" unicode="&#xc5;" horiz-adv-x="1634" 
d="M964 1607c-37 -38 -86 -57 -147 -57s-110 19 -146 57c-37 37 -55 83 -55 138c0 56 18 103 55 141c36 37 85 56 146 56s110 -19 147 -56c36 -38 54 -85 54 -141c0 -55 -18 -101 -54 -138zM873 1800c-14 14 -33 21 -56 21s-42 -7 -55 -21c-28 -29 -28 -81 0 -108
c13 -14 32 -21 55 -21s42 7 56 21c27 27 27 79 0 108zM1589 0h-276l-88 203h-817l-89 -203h-274l629 1434h284zM817 1143l-317 -729h633z" />
    <glyph glyph-name="AE" unicode="&#xc6;" horiz-adv-x="2430" 
d="M2343 1434v-232h-944v-391h903v-209h-903v-371h944v-231h-1208v256h-658l-170 -256h-282l952 1434h1366zM1135 1247l-512 -772h512v772z" />
    <glyph glyph-name="Ccedilla" unicode="&#xc7;" horiz-adv-x="1656" 
d="M854 211c235 0 385 102 451 307h256c-31 -169 -105 -301 -221 -396c-117 -95 -266 -146 -447 -153l-35 -59h23c57 0 104 -19 141 -56s55 -84 55 -143c0 -63 -20 -113 -59 -152c-40 -38 -92 -57 -156 -57c-69 0 -122 20 -157 60l71 98c41 -36 102 -34 132 -6
c15 15 22 34 22 57c0 44 -30 78 -82 78h-186l100 184c-210 19 -375 98 -495 236c-121 138 -181 307 -181 508c0 215 69 393 207 535c138 141 325 212 561 212c191 0 349 -47 472 -142s202 -230 235 -407h-256c-65 205 -216 307 -451 308c-159 0 -282 -47 -370 -141
c-88 -95 -132 -216 -132 -365c0 -147 44 -268 132 -363s211 -143 370 -143z" />
    <glyph glyph-name="Egrave" unicode="&#xc8;" horiz-adv-x="1433" 
d="M690 1909l170 -338h-244l-170 338h244zM1346 1434v-232h-945v-391h904v-209h-904v-371h945v-231h-1209v1434h1209z" />
    <glyph glyph-name="Eacute" unicode="&#xc9;" horiz-adv-x="1433" 
d="M807 1909h244l-170 -338h-244zM1346 1434v-232h-945v-391h904v-209h-904v-371h945v-231h-1209v1434h1209z" />
    <glyph glyph-name="Ecircumflex" unicode="&#xca;" horiz-adv-x="1433" 
d="M850 1571l-115 227l-114 -227h-238l170 338h367l170 -338h-240zM1346 1434v-232h-945v-391h904v-209h-904v-371h945v-231h-1209v1434h1209z" />
    <glyph glyph-name="Edieresis" unicode="&#xcb;" horiz-adv-x="1433" 
d="M554 1674c-25 -25 -60 -38 -103 -38c-44 0 -79 13 -104 38s-38 57 -38 94s13 68 38 93s60 37 104 37c43 0 78 -12 103 -37s38 -56 38 -93s-13 -69 -38 -94zM1125 1674c-25 -25 -60 -38 -103 -38c-44 0 -78 13 -103 38s-38 57 -38 94s13 68 38 93s59 37 103 37
c43 0 78 -12 103 -37s38 -56 38 -93s-13 -69 -38 -94zM1346 1434v-232h-945v-391h904v-209h-904v-371h945v-231h-1209v1434h1209z" />
    <glyph glyph-name="Igrave" unicode="&#xcc;" horiz-adv-x="538" 
d="M223 1909l170 -338h-243l-170 338h243zM401 0h-264v1434h264v-1434z" />
    <glyph glyph-name="Iacute" unicode="&#xcd;" horiz-adv-x="538" 
d="M416 1571h-244l170 338h244zM401 0h-264v1434h264v-1434z" />
    <glyph glyph-name="Icircumflex" unicode="&#xce;" horiz-adv-x="538" 
d="M383 1571l-115 227l-114 -227h-238l170 338h367l170 -338h-240zM401 0h-264v1434h264v-1434z" />
    <glyph glyph-name="Idieresis" unicode="&#xcf;" horiz-adv-x="538" 
d="M87 1674c-25 -25 -60 -38 -104 -38c-43 0 -78 13 -103 38s-38 57 -38 94s13 68 38 93s60 37 103 37c44 0 79 -12 104 -37s38 -56 38 -93s-13 -69 -38 -94zM659 1674c-25 -25 -60 -38 -104 -38s-78 13 -103 38s-38 57 -38 94s13 68 38 93s59 37 103 37s79 -12 104 -37
s37 -56 37 -93s-12 -69 -37 -94zM401 0h-264v1434h264v-1434z" />
    <glyph glyph-name="Eth" unicode="&#xd0;" horiz-adv-x="1611" 
d="M137 1434h668c231 0 410 -64 539 -191c128 -128 192 -303 192 -526c0 -221 -64 -396 -192 -524c-129 -129 -308 -193 -539 -193h-668v606h-137v223h137v605zM401 233h396c315 0 473 172 473 484c0 311 -160 483 -473 483h-396v-371h269v-223h-269v-373z" />
    <glyph glyph-name="Ntilde" unicode="&#xd1;" horiz-adv-x="1642" 
d="M621 1626c-82 0 -153 21 -213 64v198c63 -44 136 -66 219 -65c52 0 117 15 194 46s144 46 201 46c82 0 153 -21 213 -64v-198c-63 44 -136 66 -219 65c-52 0 -116 -15 -193 -46s-145 -46 -202 -46zM401 0h-264v1434h340l748 -1127h18l-2 207v920h264v-1434h-340
l-749 1126h-17l2 -206v-920z" />
    <glyph glyph-name="Ograve" unicode="&#xd2;" horiz-adv-x="1708" 
d="M807 1909l170 -338h-244l-170 338h244zM1415 182c-138 -142 -325 -213 -561 -213s-423 71 -561 213s-207 320 -207 535c0 214 69 392 207 534s325 213 561 213s423 -71 561 -213s207 -320 207 -534c0 -215 -69 -393 -207 -535zM484 354c88 -95 211 -143 370 -143
s282 48 370 143s132 216 132 363c0 149 -44 270 -132 365c-88 94 -211 141 -370 141s-282 -47 -370 -141c-88 -95 -132 -216 -132 -365c0 -147 44 -268 132 -363z" />
    <glyph glyph-name="Oacute" unicode="&#xd3;" horiz-adv-x="1708" 
d="M999 1571h-243l170 338h243zM1415 182c-138 -142 -325 -213 -561 -213s-423 71 -561 213s-207 320 -207 535c0 214 69 392 207 534s325 213 561 213s423 -71 561 -213s207 -320 207 -534c0 -215 -69 -393 -207 -535zM484 354c88 -95 211 -143 370 -143s282 48 370 143
s132 216 132 363c0 149 -44 270 -132 365c-88 94 -211 141 -370 141s-282 -47 -370 -141c-88 -95 -132 -216 -132 -365c0 -147 44 -268 132 -363z" />
    <glyph glyph-name="Ocircumflex" unicode="&#xd4;" horiz-adv-x="1708" 
d="M967 1571l-115 227l-115 -227h-237l170 338h366l170 -338h-239zM293 1251c138 142 325 213 561 213s423 -71 561 -213s207 -320 207 -534c0 -215 -69 -393 -207 -535s-325 -213 -561 -213s-423 71 -561 213s-207 320 -207 535c0 214 69 392 207 534zM484 354
c88 -95 211 -143 370 -143s282 48 370 143s132 216 132 363c0 149 -44 270 -132 365c-88 94 -211 141 -370 141s-282 -47 -370 -141c-88 -95 -132 -216 -132 -365c0 -147 44 -268 132 -363z" />
    <glyph glyph-name="Otilde" unicode="&#xd5;" horiz-adv-x="1708" 
d="M653 1626c-82 0 -153 21 -213 64v198c63 -44 136 -66 219 -65c52 0 117 15 194 46s145 46 202 46c82 0 153 -21 213 -64v-198c-63 44 -136 66 -219 65c-52 0 -117 -15 -194 -46s-145 -46 -202 -46zM1415 182c-138 -142 -325 -213 -561 -213s-423 71 -561 213
s-207 320 -207 535c0 214 69 392 207 534s325 213 561 213s423 -71 561 -213s207 -320 207 -534c0 -215 -69 -393 -207 -535zM484 354c88 -95 211 -143 370 -143s282 48 370 143s132 216 132 363c0 149 -44 270 -132 365c-88 94 -211 141 -370 141s-282 -47 -370 -141
c-88 -95 -132 -216 -132 -365c0 -147 44 -268 132 -363z" />
    <glyph glyph-name="Odieresis" unicode="&#xd6;" horiz-adv-x="1708" 
d="M671 1674c-25 -25 -60 -38 -103 -38c-44 0 -79 13 -104 38s-38 57 -38 94s13 68 38 93s60 37 104 37c43 0 78 -12 103 -37s38 -56 38 -93s-13 -69 -38 -94zM1242 1674c-25 -25 -60 -38 -103 -38c-44 0 -79 13 -104 38s-38 57 -38 94s13 68 38 93s60 37 104 37
c43 0 78 -12 103 -37s38 -56 38 -93s-13 -69 -38 -94zM1415 182c-138 -142 -325 -213 -561 -213s-423 71 -561 213s-207 320 -207 535c0 214 69 392 207 534s325 213 561 213s423 -71 561 -213s207 -320 207 -534c0 -215 -69 -393 -207 -535zM484 354
c88 -95 211 -143 370 -143s282 48 370 143s132 216 132 363c0 149 -44 270 -132 365c-88 94 -211 141 -370 141s-282 -47 -370 -141c-88 -95 -132 -216 -132 -365c0 -147 44 -268 132 -363z" />
    <glyph glyph-name="multiply" unicode="&#xd7;" horiz-adv-x="1265" 
d="M346 0h-301l442 537l-434 528h299l281 -348l280 348h299l-432 -528l441 -537h-301l-287 358z" />
    <glyph glyph-name="Oslash" unicode="&#xd8;" horiz-adv-x="1708" 
d="M1573 1313l-113 -113c108 -131 162 -292 162 -483c0 -215 -69 -393 -207 -535s-325 -213 -561 -213c-189 0 -349 48 -481 144l-113 -113l-123 119l113 112c-109 133 -164 295 -164 486c0 215 69 393 207 535c138 141 325 212 561 212c191 0 352 -48 483 -145l115 115z
M352 717c0 -115 27 -215 82 -301l723 723c-83 56 -184 84 -303 84c-159 0 -282 -47 -370 -141c-88 -95 -132 -216 -132 -365zM854 211c159 0 282 48 370 143s132 216 132 363c0 115 -27 214 -80 299l-721 -721c82 -56 182 -84 299 -84z" />
    <glyph glyph-name="Ugrave" unicode="&#xd9;" horiz-adv-x="1603" 
d="M756 1909l170 -338h-244l-170 338h244zM803 -31c-444 0 -666 213 -666 639v826h264v-828c0 -263 134 -395 402 -395c266 0 399 132 399 395v828h264v-826c1 -426 -220 -639 -663 -639z" />
    <glyph glyph-name="Uacute" unicode="&#xda;" horiz-adv-x="1603" 
d="M946 1571h-244l170 338h244zM803 -31c-444 0 -666 213 -666 639v826h264v-828c0 -263 134 -395 402 -395c266 0 399 132 399 395v828h264v-826c1 -426 -220 -639 -663 -639z" />
    <glyph glyph-name="Ucircumflex" unicode="&#xdb;" horiz-adv-x="1603" 
d="M915 1571l-114 227l-115 -227h-237l169 338h367l170 -338h-240zM1202 606v828h264v-826c0 -426 -221 -639 -663 -639c-444 0 -666 213 -666 639v826h264v-828c0 -263 134 -395 402 -395c266 0 399 132 399 395z" />
    <glyph glyph-name="Udieresis" unicode="&#xdc;" horiz-adv-x="1603" 
d="M620 1674c-25 -25 -60 -38 -103 -38c-44 0 -79 13 -104 38s-38 57 -38 94s13 68 38 93s60 37 104 37c43 0 78 -12 103 -37s37 -56 37 -93s-12 -69 -37 -94zM1191 1674c-25 -25 -60 -38 -103 -38c-44 0 -79 13 -104 38s-38 57 -38 94s13 68 38 93s60 37 104 37
c43 0 78 -12 103 -37s38 -56 38 -93s-13 -69 -38 -94zM803 -31c-444 0 -666 213 -666 639v826h264v-828c0 -263 134 -395 402 -395c266 0 399 132 399 395v828h264v-826c1 -426 -220 -639 -663 -639z" />
    <glyph glyph-name="Yacute" unicode="&#xdd;" horiz-adv-x="1646" 
d="M895 1909h244l-170 -338h-244zM1321 1434h281l-646 -1080v-354h-264v348l-647 1086h279l491 -826h14z" />
    <glyph glyph-name="Thorn" unicode="&#xde;" horiz-adv-x="1560" 
d="M401 1262h500c194 0 336 -49 427 -147c91 -99 136 -231 136 -398s-45 -299 -136 -397c-91 -99 -233 -148 -427 -148h-500v-172h-264v1434h264v-172zM401 412h459c229 0 340 95 340 305s-113 307 -340 307h-459v-612z" />
    <glyph glyph-name="germandbls" unicode="&#xdf;" horiz-adv-x="1345" 
d="M1165 844l-321 -283c131 -11 235 -55 312 -134c76 -79 114 -182 114 -310c0 -135 -45 -243 -134 -323c-90 -80 -228 -120 -413 -120h-213v215h178c216 0 320 75 320 244c0 159 -100 238 -301 238h-162v178l348 305h-510v-854h-256v1135c0 119 29 210 87 274
s154 96 288 96h151v-211h-110c-115 0 -160 -47 -160 -159v-70h782v-221z" />
    <glyph glyph-name="agrave" unicode="&#xe0;" horiz-adv-x="1280" 
d="M608 1540l170 -338h-243l-170 338h243zM637 1096c355 0 516 -115 516 -342v-754h-219l-23 119l27 59c-51 -68 -120 -120 -207 -155c-87 -36 -179 -54 -276 -54c-243 0 -379 118 -379 334c0 209 128 313 385 313h434v109c0 125 -75 176 -266 176
c-177 0 -249 -41 -262 -137h-228c-3 121 40 207 127 257s211 75 371 75zM532 166h25c138 0 251 39 338 117v172h-393c-111 0 -166 -47 -166 -140c-1 -99 65 -149 196 -149z" />
    <glyph glyph-name="aacute" unicode="&#xe1;" horiz-adv-x="1280" 
d="M725 1540h244l-170 -338h-244zM637 1096c355 0 516 -115 516 -342v-754h-219l-23 119l27 59c-51 -68 -120 -120 -207 -155c-87 -36 -179 -54 -276 -54c-243 0 -379 118 -379 334c0 209 128 313 385 313h434v109c0 125 -75 176 -266 176c-177 0 -249 -41 -262 -137h-228
c-3 121 40 207 127 257s211 75 371 75zM532 166h25c138 0 251 39 338 117v172h-393c-111 0 -166 -47 -166 -140c-1 -99 65 -149 196 -149z" />
    <glyph glyph-name="acircumflex" unicode="&#xe2;" horiz-adv-x="1280" 
d="M768 1202l-115 228l-114 -228h-238l170 338h367l170 -338h-240zM637 1096c355 0 516 -115 516 -342v-754h-219l-23 119l27 59c-51 -68 -120 -120 -207 -155c-87 -36 -179 -54 -276 -54c-243 0 -379 118 -379 334c0 209 128 313 385 313h434v109c0 125 -75 176 -266 176
c-177 0 -249 -41 -262 -137h-228c-3 121 40 207 127 257s211 75 371 75zM532 166h25c138 0 251 39 338 117v172h-393c-111 0 -166 -47 -166 -140c-1 -99 65 -149 196 -149z" />
    <glyph glyph-name="atilde" unicode="&#xe3;" horiz-adv-x="1280" 
d="M848 1350c-52 0 -116 -15 -193 -46s-145 -47 -202 -47c-82 0 -153 21 -213 64v199c63 -44 136 -66 219 -66c52 0 117 15 194 46s144 46 201 46c82 0 153 -21 213 -63v-199c-63 44 -136 66 -219 66zM637 1096c355 0 516 -115 516 -342v-754h-219l-23 119l27 59
c-51 -68 -120 -120 -207 -155c-87 -36 -179 -54 -276 -54c-243 0 -379 118 -379 334c0 209 128 313 385 313h434v109c0 125 -75 176 -266 176c-177 0 -249 -41 -262 -137h-228c-3 121 40 207 127 257s211 75 371 75zM532 166h25c138 0 251 39 338 117v172h-393
c-111 0 -166 -47 -166 -140c-1 -99 65 -149 196 -149z" />
    <glyph glyph-name="adieresis" unicode="&#xe4;" horiz-adv-x="1280" 
d="M472 1306c-25 -25 -60 -38 -103 -38c-44 0 -79 13 -104 38s-38 56 -38 93s13 68 38 93s60 38 104 38c43 0 78 -13 103 -38s38 -56 38 -93s-13 -68 -38 -93zM1044 1306c-25 -25 -60 -38 -104 -38s-78 13 -103 38s-38 56 -38 93s13 68 38 93s59 38 103 38s79 -13 104 -38
s37 -56 37 -93s-12 -68 -37 -93zM637 1096c355 0 516 -115 516 -342v-754h-219l-23 119l27 59c-51 -68 -120 -120 -207 -155c-87 -36 -179 -54 -276 -54c-243 0 -379 118 -379 334c0 209 128 313 385 313h434v109c0 125 -75 176 -266 176c-177 0 -249 -41 -262 -137h-228
c-3 121 40 207 127 257s211 75 371 75zM532 166h25c138 0 251 39 338 117v172h-393c-111 0 -166 -47 -166 -140c-1 -99 65 -149 196 -149z" />
    <glyph glyph-name="aring" unicode="&#xe5;" horiz-adv-x="1280" 
d="M802 1238c-36 -37 -85 -56 -146 -56c-62 0 -111 19 -147 56s-54 83 -54 138c0 56 18 103 54 141c36 37 85 56 147 56c61 0 110 -19 146 -56c36 -38 54 -85 54 -141c0 -55 -18 -101 -54 -138zM711 1431c-28 28 -83 28 -110 0c-28 -29 -28 -81 0 -108c26 -26 83 -26 110 0
c27 27 27 79 0 108zM637 1096c355 0 516 -115 516 -342v-754h-219l-23 119l27 59c-51 -68 -120 -120 -207 -155c-87 -36 -179 -54 -276 -54c-243 0 -379 118 -379 334c0 209 128 313 385 313h434v109c0 125 -75 176 -266 176c-177 0 -249 -41 -262 -137h-228
c-3 121 40 207 127 257s211 75 371 75zM532 166h25c138 0 251 39 338 117v172h-393c-111 0 -166 -47 -166 -140c-1 -99 65 -149 196 -149z" />
    <glyph glyph-name="ae" unicode="&#xe6;" horiz-adv-x="2121" 
d="M2042 446h-889c29 -186 143 -279 344 -278c135 0 224 45 266 135h246c-29 -98 -89 -178 -182 -240c-93 -63 -208 -94 -346 -94c-217 0 -379 74 -484 221c-117 -147 -286 -221 -505 -221c-265 0 -416 115 -416 328c0 203 133 319 413 319h406v107c0 128 -74 178 -262 178
c-89 0 -152 -11 -190 -32c-39 -22 -65 -57 -78 -105h-228c15 221 183 332 502 332c216 0 359 -47 430 -142c105 94 242 141 410 142c184 0 327 -57 430 -172c102 -115 146 -274 133 -478zM1479 903c-197 0 -306 -99 -328 -297h645c-29 198 -134 297 -317 297zM526 174
c79 0 153 18 222 55c68 36 117 82 147 138v73h-395c-111 0 -166 -44 -166 -131c-1 -90 63 -135 192 -135z" />
    <glyph glyph-name="ccedilla" unicode="&#xe7;" horiz-adv-x="1280" 
d="M662 197c157 0 255 67 292 200h250c-18 -125 -71 -226 -159 -302c-88 -77 -204 -119 -347 -126l-34 -59h22c57 0 105 -19 142 -56s55 -84 55 -143c0 -63 -20 -113 -59 -152c-40 -38 -92 -57 -156 -57c-69 0 -122 20 -158 60l72 98c21 -18 44 -27 69 -27c55 0 84 31 84 78
c0 44 -30 78 -82 78h-186l102 186c-157 18 -279 79 -365 182c-87 103 -129 228 -128 375c1 163 53 297 156 404c102 107 245 160 430 160c154 0 278 -39 373 -116c94 -77 150 -181 169 -312h-250c-38 134 -135 201 -292 200c-104 0 -186 -31 -245 -93s-89 -143 -89 -242
c0 -100 30 -181 89 -243s141 -93 245 -93z" />
    <glyph glyph-name="egrave" unicode="&#xe8;" horiz-adv-x="1300" 
d="M604 1540l170 -338h-244l-170 338h244zM1223 446h-889c29 -186 143 -279 344 -278c134 0 222 45 264 135h246c-27 -98 -88 -178 -181 -240c-94 -63 -210 -94 -348 -94c-183 0 -325 53 -428 159s-155 241 -155 404s52 297 155 404s245 160 426 160c186 0 330 -57 433 -172
c102 -115 146 -274 133 -478zM657 903c-195 0 -304 -99 -325 -297h645c-29 198 -136 297 -320 297z" />
    <glyph glyph-name="eacute" unicode="&#xe9;" horiz-adv-x="1300" 
d="M723 1540h244l-170 -338h-244zM1223 446h-889c29 -186 143 -279 344 -278c134 0 222 45 264 135h246c-27 -98 -88 -178 -181 -240c-94 -63 -210 -94 -348 -94c-183 0 -325 53 -428 159s-155 241 -155 404s52 297 155 404s245 160 426 160c186 0 330 -57 433 -172
c102 -115 146 -274 133 -478zM657 903c-195 0 -304 -99 -325 -297h645c-29 198 -136 297 -320 297z" />
    <glyph glyph-name="ecircumflex" unicode="&#xea;" horiz-adv-x="1300" 
d="M766 1202l-115 228l-114 -228h-238l170 338h367l170 -338h-240zM1223 446h-889c29 -186 143 -279 344 -278c134 0 222 45 264 135h246c-27 -98 -88 -178 -181 -240c-94 -63 -210 -94 -348 -94c-183 0 -325 53 -428 159s-155 241 -155 404s52 297 155 404s245 160 426 160
c186 0 330 -57 433 -172c102 -115 146 -274 133 -478zM657 903c-195 0 -304 -99 -325 -297h645c-29 198 -136 297 -320 297z" />
    <glyph glyph-name="edieresis" unicode="&#xeb;" horiz-adv-x="1300" 
d="M468 1306c-25 -25 -60 -38 -103 -38c-44 0 -79 13 -104 38s-38 56 -38 93s13 68 38 93s60 38 104 38c43 0 78 -13 103 -38s38 -56 38 -93s-13 -68 -38 -93zM1039 1306c-25 -25 -60 -38 -103 -38c-44 0 -78 13 -103 38s-38 56 -38 93s13 68 38 93s59 38 103 38
c43 0 78 -13 103 -38s38 -56 38 -93s-13 -68 -38 -93zM1223 446h-889c29 -186 143 -279 344 -278c134 0 222 45 264 135h246c-27 -98 -88 -178 -181 -240c-94 -63 -210 -94 -348 -94c-183 0 -325 53 -428 159s-155 241 -155 404s52 297 155 404s245 160 426 160
c186 0 330 -57 433 -172c102 -115 146 -274 133 -478zM657 903c-195 0 -304 -99 -325 -297h645c-29 198 -136 297 -320 297z" />
    <glyph glyph-name="igrave" unicode="&#xec;" horiz-adv-x="489" 
d="M199 1540l170 -338h-244l-170 338h244zM373 0h-256v1065h256v-1065z" />
    <glyph glyph-name="iacute" unicode="&#xed;" horiz-adv-x="489" 
d="M391 1202h-244l170 338h244zM373 0h-256v1065h256v-1065z" />
    <glyph glyph-name="icircumflex" unicode="&#xee;" horiz-adv-x="489" 
d="M358 1202l-114 228l-115 -228h-238l170 338h367l170 -338h-240zM373 0h-256v1065h256v-1065z" />
    <glyph glyph-name="idieresis" unicode="&#xef;" horiz-adv-x="489" 
d="M63 1306c-25 -25 -60 -38 -104 -38c-43 0 -78 13 -103 38s-38 56 -38 93s13 68 38 93s60 38 103 38c44 0 79 -13 104 -38s37 -56 37 -93s-12 -68 -37 -93zM634 1306c-25 -25 -60 -38 -103 -38c-44 0 -79 13 -104 38s-38 56 -38 93s13 68 38 93s60 38 104 38
c43 0 78 -13 103 -38s38 -56 38 -93s-13 -68 -38 -93zM373 0h-256v1065h256v-1065z" />
    <glyph glyph-name="eth" unicode="&#xf0;" horiz-adv-x="1331" 
d="M885 1251l159 -200c81 -100 136 -189 166 -268s45 -160 45 -242c0 -163 -53 -299 -159 -408c-107 -109 -250 -164 -430 -164c-181 0 -325 55 -431 165s-159 246 -159 409c0 160 52 292 155 397c103 104 246 156 431 156c17 0 41 -1 73 -4l-127 159h-418v183h275l-131 163
h276l131 -163h369v-183h-225zM666 203c103 0 184 31 243 93s88 141 88 237c0 95 -30 174 -89 236s-140 93 -242 93c-101 0 -182 -31 -242 -93s-90 -141 -90 -236c0 -96 30 -175 90 -237s141 -93 242 -93z" />
    <glyph glyph-name="ntilde" unicode="&#xf1;" 
d="M877 1350c-52 0 -117 -15 -194 -46s-145 -47 -202 -47c-82 0 -153 21 -213 64v199c63 -44 136 -66 219 -66c52 0 117 15 194 46s145 46 202 46c82 0 153 -21 213 -63v-199c-63 44 -136 66 -219 66zM791 1096c295 0 448 -177 448 -486v-610h-256v561
c0 206 -95 309 -285 309c-196 0 -315 -110 -315 -315v-555h-256v1065h248l8 -156l-29 -80c87 178 232 267 437 267z" />
    <glyph glyph-name="ograve" unicode="&#xf2;" horiz-adv-x="1318" 
d="M612 1540l170 -338h-243l-170 338h243zM1086 129c-105 -107 -247 -160 -426 -160s-321 54 -426 161s-158 241 -158 402c0 163 53 297 158 404s247 160 426 160s321 -53 426 -160s157 -241 157 -403c0 -163 -52 -297 -157 -404zM659 197c104 0 185 31 244 93
s88 143 88 243c0 99 -29 180 -88 242s-140 93 -243 93c-104 0 -185 -31 -244 -93s-88 -143 -88 -243c0 -98 30 -178 89 -241s139 -94 242 -94z" />
    <glyph glyph-name="oacute" unicode="&#xf3;" horiz-adv-x="1318" 
d="M805 1202h-244l170 338h244zM1086 129c-105 -107 -247 -160 -426 -160s-321 54 -426 161s-158 241 -158 402c0 163 53 297 158 404s247 160 426 160s321 -53 426 -160s157 -241 157 -403c0 -163 -52 -297 -157 -404zM659 197c104 0 185 31 244 93s88 143 88 243
c0 99 -29 180 -88 242s-140 93 -243 93c-104 0 -185 -31 -244 -93s-88 -143 -88 -243c0 -98 30 -178 89 -241s139 -94 242 -94z" />
    <glyph glyph-name="ocircumflex" unicode="&#xf4;" horiz-adv-x="1318" 
d="M774 1202l-115 228l-114 -228h-238l170 338h367l170 -338h-240zM234 936c105 107 247 160 426 160s321 -53 426 -160s157 -241 157 -403c0 -163 -52 -297 -157 -404s-247 -160 -426 -160s-321 54 -426 161s-158 241 -158 402c0 163 53 297 158 404zM659 197
c104 0 185 31 244 93s88 143 88 243c0 99 -29 180 -88 242s-140 93 -243 93c-104 0 -185 -31 -244 -93s-88 -143 -88 -243c0 -98 30 -178 89 -241s139 -94 242 -94z" />
    <glyph glyph-name="otilde" unicode="&#xf5;" horiz-adv-x="1318" 
d="M459 1257c-82 0 -153 21 -213 64v199c63 -44 136 -66 219 -66c52 0 117 15 194 46s144 46 201 46c82 0 153 -21 213 -63v-199c-63 44 -136 66 -219 66c-52 0 -116 -15 -193 -46s-145 -47 -202 -47zM1086 129c-105 -107 -247 -160 -426 -160s-321 54 -426 161
s-158 241 -158 402c0 163 53 297 158 404s247 160 426 160s321 -53 426 -160s157 -241 157 -403c0 -163 -52 -297 -157 -404zM659 197c104 0 185 31 244 93s88 143 88 243c0 99 -29 180 -88 242s-140 93 -243 93c-104 0 -185 -31 -244 -93s-88 -143 -88 -243
c0 -98 30 -178 89 -241s139 -94 242 -94z" />
    <glyph glyph-name="odieresis" unicode="&#xf6;" horiz-adv-x="1318" 
d="M476 1306c-25 -25 -60 -38 -103 -38c-44 0 -79 13 -104 38s-38 56 -38 93s13 68 38 93s60 38 104 38c43 0 78 -13 103 -38s38 -56 38 -93s-13 -68 -38 -93zM1048 1306c-25 -25 -60 -38 -103 -38c-44 0 -79 13 -104 38s-38 56 -38 93s13 68 38 93s60 38 104 38
c43 0 78 -13 103 -38s37 -56 37 -93s-12 -68 -37 -93zM1086 129c-105 -107 -247 -160 -426 -160s-321 54 -426 161s-158 241 -158 402c0 163 53 297 158 404s247 160 426 160s321 -53 426 -160s157 -241 157 -403c0 -163 -52 -297 -157 -404zM659 197c104 0 185 31 244 93
s88 143 88 243c0 99 -29 180 -88 242s-140 93 -243 93c-104 0 -185 -31 -244 -93s-88 -143 -88 -243c0 -98 30 -178 89 -241s139 -94 242 -94z" />
    <glyph glyph-name="divide" unicode="&#xf7;" horiz-adv-x="1353" 
d="M676 913c-81 0 -135 59 -135 136c0 73 53 133 135 133s137 -60 137 -133c0 -76 -53 -136 -137 -136zM1288 420h-1222v225h1222v-225zM775 -78c-25 -26 -58 -39 -99 -39s-74 13 -98 39c-25 26 -37 57 -37 94c0 76 52 136 135 136c84 0 137 -59 137 -136
c0 -37 -13 -68 -38 -94z" />
    <glyph glyph-name="oslash" unicode="&#xf8;" horiz-adv-x="1327" 
d="M1192 956l-66 -65c78 -101 117 -221 117 -359c0 -163 -52 -297 -157 -403c-105 -107 -248 -160 -427 -160c-138 0 -255 34 -352 101l-65 -66l-107 105l62 61c-81 103 -121 223 -121 362c0 163 53 297 158 404s246 160 425 160c141 0 260 -35 359 -105l69 70zM328 532
c0 -71 16 -132 47 -184l471 471c-49 33 -112 49 -187 49c-104 0 -185 -31 -243 -93c-59 -62 -88 -143 -88 -243zM659 197c104 0 185 31 244 93s88 143 88 242c0 68 -14 128 -43 181l-469 -471c52 -30 112 -45 180 -45z" />
    <glyph glyph-name="ugrave" unicode="&#xf9;" 
d="M639 1540l170 -338h-244l-170 338h244zM983 510v555h256v-1065h-246l-10 156l27 71c-86 -172 -231 -258 -435 -258c-295 0 -448 177 -448 486v610h256v-561c0 -206 95 -309 285 -309c196 0 315 112 315 315z" />
    <glyph glyph-name="uacute" unicode="&#xfa;" 
d="M758 1540h243l-170 -338h-243zM983 510v555h256v-1065h-246l-10 156l27 71c-86 -172 -231 -258 -435 -258c-295 0 -448 177 -448 486v610h256v-561c0 -206 95 -309 285 -309c196 0 315 112 315 315z" />
    <glyph glyph-name="ucircumflex" unicode="&#xfb;" 
d="M801 1202l-115 228l-115 -228h-237l170 338h366l170 -338h-239zM983 510v555h256v-1065h-246l-10 156l27 71c-86 -172 -231 -258 -435 -258c-295 0 -448 177 -448 486v610h256v-561c0 -206 95 -309 285 -309c196 0 315 112 315 315z" />
    <glyph glyph-name="udieresis" unicode="&#xfc;" 
d="M503 1306c-25 -25 -60 -38 -103 -38c-44 0 -79 13 -104 38s-38 56 -38 93s13 68 38 93s60 38 104 38c43 0 78 -13 103 -38s38 -56 38 -93s-13 -68 -38 -93zM1074 1306c-25 -25 -60 -38 -103 -38c-44 0 -79 13 -104 38s-38 56 -38 93s13 68 38 93s60 38 104 38
c43 0 78 -13 103 -38s38 -56 38 -93s-13 -68 -38 -93zM983 510v555h256v-1065h-246l-10 156l27 71c-86 -172 -231 -258 -435 -258c-295 0 -448 177 -448 486v610h256v-561c0 -206 95 -309 285 -309c196 0 315 112 315 315z" />
    <glyph glyph-name="yacute" unicode="&#xfd;" horiz-adv-x="1286" 
d="M788 1202h-243l170 338h243zM645 -295h-264l135 297l-57 117l-424 946h268l336 -778h8l336 778h268z" />
    <glyph glyph-name="thorn" unicode="&#xfe;" horiz-adv-x="1384" 
d="M774 1096c160 0 289 -53 388 -160c98 -107 147 -241 147 -403c0 -163 -49 -297 -147 -404c-99 -107 -228 -160 -388 -160c-177 0 -308 66 -391 199v-463h-256v1749h256v-526l-45 -101c98 179 243 269 436 269zM471 289c61 -63 144 -94 248 -94c103 0 186 31 247 94
s91 144 91 244c0 99 -30 180 -91 243s-144 94 -247 94c-104 0 -187 -31 -248 -94s-92 -144 -92 -243c0 -100 31 -181 92 -244z" />
    <glyph glyph-name="ydieresis" unicode="&#xff;" horiz-adv-x="1286" 
d="M460 1306c-25 -25 -60 -38 -103 -38c-44 0 -79 13 -104 38s-38 56 -38 93s13 68 38 93s60 38 104 38c43 0 78 -13 103 -38s38 -56 38 -93s-13 -68 -38 -93zM1031 1306c-25 -25 -60 -38 -103 -38c-44 0 -79 13 -104 38s-38 56 -38 93s13 68 38 93s60 38 104 38
c43 0 78 -13 103 -38s38 -56 38 -93s-13 -68 -38 -93zM645 -295h-264l135 297l-57 117l-424 946h268l336 -778h8l336 778h268z" />
    <glyph glyph-name="Amacron" unicode="&#x100;" horiz-adv-x="1634" 
d="M440 1909h752v-226h-752v226zM1589 0h-276l-88 203h-817l-89 -203h-274l629 1434h284zM817 1143l-317 -729h633z" />
    <glyph glyph-name="amacron" unicode="&#x101;" horiz-adv-x="1280" 
d="M279 1540h751v-225h-751v225zM637 1096c355 0 516 -115 516 -342v-754h-219l-23 119l27 59c-51 -68 -120 -120 -207 -155c-87 -36 -179 -54 -276 -54c-243 0 -379 118 -379 334c0 209 128 313 385 313h434v109c0 125 -75 176 -266 176c-177 0 -249 -41 -262 -137h-228
c-3 121 40 207 127 257s211 75 371 75zM532 166h25c138 0 251 39 338 117v172h-393c-111 0 -166 -47 -166 -140c-1 -99 65 -149 196 -149z" />
    <glyph glyph-name="Abreve" unicode="&#x102;" horiz-adv-x="1634" 
d="M1121 1626c-65 -68 -166 -102 -304 -102s-239 34 -304 101s-93 162 -85 284h223c-13 -131 46 -199 166 -199s179 67 166 199h223c8 -121 -20 -216 -85 -283zM1589 0h-276l-88 203h-817l-89 -203h-274l629 1434h284zM817 1143l-317 -729h633z" />
    <glyph glyph-name="abreve" unicode="&#x103;" horiz-adv-x="1280" 
d="M959 1257c-65 -68 -166 -102 -303 -102c-138 0 -239 34 -304 102c-65 67 -94 162 -86 283h223c-13 -131 46 -199 166 -199s179 68 166 199h223c8 -121 -20 -216 -85 -283zM637 1096c355 0 516 -115 516 -342v-754h-219l-23 119l27 59c-51 -68 -120 -120 -207 -155
c-87 -36 -179 -54 -276 -54c-243 0 -379 118 -379 334c0 209 128 313 385 313h434v109c0 125 -75 176 -266 176c-177 0 -249 -41 -262 -137h-228c-3 121 40 207 127 257s211 75 371 75zM532 166h25c138 0 251 39 338 117v172h-393c-111 0 -166 -47 -166 -140
c-1 -99 65 -149 196 -149z" />
    <glyph glyph-name="Aogonek" unicode="&#x104;" horiz-adv-x="1634" 
d="M1589 0h-47c-164 -38 -246 -107 -246 -207c0 -81 64 -120 160 -115l27 3v-173c-35 -13 -78 -20 -127 -20c-180 0 -271 89 -271 225c0 127 76 222 228 287l-88 203h-817l-89 -203h-274l629 1434h284zM817 1143l-317 -729h633z" />
    <glyph glyph-name="aogonek" unicode="&#x105;" horiz-adv-x="1280" 
d="M637 1096c355 0 516 -115 516 -342v-754h-25c-164 -38 -246 -107 -245 -207c0 -81 64 -120 159 -115l27 3v-173c-35 -13 -78 -20 -127 -20c-180 0 -270 89 -270 225c0 134 87 234 260 301l-21 105l27 59c-51 -68 -120 -120 -207 -155c-87 -36 -179 -54 -276 -54
c-243 0 -379 118 -379 334c0 209 128 313 385 313h434v109c0 125 -75 176 -266 176c-177 0 -249 -41 -262 -137h-228c-3 121 40 207 127 257s211 75 371 75zM532 166h25c138 0 251 39 338 117v172h-393c-111 0 -166 -47 -166 -140c-1 -99 65 -149 196 -149z" />
    <glyph glyph-name="Cacute" unicode="&#x106;" horiz-adv-x="1656" 
d="M985 1571h-244l170 338h244zM854 211c235 0 385 102 451 307h256c-33 -176 -111 -311 -234 -406c-124 -95 -282 -143 -473 -143c-236 0 -423 71 -561 213s-207 320 -207 535c0 214 69 392 207 534s325 213 561 213c191 0 349 -47 472 -142s202 -230 235 -407h-256
c-65 205 -216 307 -451 308c-159 0 -282 -47 -370 -141c-88 -95 -132 -216 -132 -365c0 -147 44 -268 132 -363s211 -143 370 -143z" />
    <glyph glyph-name="cacute" unicode="&#x107;" horiz-adv-x="1280" 
d="M786 1202h-243l170 338h243zM662 -31c-184 0 -328 53 -432 160s-155 241 -154 404c1 162 53 296 156 403c102 107 245 160 430 160c154 0 278 -39 373 -116c94 -77 150 -181 169 -312h-250c-38 134 -135 201 -292 200c-104 0 -186 -31 -245 -93s-89 -143 -89 -242
c0 -100 30 -181 89 -243s141 -93 245 -93c157 0 255 67 292 200h250c-19 -131 -76 -235 -170 -312s-218 -116 -372 -116z" />
    <glyph glyph-name="Cdotaccent" unicode="&#x10a;" horiz-adv-x="1656" 
d="M943 1674c-25 -25 -60 -38 -103 -38c-44 0 -79 13 -104 38s-38 57 -38 94s13 68 38 93s60 37 104 37c43 0 78 -12 103 -37s38 -56 38 -93s-13 -69 -38 -94zM854 211c235 0 385 102 451 307h256c-33 -176 -111 -311 -234 -406c-124 -95 -282 -143 -473 -143
c-236 0 -423 71 -561 213s-207 320 -207 535c0 214 69 392 207 534s325 213 561 213c191 0 349 -47 472 -142s202 -230 235 -407h-256c-65 205 -216 307 -451 308c-159 0 -282 -47 -370 -141c-88 -95 -132 -216 -132 -365c0 -147 44 -268 132 -363s211 -143 370 -143z" />
    <glyph glyph-name="cdotaccent" unicode="&#x10b;" horiz-adv-x="1280" 
d="M745 1306c-25 -25 -60 -38 -104 -38s-78 13 -103 38s-38 56 -38 93s13 68 38 93s59 38 103 38s79 -13 104 -38s37 -56 37 -93s-12 -68 -37 -93zM662 -31c-184 0 -328 53 -432 160s-155 241 -154 404c1 162 53 296 156 403c102 107 245 160 430 160
c154 0 278 -39 373 -116c94 -77 150 -181 169 -312h-250c-38 134 -135 201 -292 200c-104 0 -186 -31 -245 -93s-89 -143 -89 -242c0 -100 30 -181 89 -243s141 -93 245 -93c157 0 255 67 292 200h250c-19 -131 -76 -235 -170 -312s-218 -116 -372 -116z" />
    <glyph glyph-name="Ccaron" unicode="&#x10c;" horiz-adv-x="1656" 
d="M1024 1571h-367l-170 338h238l115 -228l114 228h240zM854 211c235 0 385 102 451 307h256c-33 -176 -111 -311 -234 -406c-124 -95 -282 -143 -473 -143c-236 0 -423 71 -561 213s-207 320 -207 535c0 214 69 392 207 534s325 213 561 213c191 0 349 -47 472 -142
s202 -230 235 -407h-256c-65 205 -216 307 -451 308c-159 0 -282 -47 -370 -141c-88 -95 -132 -216 -132 -365c0 -147 44 -268 132 -363s211 -143 370 -143z" />
    <glyph glyph-name="ccaron" unicode="&#x10d;" horiz-adv-x="1280" 
d="M825 1202h-366l-170 338h237l115 -227l115 227h239zM662 197c157 0 255 67 292 200h250c-19 -131 -76 -235 -170 -312s-218 -116 -372 -116c-184 0 -328 53 -432 160s-155 241 -154 404c1 162 53 296 156 403c102 107 245 160 430 160c154 0 278 -39 373 -116
c94 -77 150 -181 169 -312h-250c-38 134 -135 201 -292 200c-104 0 -186 -31 -245 -93s-89 -143 -89 -242c0 -100 30 -181 89 -243s141 -93 245 -93z" />
    <glyph glyph-name="Dcaron" unicode="&#x10e;" horiz-adv-x="1632" 
d="M989 1571h-366l-170 338h237l115 -228l115 228h239zM137 1434h668c231 0 410 -64 539 -191c128 -128 192 -303 192 -526c0 -221 -64 -396 -192 -524c-129 -129 -308 -193 -539 -193h-668v1434zM401 233h396c315 0 473 172 473 484c0 311 -160 483 -473 483h-396v-967z
" />
    <glyph glyph-name="dcaron" unicode="&#x10f;" horiz-adv-x="1533" 
d="M1479 1481c47 0 84 -16 113 -47c28 -32 42 -70 42 -115v-14c0 -52 -16 -101 -48 -148s-72 -82 -120 -106l2 147c-81 3 -137 63 -137 139c0 81 60 144 148 144zM1047 827l-46 101v526h256v-1454h-251l-5 166c-85 -131 -215 -197 -391 -197c-160 0 -289 54 -387 161
s-147 242 -147 403s49 295 148 402c98 107 227 161 386 161c193 0 338 -90 437 -269zM419 289c61 -63 143 -94 247 -94c103 0 186 31 248 94c61 63 92 144 92 244c0 99 -31 180 -92 243c-62 63 -145 94 -248 94c-104 0 -186 -31 -247 -94s-91 -144 -91 -243
c0 -100 30 -181 91 -244z" />
    <glyph glyph-name="Dcroat" unicode="&#x110;" horiz-adv-x="1611" 
d="M137 1434h668c231 0 410 -64 539 -191c128 -128 192 -303 192 -526c0 -221 -64 -396 -192 -524c-129 -129 -308 -193 -539 -193h-668v606h-137v223h137v605zM401 233h396c315 0 473 172 473 484c0 311 -160 483 -473 483h-396v-371h269v-223h-269v-373z" />
    <glyph glyph-name="dslash" unicode="&#x111;" horiz-adv-x="1374" 
d="M1257 1337h35v-186h-35v-1151h-251l-5 166c-85 -131 -215 -197 -391 -197c-160 0 -289 54 -387 161s-147 242 -147 403s49 295 148 402c98 107 227 161 386 161c193 0 338 -90 437 -269l-46 101v223h-376v186h376v117h256v-117zM419 289c61 -63 143 -94 247 -94
c103 0 186 31 248 94c61 63 92 144 92 244c0 99 -31 180 -92 243c-62 63 -145 94 -248 94c-104 0 -186 -31 -247 -94s-91 -144 -91 -243c0 -100 30 -181 91 -244z" />
    <glyph glyph-name="Emacron" unicode="&#x112;" horiz-adv-x="1433" 
d="M360 1909h752v-226h-752v226zM1346 1434v-232h-945v-391h904v-209h-904v-371h945v-231h-1209v1434h1209z" />
    <glyph glyph-name="emacron" unicode="&#x113;" horiz-adv-x="1300" 
d="M276 1540h752v-225h-752v225zM1223 446h-889c29 -186 143 -279 344 -278c134 0 222 45 264 135h246c-27 -98 -88 -178 -181 -240c-94 -63 -210 -94 -348 -94c-183 0 -325 53 -428 159s-155 241 -155 404s52 297 155 404s245 160 426 160c186 0 330 -57 433 -172
c102 -115 146 -274 133 -478zM657 903c-195 0 -304 -99 -325 -297h645c-29 198 -136 297 -320 297z" />
    <glyph glyph-name="Edotaccent" unicode="&#x116;" horiz-adv-x="1433" 
d="M839 1674c-25 -25 -60 -38 -103 -38c-44 0 -79 13 -104 38s-38 57 -38 94s13 68 38 93s60 37 104 37c43 0 78 -12 103 -37s38 -56 38 -93s-13 -69 -38 -94zM1346 1434v-232h-945v-391h904v-209h-904v-371h945v-231h-1209v1434h1209z" />
    <glyph glyph-name="edotaccent" unicode="&#x117;" horiz-adv-x="1300" 
d="M755 1306c-25 -25 -60 -38 -103 -38c-44 0 -79 13 -104 38s-38 56 -38 93s13 68 38 93s60 38 104 38c43 0 78 -13 103 -38s38 -56 38 -93s-13 -68 -38 -93zM1223 446h-889c29 -186 143 -279 344 -278c134 0 222 45 264 135h246c-27 -98 -88 -178 -181 -240
c-94 -63 -210 -94 -348 -94c-183 0 -325 53 -428 159s-155 241 -155 404s52 297 155 404s245 160 426 160c186 0 330 -57 433 -172c102 -115 146 -274 133 -478zM657 903c-195 0 -304 -99 -325 -297h645c-29 198 -136 297 -320 297z" />
    <glyph glyph-name="Eogonek" unicode="&#x118;" horiz-adv-x="1433" 
d="M1346 1434v-232h-945v-391h904v-209h-904v-371h945v-231h-3c-164 -38 -246 -107 -245 -207c0 -81 64 -120 159 -115l27 3v-173c-35 -13 -78 -20 -127 -20c-180 0 -270 89 -270 225c0 124 75 220 225 287h-975v1434h1209z" />
    <glyph glyph-name="eogonek" unicode="&#x119;" horiz-adv-x="1300" 
d="M1223 446h-889c29 -186 143 -279 344 -278c134 0 222 45 264 135h246c-22 -81 -67 -150 -135 -207c-69 -57 -153 -95 -254 -114c-120 -39 -180 -102 -181 -189c0 -81 65 -120 160 -115l27 3v-173c-35 -13 -78 -20 -127 -20c-180 0 -270 89 -270 225c0 109 57 196 172 260
c-160 17 -284 76 -372 179c-88 102 -132 229 -132 380c0 163 52 297 155 404s245 160 426 160c186 0 330 -57 433 -172c102 -115 146 -274 133 -478zM657 903c-195 0 -304 -99 -325 -297h645c-29 198 -136 297 -320 297z" />
    <glyph glyph-name="Ecaron" unicode="&#x11a;" horiz-adv-x="1433" 
d="M920 1571h-367l-170 338h238l114 -228l115 228h240zM1346 1434v-232h-945v-391h904v-209h-904v-371h945v-231h-1209v1434h1209z" />
    <glyph glyph-name="ecaron" unicode="&#x11b;" horiz-adv-x="1300" 
d="M836 1202h-367l-170 338h238l114 -227l115 227h240zM1223 446h-889c29 -186 143 -279 344 -278c134 0 222 45 264 135h246c-27 -98 -88 -178 -181 -240c-94 -63 -210 -94 -348 -94c-183 0 -325 53 -428 159s-155 241 -155 404s52 297 155 404s245 160 426 160
c186 0 330 -57 433 -172c102 -115 146 -274 133 -478zM657 903c-195 0 -304 -99 -325 -297h645c-29 198 -136 297 -320 297z" />
    <glyph glyph-name="Gbreve" unicode="&#x11e;" horiz-adv-x="1665" 
d="M1127 1626c-65 -68 -166 -102 -304 -102s-239 34 -304 101s-93 162 -85 284h223c-13 -131 46 -199 166 -199s179 67 166 199h223c8 -121 -20 -216 -85 -283zM1276 555h-420v203h672v-522c-154 -177 -371 -266 -651 -267c-249 0 -443 70 -582 210s-209 319 -209 538
c0 216 69 395 208 536s325 211 560 211c184 0 335 -45 452 -136s191 -217 222 -378h-258c-57 181 -193 272 -408 273c-163 0 -288 -47 -377 -142s-133 -218 -133 -368c0 -151 46 -275 138 -370c91 -96 226 -144 405 -144c161 0 288 39 381 118v238z" />
    <glyph glyph-name="gbreve" unicode="&#x11f;" horiz-adv-x="1339" 
d="M976 1257c-65 -68 -166 -102 -304 -102s-239 34 -304 102c-65 67 -94 162 -85 283h223c-13 -131 46 -199 166 -199s179 68 166 199h223c8 -121 -20 -216 -85 -283zM352 33h676c131 0 197 -56 197 -168c0 -74 -26 -131 -78 -172h-195l9 33c21 81 1 112 -78 112h-746
l-35 195l170 231c-121 78 -182 202 -182 371c0 141 45 253 135 336s220 125 389 125c171 0 299 -48 385 -144l76 113h240l-178 -283c13 -42 20 -91 20 -147c0 -142 -45 -254 -136 -336s-223 -123 -398 -123c-55 0 -106 4 -154 12zM1034 907l2 2l-4 2c0 -3 2 -1 2 -4z
M841 827c-50 44 -123 66 -218 66c-96 0 -169 -22 -218 -66c-50 -45 -75 -109 -75 -192c0 -169 101 -262 293 -262c191 0 292 93 292 262c0 83 -25 147 -74 192z" />
    <glyph glyph-name="Gdotaccent" unicode="&#x120;" horiz-adv-x="1665" 
d="M927 1674c-25 -25 -60 -38 -103 -38c-44 0 -79 13 -104 38s-38 57 -38 94s13 68 38 93s60 37 104 37c43 0 78 -12 103 -37s38 -56 38 -93s-13 -69 -38 -94zM1276 555h-420v203h672v-522c-154 -177 -371 -266 -651 -267c-249 0 -443 70 -582 210s-209 319 -209 538
c0 216 69 395 208 536s325 211 560 211c184 0 335 -45 452 -136s191 -217 222 -378h-258c-57 181 -193 272 -408 273c-163 0 -288 -47 -377 -142s-133 -218 -133 -368c0 -151 46 -275 138 -370c91 -96 226 -144 405 -144c161 0 288 39 381 118v238z" />
    <glyph glyph-name="gdotaccent" unicode="&#x121;" horiz-adv-x="1339" 
d="M775 1306c-25 -25 -60 -38 -103 -38c-44 0 -79 13 -104 38s-38 56 -38 93s13 68 38 93s60 38 104 38c43 0 78 -13 103 -38s38 -56 38 -93s-13 -68 -38 -93zM352 33h676c131 0 197 -56 197 -168c0 -74 -26 -131 -78 -172h-195l9 33c21 81 1 112 -78 112h-746l-35 195
l170 231c-121 78 -182 202 -182 371c0 141 45 253 135 336s220 125 389 125c171 0 299 -48 385 -144l76 113h240l-178 -283c13 -42 20 -91 20 -147c0 -142 -45 -254 -136 -336s-223 -123 -398 -123c-55 0 -106 4 -154 12zM1034 907l2 2l-4 2c0 -3 2 -1 2 -4zM841 827
c-50 44 -123 66 -218 66c-96 0 -169 -22 -218 -66c-50 -45 -75 -109 -75 -192c0 -169 101 -262 293 -262c191 0 292 93 292 262c0 83 -25 147 -74 192z" />
    <glyph glyph-name="uni0122" unicode="&#x122;" horiz-adv-x="1665" 
d="M1276 555h-420v203h672v-522c-154 -177 -371 -266 -651 -267c-249 0 -443 70 -582 210s-209 319 -209 538c0 216 69 395 208 536s325 211 560 211c184 0 335 -45 452 -136s191 -217 222 -378h-258c-57 181 -193 272 -408 273c-163 0 -288 -47 -377 -142
s-133 -218 -133 -368c0 -151 46 -275 138 -370c91 -96 226 -144 405 -144c161 0 288 39 381 118v238zM834 -596h-236l178 477h238z" />
    <glyph glyph-name="uni0123" unicode="&#x123;" horiz-adv-x="1339" 
d="M743 1540h244l-170 -338h-244zM352 33h676c131 0 197 -56 197 -168c0 -74 -26 -131 -78 -172h-195l9 33c21 81 1 112 -78 112h-746l-35 195l170 231c-121 78 -182 202 -182 371c0 141 45 253 135 336s220 125 389 125c171 0 299 -48 385 -144l76 113h240l-178 -283
c13 -42 20 -91 20 -147c0 -142 -45 -254 -136 -336s-223 -123 -398 -123c-55 0 -106 4 -154 12zM1034 907l2 2l-4 2c0 -3 2 -1 2 -4zM841 827c-50 44 -123 66 -218 66c-96 0 -169 -22 -218 -66c-50 -45 -75 -109 -75 -192c0 -169 101 -262 293 -262c191 0 292 93 292 262
c0 83 -25 147 -74 192z" />
    <glyph glyph-name="Hbar" unicode="&#x126;" horiz-adv-x="1648" 
d="M1247 1192v242h264v-1434h-264v561h-846v-561h-264v1434h264v-242h846zM401 967v-181h846v181h-846z" />
    <glyph glyph-name="hbar" unicode="&#x127;" 
d="M791 1096c295 0 448 -177 448 -486v-610h-256v561c0 206 -95 309 -285 309c-196 0 -315 -110 -315 -315v-555h-256v1161h-127v182h127v111h256v-111h315v-182h-315v-252l-29 -80c87 178 232 267 437 267z" />
    <glyph glyph-name="Imacron" unicode="&#x12a;" horiz-adv-x="538" 
d="M645 1683h-751v226h751v-226zM401 0h-264v1434h264v-1434z" />
    <glyph glyph-name="imacron" unicode="&#x12b;" horiz-adv-x="489" 
d="M621 1315h-752v225h752v-225zM373 0h-256v1065h256v-1065z" />
    <glyph glyph-name="Iogonek" unicode="&#x12e;" horiz-adv-x="538" 
d="M137 8v1426h264v-1434h-51c-164 -38 -246 -107 -246 -207c0 -81 65 -120 160 -115l27 3v-173c-35 -13 -78 -20 -127 -20c-180 0 -270 89 -270 225c0 131 81 230 243 295z" />
    <glyph glyph-name="iogonek" unicode="&#x12f;" horiz-adv-x="489" 
d="M349 1306c-25 -25 -60 -38 -103 -38c-44 0 -79 13 -104 38s-38 56 -38 93s13 68 38 93s60 38 104 38c43 0 78 -13 103 -38s38 -56 38 -93s-13 -68 -38 -93zM117 4v1061h256v-1065h-35c-164 -38 -246 -107 -246 -207c0 -81 64 -120 160 -115l27 3v-173
c-35 -13 -78 -20 -127 -20c-180 0 -271 89 -271 225c0 129 79 226 236 291z" />
    <glyph glyph-name="Idot" unicode="&#x130;" horiz-adv-x="538" 
d="M374 1674c-25 -25 -60 -38 -103 -38c-44 0 -79 13 -104 38s-38 57 -38 94s13 68 38 93s60 37 104 37c43 0 78 -12 103 -37s38 -56 38 -93s-13 -69 -38 -94zM401 0h-264v1434h264v-1434z" />
    <glyph glyph-name="dotlessi" unicode="&#x131;" horiz-adv-x="489" 
d="M373 0h-256v1065h256v-1065z" />
    <glyph glyph-name="IJ" unicode="&#x132;" horiz-adv-x="2054" 
d="M401 0h-264v1434h264v-1434zM1270 -31c-443 0 -645 198 -645 602h264c0 -125 29 -217 87 -274s156 -86 294 -86c139 0 238 29 296 87s87 152 87 282v854h264v-854c0 -412 -202 -611 -647 -611z" />
    <glyph glyph-name="ij" unicode="&#x133;" horiz-adv-x="1032" 
d="M362 1303c-25 -26 -60 -39 -103 -39c-44 0 -79 13 -104 39c-25 25 -38 57 -38 94c0 76 54 135 142 135c87 0 140 -59 140 -135c0 -37 -12 -68 -37 -94zM878 1301c-25 -26 -60 -39 -103 -39c-44 0 -79 13 -104 39c-25 25 -38 57 -38 96c0 38 13 70 38 96s60 39 104 39
c43 0 78 -13 103 -39s37 -58 37 -96c0 -39 -12 -71 -37 -96zM387 0h-256v1065h256v-1065zM903 -317h-258v1382h258v-1382z" />
    <glyph glyph-name="uni0136" unicode="&#x136;" horiz-adv-x="1644" 
d="M1554 1434l-559 -693l604 -741h-309l-450 551l-445 -551h-258v1434h258v-1078l854 1078h305zM739 -539h-237l180 478h236z" />
    <glyph glyph-name="uni0137" unicode="&#x137;" horiz-adv-x="1370" 
d="M1276 1065l-426 -502l489 -563h-303l-336 389l-329 -389h-244v1454h256v-936l-4 -178h6l137 176l455 549h299zM627 -539h-236l178 478h238z" />
    <glyph glyph-name="Lacute" unicode="&#x139;" horiz-adv-x="1406" 
d="M322 1909h243l-170 -338h-243zM401 1434v-1201h920v-233h-1184v1434h264z" />
    <glyph glyph-name="lacute" unicode="&#x13a;" horiz-adv-x="509" 
d="M401 1571h-243l170 338h243zM383 0h-256v1454h256v-1454z" />
    <glyph glyph-name="uni013B" unicode="&#x13b;" horiz-adv-x="1406" 
d="M401 1434v-1201h920v-233h-1184v1434h264zM676 -539h-236l178 478h238z" />
    <glyph glyph-name="uni013C" unicode="&#x13c;" horiz-adv-x="514" 
d="M387 0h-256v1454h256v-1454zM188 -539h-237l180 478h236z" />
    <glyph glyph-name="Lcaron" unicode="&#x13d;" horiz-adv-x="1406" 
d="M696 1020l2 147c-81 3 -139 63 -139 140c0 81 62 143 150 143c47 0 84 -16 113 -47c28 -31 42 -70 42 -115v-14c0 -52 -16 -101 -48 -147c-32 -47 -72 -82 -120 -107zM401 1434v-1201h920v-233h-1184v1434h264z" />
    <glyph glyph-name="lcaron" unicode="&#x13e;" horiz-adv-x="509" 
d="M254 1681l115 228h239l-170 -338h-366l-170 338h237zM383 0h-256v1454h256v-1454z" />
    <glyph glyph-name="Lslash" unicode="&#x141;" horiz-adv-x="1406" 
d="M401 725v-492h920v-233h-1184v696l-147 -16v203l147 16v535h264v-506l340 37v-203z" />
    <glyph glyph-name="lslash" unicode="&#x142;" horiz-adv-x="628" 
d="M453 938l237 27v-203l-237 -27v-735h-256v709l-258 -29v203l258 28v543h256v-516z" />
    <glyph glyph-name="Nacute" unicode="&#x143;" horiz-adv-x="1642" 
d="M967 1571h-244l170 338h244zM401 0h-264v1434h340l748 -1127h18l-2 207v920h264v-1434h-340l-749 1126h-17l2 -206v-920z" />
    <glyph glyph-name="nacute" unicode="&#x144;" 
d="M754 1540h243l-170 -338h-243zM791 1096c295 0 448 -177 448 -486v-610h-256v561c0 206 -95 309 -285 309c-196 0 -315 -110 -315 -315v-555h-256v1065h248l8 -156l-29 -80c87 178 232 267 437 267z" />
    <glyph glyph-name="uni0145" unicode="&#x145;" horiz-adv-x="1642" 
d="M401 0h-264v1434h340l748 -1127h18l-2 207v920h264v-1434h-340l-749 1126h-17l2 -206v-920zM823 -539h-237l180 478h235z" />
    <glyph glyph-name="uni0146" unicode="&#x146;" 
d="M791 1096c295 0 448 -177 448 -486v-610h-256v561c0 206 -95 309 -285 309c-196 0 -315 -110 -315 -315v-555h-256v1065h248l8 -156l-29 -80c87 178 232 267 437 267zM651 -539h-237l180 478h235z" />
    <glyph glyph-name="Ncaron" unicode="&#x147;" horiz-adv-x="1642" 
d="M1006 1571h-367l-170 338h238l114 -228l115 228h240zM1241 514v920h264v-1434h-340l-749 1126h-17l2 -206v-920h-264v1434h340l748 -1127h18z" />
    <glyph glyph-name="ncaron" unicode="&#x148;" 
d="M866 1202h-366l-170 338h237l115 -227l115 227h239zM791 1096c295 0 448 -177 448 -486v-610h-256v561c0 206 -95 309 -285 309c-196 0 -315 -110 -315 -315v-555h-256v1065h248l8 -156l-29 -80c87 178 232 267 437 267z" />
    <glyph glyph-name="Eng" unicode="&#x14a;" horiz-adv-x="1642" 
d="M1239 1434h266v-1436c0 -273 -134 -408 -434 -408h-88v207h51c137 0 205 68 205 203h-74l-749 1126h-17l2 -206v-920h-264v1434h340l748 -1127h14v1127z" />
    <glyph glyph-name="eng" unicode="&#x14b;" horiz-adv-x="1372" 
d="M1239 610v-239h6v-688h-256v317h-6v561c0 206 -95 309 -285 309c-196 0 -315 -110 -315 -315v-555h-256v1065h248l8 -156l-29 -80c86 177 232 266 437 267c295 0 448 -177 448 -486z" />
    <glyph glyph-name="Omacron" unicode="&#x14c;" horiz-adv-x="1708" 
d="M1229 1683h-752v226h752v-226zM1415 182c-138 -142 -325 -213 -561 -213s-423 71 -561 213s-207 320 -207 535c0 214 69 392 207 534s325 213 561 213s423 -71 561 -213s207 -320 207 -534c0 -215 -69 -393 -207 -535zM484 354c88 -95 211 -143 370 -143s282 48 370 143
s132 216 132 363c0 149 -44 270 -132 365c-88 94 -211 141 -370 141s-282 -47 -370 -141c-88 -95 -132 -216 -132 -365c0 -147 44 -268 132 -363z" />
    <glyph glyph-name="omacron" unicode="&#x14d;" horiz-adv-x="1318" 
d="M1036 1315h-751v225h751v-225zM1086 129c-105 -107 -247 -160 -426 -160s-321 54 -426 161s-158 241 -158 402c0 163 53 297 158 404s247 160 426 160s321 -53 426 -160s157 -241 157 -403c0 -163 -52 -297 -157 -404zM659 197c104 0 185 31 244 93s88 143 88 243
c0 99 -29 180 -88 242s-140 93 -243 93c-104 0 -185 -31 -244 -93s-88 -143 -88 -243c0 -98 30 -178 89 -241s139 -94 242 -94z" />
    <glyph glyph-name="Ohungarumlaut" unicode="&#x150;" horiz-adv-x="1708" 
d="M793 1530h-244l170 338h244zM1130 1530h-243l170 338h243zM1415 182c-138 -142 -325 -213 -561 -213s-423 71 -561 213s-207 320 -207 535c0 214 69 392 207 534s325 213 561 213s423 -71 561 -213s207 -320 207 -534c0 -215 -69 -393 -207 -535zM484 354
c88 -95 211 -143 370 -143s282 48 370 143s132 216 132 363c0 149 -44 270 -132 365c-88 94 -211 141 -370 141s-282 -47 -370 -141c-88 -95 -132 -216 -132 -365c0 -147 44 -268 132 -363z" />
    <glyph glyph-name="ohungarumlaut" unicode="&#x151;" horiz-adv-x="1318" 
d="M600 1161h-244l170 338h244zM938 1161h-244l170 338h244zM1086 129c-105 -107 -247 -160 -426 -160s-321 54 -426 161s-158 241 -158 402c0 163 53 297 158 404s247 160 426 160s321 -53 426 -160s157 -241 157 -403c0 -163 -52 -297 -157 -404zM659 197
c104 0 185 31 244 93s88 143 88 243c0 99 -29 180 -88 242s-140 93 -243 93c-104 0 -185 -31 -244 -93s-88 -143 -88 -243c0 -98 30 -178 89 -241s139 -94 242 -94z" />
    <glyph glyph-name="OE" unicode="&#x152;" horiz-adv-x="2654" 
d="M2566 1434v-232h-944v-391h905v-209h-905v-371h944v-231h-1206v133c-135 -109 -304 -164 -506 -164c-236 0 -423 71 -561 213s-207 320 -207 535c0 214 69 392 207 534s325 213 561 213c202 0 371 -55 506 -164v134h1206zM484 354c88 -95 211 -143 370 -143
s282 48 370 143s132 216 132 363c0 149 -44 270 -132 365c-88 94 -211 141 -370 141s-282 -47 -370 -141c-88 -95 -132 -216 -132 -365c0 -147 44 -268 132 -363z" />
    <glyph glyph-name="oe" unicode="&#x153;" horiz-adv-x="2211" 
d="M2134 446h-889c29 -186 143 -279 344 -278c134 0 223 45 266 135h246c-29 -100 -89 -181 -182 -242s-209 -92 -348 -92c-198 0 -350 64 -457 191c-109 -127 -261 -190 -455 -191c-179 0 -320 54 -425 161s-158 241 -158 402c0 163 53 297 158 404s246 160 425 160
c194 0 346 -64 455 -191c107 127 258 190 455 191c186 0 330 -57 432 -172s146 -274 133 -478zM1569 903c-195 0 -304 -99 -326 -297h645c-29 198 -135 297 -319 297zM659 197c94 0 170 26 229 79c58 52 92 122 101 209c-2 15 -2 79 0 95c-9 87 -43 157 -101 210
c-58 52 -134 78 -229 78c-104 0 -185 -31 -243 -93c-59 -62 -88 -143 -88 -243c0 -98 30 -178 89 -241s139 -94 242 -94z" />
    <glyph glyph-name="Racute" unicode="&#x154;" horiz-adv-x="1552" 
d="M866 1909h244l-170 -338h-244zM1198 502l279 -502h-267l-249 453h-39h-521v-453h-264v1434h785c183 0 318 -45 406 -134c88 -90 132 -209 132 -358c0 -219 -87 -365 -262 -440zM885 1200h-484v-514h484c213 0 313 76 313 256s-104 258 -313 258z" />
    <glyph glyph-name="racute" unicode="&#x155;" horiz-adv-x="1228" 
d="M676 1540h244l-170 -338h-244zM739 1096c129 0 227 -38 294 -114s100 -178 100 -306v-72h-240v23c0 163 -79 244 -236 243c-172 0 -274 -100 -274 -297v-573h-256v1065h248l8 -156l-18 -49c79 153 186 236 374 236z" />
    <glyph glyph-name="uni0156" unicode="&#x156;" horiz-adv-x="1552" 
d="M1198 502l279 -502h-267l-249 453h-39h-521v-453h-264v1434h785c183 0 318 -45 406 -134c88 -90 132 -209 132 -358c0 -219 -87 -365 -262 -440zM885 1200h-484v-514h484c213 0 313 76 313 256s-104 258 -313 258zM731 -539h-237l178 478h237z" />
    <glyph glyph-name="uni0157" unicode="&#x157;" horiz-adv-x="1228" 
d="M739 1096c129 0 227 -38 294 -114s100 -178 100 -306v-72h-240v23c0 163 -79 244 -236 243c-172 0 -274 -100 -274 -297v-573h-256v1065h248l8 -156l-18 -49c79 153 186 236 374 236zM180 -539h-237l180 478h237z" />
    <glyph glyph-name="Rcaron" unicode="&#x158;" horiz-adv-x="1552" 
d="M979 1571h-367l-170 338h238l115 -228l114 228h240zM1198 502l279 -502h-267l-249 453h-39h-521v-453h-264v1434h785c183 0 318 -45 406 -134c88 -90 132 -209 132 -358c0 -219 -87 -365 -262 -440zM885 1200h-484v-514h484c213 0 313 76 313 256s-104 258 -313 258z" />
    <glyph glyph-name="rcaron" unicode="&#x159;" horiz-adv-x="1228" 
d="M788 1202h-366l-170 338h237l115 -227l115 227h239zM739 1096c129 0 227 -38 294 -114s100 -178 100 -306v-72h-240v23c0 163 -79 244 -236 243c-172 0 -274 -100 -274 -297v-573h-256v1065h248l8 -156l-18 -49c79 153 186 236 374 236z" />
    <glyph glyph-name="Sacute" unicode="&#x15a;" horiz-adv-x="1470" 
d="M883 1571h-244l170 338h244zM711 -31h-2c-125 0 -211 7 -327 44c-57 17 -105 41 -144 71c-80 60 -144 171 -152 315h244c27 -142 161 -213 401 -213c257 0 385 77 385 230c0 67 -22 114 -65 143c-44 29 -116 48 -215 57l-232 21c-331 31 -493 158 -493 410
c0 279 211 418 634 417c128 0 225 -9 334 -45c55 -19 101 -43 140 -74c76 -62 133 -168 141 -311h-244c-33 156 -156 213 -383 213c-237 0 -356 -67 -356 -200c0 -123 89 -174 282 -193l230 -20c171 -17 296 -57 376 -120c79 -64 119 -162 119 -294
c0 -301 -224 -451 -673 -451z" />
    <glyph glyph-name="sacute" unicode="&#x15b;" horiz-adv-x="1179" 
d="M739 1202h-243l170 338h243zM580 -31c-136 0 -236 15 -335 62c-100 47 -161 142 -169 278h233c19 -107 102 -147 279 -147c180 0 264 40 264 141c0 81 -47 114 -170 127l-250 23c-231 22 -346 125 -346 309c0 223 169 334 506 334c128 0 222 -16 319 -61
c96 -45 154 -140 162 -279h-231c-16 104 -85 149 -260 149c-164 0 -246 -46 -246 -137c0 -79 48 -118 176 -129l250 -25c237 -21 339 -106 342 -295c0 -233 -175 -350 -524 -350z" />
    <glyph glyph-name="Scedilla" unicode="&#x15e;" horiz-adv-x="1470" 
d="M1384 420c0 -276 -182 -429 -591 -449l-37 -61h22c57 0 105 -19 142 -56s55 -84 55 -143c0 -63 -20 -113 -59 -152c-40 -38 -92 -57 -156 -57c-69 0 -122 20 -158 60l72 98c64 -56 160 -18 153 51c0 44 -30 78 -82 78h-186l98 180c-115 3 -201 15 -304 54
c-51 19 -95 43 -131 73c-72 60 -128 167 -136 303h244c27 -142 161 -213 401 -213c257 0 385 77 385 230c0 67 -22 114 -65 143c-44 29 -116 48 -215 57l-232 21c-331 31 -493 158 -493 410c0 279 211 418 634 417c128 0 225 -9 334 -45c55 -19 101 -43 140 -74
c76 -62 133 -168 141 -311h-244c-33 156 -156 213 -383 213c-237 0 -356 -67 -356 -200c0 -123 89 -174 282 -193l230 -20c171 -17 296 -57 376 -120c79 -63 119 -161 119 -294z" />
    <glyph glyph-name="scedilla" unicode="&#x15f;" horiz-adv-x="1179" 
d="M1104 319c0 -219 -152 -335 -455 -348l-37 -61h23c57 0 104 -19 141 -56s55 -84 55 -143c0 -63 -20 -113 -59 -152c-39 -38 -91 -57 -156 -57c-69 0 -122 20 -157 60l71 98c41 -36 102 -34 132 -6c15 15 22 34 22 57c0 44 -30 78 -82 78h-186l100 182
c-281 11 -428 123 -440 338h233c19 -107 102 -147 279 -147c180 0 264 40 264 141c0 81 -47 114 -170 127l-250 23c-231 22 -346 125 -346 309c0 223 169 334 506 334c128 0 222 -16 319 -61c96 -45 154 -140 162 -279h-231c-16 104 -85 149 -260 149
c-164 0 -246 -46 -246 -137c0 -79 48 -118 176 -129l250 -25c237 -21 339 -107 342 -295z" />
    <glyph glyph-name="Scaron" unicode="&#x160;" horiz-adv-x="1470" 
d="M922 1571h-367l-170 338h238l114 -228l115 228h240zM659 854l230 -20c171 -17 296 -57 376 -120c79 -64 119 -162 119 -294c0 -301 -224 -451 -673 -451h-2c-125 0 -211 7 -327 44c-57 17 -105 41 -144 71c-80 60 -144 171 -152 315h244c27 -142 161 -213 401 -213
c257 0 385 77 385 230c0 67 -22 114 -65 143c-44 29 -116 48 -215 57l-232 21c-331 31 -493 158 -493 410c0 279 211 418 634 417c128 0 225 -9 334 -45c55 -19 101 -43 140 -74c76 -62 133 -168 141 -311h-244c-33 156 -156 213 -383 213c-237 0 -356 -67 -356 -200
c0 -123 89 -174 282 -193z" />
    <glyph glyph-name="scaron" unicode="&#x161;" horiz-adv-x="1179" 
d="M778 1202h-366l-170 338h237l115 -227l115 227h239zM512 639l250 -25c237 -21 339 -106 342 -295c0 -233 -175 -350 -524 -350c-136 0 -236 15 -335 62c-100 47 -161 142 -169 278h233c19 -107 102 -147 279 -147c180 0 264 40 264 141c0 81 -47 114 -170 127l-250 23
c-231 22 -346 125 -346 309c0 223 169 334 506 334c128 0 222 -16 319 -61c96 -45 154 -140 162 -279h-231c-16 104 -85 149 -260 149c-164 0 -246 -46 -246 -137c0 -79 48 -118 176 -129z" />
    <glyph glyph-name="uni0162" unicode="&#x162;" horiz-adv-x="1482" 
d="M872 1200v-1200h-59l-53 -90h22c57 0 105 -19 142 -56s55 -84 55 -143c0 -63 -20 -113 -59 -152c-40 -38 -92 -57 -156 -57c-69 0 -122 20 -158 60l72 98c64 -56 160 -18 153 51c0 44 -30 78 -81 78h-187l115 211h-68v1200h-540v234h1343v-234h-541z" />
    <glyph glyph-name="uni0163" unicode="&#x163;" horiz-adv-x="931" 
d="M854 1065v-219h-295v-461c0 -117 50 -166 170 -166h125v-229h-172c-42 0 -78 3 -107 8l-51 -88h23c57 0 104 -19 141 -56s55 -84 55 -143c0 -63 -20 -113 -59 -152c-39 -38 -91 -57 -156 -57c-69 0 -122 20 -157 60l71 98c21 -18 44 -27 70 -27c55 0 84 31 84 78
c0 44 -30 78 -82 78h-186l131 240h10c-111 52 -166 160 -166 323v494h-233v219h233v369h256v-369h295z" />
    <glyph glyph-name="Tcaron" unicode="&#x164;" horiz-adv-x="1482" 
d="M926 1571h-367l-170 338h238l114 -228l115 228h240zM70 1434h1343v-234h-541v-1200h-262v1200h-540v234z" />
    <glyph glyph-name="tcaron" unicode="&#x165;" horiz-adv-x="931" 
d="M616 1571h-366l-170 338h237l115 -228l115 228h239zM854 1065v-219h-295v-461c0 -117 50 -166 170 -166h125v-229h-172c-271 0 -379 125 -379 362v494h-233v219h233v369h256v-369h295z" />
    <glyph glyph-name="Tbar" unicode="&#x166;" horiz-adv-x="1482" 
d="M1413 1434v-234h-541v-360h484v-240h-484v-600h-262v600h-481v240h481v360h-540v234h1343z" />
    <glyph glyph-name="tbar" unicode="&#x167;" horiz-adv-x="931" 
d="M854 1065v-219h-295v-176h295v-183h-295v-102c0 -117 50 -166 170 -166h125v-229h-172c-271 0 -379 125 -379 362v135h-233v183h233v176h-233v219h233v369h256v-369h295z" />
    <glyph glyph-name="Umacron" unicode="&#x16a;" horiz-adv-x="1603" 
d="M1178 1683h-752v226h752v-226zM803 -31c-444 0 -666 213 -666 639v826h264v-828c0 -263 134 -395 402 -395c266 0 399 132 399 395v828h264v-826c1 -426 -220 -639 -663 -639z" />
    <glyph glyph-name="umacron" unicode="&#x16b;" 
d="M309 1540h752v-225h-752v225zM983 510v555h256v-1065h-246l-10 156l27 71c-86 -172 -231 -258 -435 -258c-295 0 -448 177 -448 486v610h256v-561c0 -206 95 -309 285 -309c196 0 315 112 315 315z" />
    <glyph glyph-name="Ubreve" unicode="&#x16c;" horiz-adv-x="1603" 
d="M1107 1626c-65 -68 -166 -102 -304 -102s-239 34 -304 101s-94 162 -85 284h223c-13 -131 46 -199 166 -199s179 67 166 199h223c8 -121 -20 -216 -85 -283zM803 -31c-444 0 -666 213 -666 639v826h264v-828c0 -263 134 -395 402 -395c266 0 399 132 399 395v828h264
v-826c1 -426 -220 -639 -663 -639z" />
    <glyph glyph-name="ubreve" unicode="&#x16d;" 
d="M990 1257c-65 -68 -166 -102 -304 -102s-239 34 -304 102c-65 67 -93 162 -85 283h223c-13 -131 46 -199 166 -199s179 68 166 199h223c8 -121 -20 -216 -85 -283zM983 510v555h256v-1065h-246l-10 156l27 71c-86 -172 -231 -258 -435 -258c-295 0 -448 177 -448 486v610
h256v-561c0 -206 95 -309 285 -309c196 0 315 112 315 315z" />
    <glyph glyph-name="Uring" unicode="&#x16e;" horiz-adv-x="1603" 
d="M950 1607c-37 -38 -86 -57 -147 -57s-110 19 -146 57c-37 37 -55 83 -55 138c0 56 18 103 55 141c36 37 85 56 146 56s110 -19 147 -56c36 -38 54 -85 54 -141c0 -55 -18 -101 -54 -138zM748 1692c13 -14 32 -21 55 -21s42 7 56 21c27 27 27 79 0 108
c-14 14 -33 21 -56 21s-42 -7 -55 -21c-28 -29 -28 -81 0 -108zM803 -31c-444 0 -666 213 -666 639v826h264v-828c0 -263 134 -395 402 -395c266 0 399 132 399 395v828h264v-826c1 -426 -220 -639 -663 -639z" />
    <glyph glyph-name="uring" unicode="&#x16f;" 
d="M833 1238c-37 -37 -86 -56 -147 -56s-110 19 -146 56c-37 37 -55 83 -55 138c0 56 18 103 55 141c36 37 85 56 146 56s110 -19 147 -56c36 -38 54 -85 54 -141c0 -55 -18 -101 -54 -138zM742 1431c-14 14 -33 21 -56 21s-42 -7 -55 -21c-28 -29 -28 -81 0 -108
c13 -13 32 -20 55 -20s42 7 56 20c27 27 27 79 0 108zM983 510v555h256v-1065h-246l-10 156l27 71c-86 -172 -231 -258 -435 -258c-295 0 -448 177 -448 486v610h256v-561c0 -206 95 -309 285 -309c196 0 315 112 315 315z" />
    <glyph glyph-name="Uhungarumlaut" unicode="&#x170;" horiz-adv-x="1603" 
d="M741 1530h-243l170 338h243zM1079 1530h-243l170 338h243zM803 -31c-444 0 -666 213 -666 639v826h264v-828c0 -263 134 -395 402 -395c266 0 399 132 399 395v828h264v-826c1 -426 -220 -639 -663 -639z" />
    <glyph glyph-name="uhungarumlaut" unicode="&#x171;" 
d="M551 1499h244l-170 -338h-244zM1133 1499l-170 -338h-244l170 338h244zM983 510v555h256v-1065h-246l-10 156l27 71c-86 -172 -231 -258 -435 -258c-295 0 -448 177 -448 486v610h256v-561c0 -206 95 -309 285 -309c196 0 315 112 315 315z" />
    <glyph glyph-name="Uogonek" unicode="&#x172;" horiz-adv-x="1603" 
d="M1202 606v828h264v-826c0 -358 -156 -565 -467 -622c-130 -39 -195 -104 -194 -193c0 -81 64 -120 160 -115l26 3v-173c-35 -13 -78 -20 -127 -20c-180 0 -270 89 -270 225c0 108 55 193 166 256c-415 13 -623 226 -623 639v826h264v-828c0 -263 134 -395 402 -395
c266 0 399 132 399 395z" />
    <glyph glyph-name="uogonek" unicode="&#x173;" 
d="M983 510v555h256v-1065h-57c-164 -38 -246 -107 -246 -207c0 -81 64 -120 160 -115l26 3v-173c-35 -13 -78 -20 -127 -20c-180 0 -270 89 -270 225c0 137 89 238 266 303l-8 140l27 71c-86 -172 -231 -258 -435 -258c-295 0 -448 177 -448 486v610h256v-561
c0 -206 95 -309 285 -309c196 0 315 112 315 315z" />
    <glyph glyph-name="Wcircumflex" unicode="&#x174;" horiz-adv-x="2461" 
d="M1346 1571l-115 227l-115 -227h-237l170 338h366l170 -338h-239zM1784 319l358 1115h275l-471 -1434h-295l-420 1112l-422 -1112h-295l-469 1434h272l359 -1115l422 1115h264z" />
    <glyph glyph-name="wcircumflex" unicode="&#x175;" horiz-adv-x="1982" 
d="M1106 1202l-115 228l-114 -228h-238l170 338h367l170 -338h-240zM1432 274l251 791h265l-365 -1065h-283l-309 791l-309 -791h-283l-364 1065h264l252 -791l305 791h268z" />
    <glyph glyph-name="Ycircumflex" unicode="&#x176;" horiz-adv-x="1646" 
d="M936 1571l-115 227l-114 -227h-238l170 338h367l170 -338h-240zM1321 1434h281l-646 -1080v-354h-264v348l-647 1086h279l491 -826h14z" />
    <glyph glyph-name="ycircumflex" unicode="&#x177;" horiz-adv-x="1286" 
d="M758 1202l-115 228l-115 -228h-237l170 338h366l170 -338h-239zM647 287l336 778h268l-606 -1360h-264l135 297l-57 117l-424 946h268l336 -778h8z" />
    <glyph glyph-name="Ydieresis" unicode="&#x178;" horiz-adv-x="1646" 
d="M640 1674c-25 -25 -60 -38 -103 -38c-44 0 -79 13 -104 38s-38 57 -38 94s13 68 38 93s60 37 104 37c43 0 78 -12 103 -37s38 -56 38 -93s-13 -69 -38 -94zM1212 1674c-25 -25 -60 -38 -104 -38s-78 13 -103 38s-38 57 -38 94s13 68 38 93s59 37 103 37s79 -12 104 -37
s37 -56 37 -93s-12 -69 -37 -94zM1321 1434h281l-646 -1080v-354h-264v348l-647 1086h279l491 -826h14z" />
    <glyph glyph-name="Zacute" unicode="&#x179;" horiz-adv-x="1536" 
d="M911 1571h-243l170 338h243zM1399 0h-1262v231l940 971h-921v232h1243v-232l-942 -971h942v-231z" />
    <glyph glyph-name="zacute" unicode="&#x17a;" horiz-adv-x="1173" 
d="M731 1202h-244l170 338h244zM1094 0h-1004v219l672 627h-656v219h977v-219l-673 -627h684v-219z" />
    <glyph glyph-name="Zdotaccent" unicode="&#x17b;" horiz-adv-x="1536" 
d="M869 1674c-25 -25 -60 -38 -103 -38c-44 0 -78 13 -103 38s-38 57 -38 94s13 68 38 93s59 37 103 37c43 0 78 -12 103 -37s38 -56 38 -93s-13 -69 -38 -94zM1399 0h-1262v231l940 971h-921v232h1243v-232l-942 -971h942v-231z" />
    <glyph glyph-name="zdotaccent" unicode="&#x17c;" horiz-adv-x="1173" 
d="M689 1306c-25 -25 -60 -38 -103 -38c-44 0 -79 13 -104 38s-38 56 -38 93s13 68 38 93s60 38 104 38c43 0 78 -13 103 -38s38 -56 38 -93s-13 -68 -38 -93zM1094 0h-1004v219l672 627h-656v219h977v-219l-673 -627h684v-219z" />
    <glyph glyph-name="Zcaron" unicode="&#x17d;" horiz-adv-x="1536" 
d="M950 1571h-366l-170 338h237l115 -228l115 228h239zM156 1434h1243v-232l-942 -971h942v-231h-1262v231l940 971h-921v232z" />
    <glyph glyph-name="zcaron" unicode="&#x17e;" horiz-adv-x="1173" 
d="M770 1202h-367l-170 338h238l115 -227l114 227h240zM1083 846l-673 -627h684v-219h-1004v219l672 627h-656v219h977v-219z" />
    <glyph glyph-name="uni01CD" unicode="&#x1cd;" horiz-adv-x="1634" 
d="M1001 1571h-366l-170 338h237l115 -228l115 228h239zM1589 0h-276l-88 203h-817l-89 -203h-274l629 1434h284zM817 1143l-317 -729h633z" />
    <glyph glyph-name="uni01CE" unicode="&#x1ce;" horiz-adv-x="1280" 
d="M838 1202h-367l-170 338h238l114 -227l115 227h240zM637 1096c355 0 516 -115 516 -342v-754h-219l-23 119l27 59c-51 -68 -120 -120 -207 -155c-87 -36 -179 -54 -276 -54c-243 0 -379 118 -379 334c0 209 128 313 385 313h434v109c0 125 -75 176 -266 176
c-177 0 -249 -41 -262 -137h-228c-3 121 40 207 127 257s211 75 371 75zM532 166h25c138 0 251 39 338 117v172h-393c-111 0 -166 -47 -166 -140c-1 -99 65 -149 196 -149z" />
    <glyph glyph-name="uni01CF" unicode="&#x1cf;" horiz-adv-x="538" 
d="M268 1681l115 228h240l-170 -338h-367l-170 338h238zM401 0h-264v1434h264v-1434z" />
    <glyph glyph-name="uni01D0" unicode="&#x1d0;" horiz-adv-x="489" 
d="M244 1313l114 227h240l-170 -338h-367l-170 338h238zM373 0h-256v1065h256v-1065z" />
    <glyph glyph-name="uni01D1" unicode="&#x1d1;" horiz-adv-x="1708" 
d="M1036 1571h-366l-170 338h237l115 -228l115 228h239zM293 1251c138 142 325 213 561 213s423 -71 561 -213s207 -320 207 -534c0 -215 -69 -393 -207 -535s-325 -213 -561 -213s-423 71 -561 213s-207 320 -207 535c0 214 69 392 207 534zM484 354
c88 -95 211 -143 370 -143s282 48 370 143s132 216 132 363c0 149 -44 270 -132 365c-88 94 -211 141 -370 141s-282 -47 -370 -141c-88 -95 -132 -216 -132 -365c0 -147 44 -268 132 -363z" />
    <glyph glyph-name="uni01D2" unicode="&#x1d2;" horiz-adv-x="1318" 
d="M844 1202h-367l-170 338h238l114 -227l115 227h240zM234 936c105 107 247 160 426 160s321 -53 426 -160s157 -241 157 -403c0 -163 -52 -297 -157 -404s-247 -160 -426 -160s-321 54 -426 161s-158 241 -158 402c0 163 53 297 158 404zM659 197c104 0 185 31 244 93
s88 143 88 243c0 99 -29 180 -88 242s-140 93 -243 93c-104 0 -185 -31 -244 -93s-88 -143 -88 -243c0 -98 30 -178 89 -241s139 -94 242 -94z" />
    <glyph glyph-name="uni01D3" unicode="&#x1d3;" horiz-adv-x="1603" 
d="M985 1571h-367l-169 338h237l115 -228l114 228h240zM1202 606v828h264v-826c0 -426 -221 -639 -663 -639c-444 0 -666 213 -666 639v826h264v-828c0 -263 134 -395 402 -395c266 0 399 132 399 395z" />
    <glyph glyph-name="uni01D4" unicode="&#x1d4;" 
d="M870 1202h-366l-170 338h237l115 -227l115 227h239zM983 510v555h256v-1065h-246l-10 156l27 71c-86 -172 -231 -258 -435 -258c-295 0 -448 177 -448 486v610h256v-561c0 -206 95 -309 285 -309c196 0 315 112 315 315z" />
    <glyph glyph-name="uni0218" unicode="&#x218;" horiz-adv-x="1470" 
d="M711 -31h-2c-125 0 -211 7 -327 44c-57 17 -105 41 -144 71c-80 60 -144 171 -152 315h244c27 -142 161 -213 401 -213c257 0 385 77 385 230c0 67 -22 114 -65 143c-44 29 -116 48 -215 57l-232 21c-331 31 -493 158 -493 410c0 279 211 418 634 417
c128 0 225 -9 334 -45c55 -19 101 -43 140 -74c76 -62 133 -168 141 -311h-244c-33 156 -156 213 -383 213c-237 0 -356 -67 -356 -200c0 -123 89 -174 282 -193l230 -20c171 -17 296 -57 376 -120c79 -64 119 -162 119 -294c0 -301 -224 -451 -673 -451zM698 -539h-237
l180 478h236z" />
    <glyph glyph-name="uni0219" unicode="&#x219;" horiz-adv-x="1179" 
d="M580 -31c-136 0 -236 15 -335 62c-100 47 -161 142 -169 278h233c19 -107 102 -147 279 -147c180 0 264 40 264 141c0 81 -47 114 -170 127l-250 23c-231 22 -346 125 -346 309c0 223 169 334 506 334c128 0 222 -16 319 -61c96 -45 154 -140 162 -279h-231
c-16 104 -85 149 -260 149c-164 0 -246 -46 -246 -137c0 -79 48 -118 176 -129l250 -25c237 -21 339 -106 342 -295c0 -233 -175 -350 -524 -350zM537 -539h-238l180 478h236z" />
    <glyph glyph-name="uni021A" unicode="&#x21a;" horiz-adv-x="1482" 
d="M70 1434h1343v-234h-541v-1200h-262v1200h-540v234zM637 -539h-238l181 478h235z" />
    <glyph glyph-name="uni021B" unicode="&#x21b;" horiz-adv-x="931" 
d="M854 1065v-219h-295v-461c0 -117 50 -166 170 -166h125v-229h-172c-271 0 -379 125 -379 362v494h-233v219h233v369h256v-369h295zM479 -539h-237l180 478h235z" />
    <glyph glyph-name="circumflex" unicode="&#x2c6;" horiz-adv-x="747" 
d="M557 1540l170 -338h-240l-114 228l-115 -228h-238l170 338h367z" />
    <glyph glyph-name="caron" unicode="&#x2c7;" horiz-adv-x="747" 
d="M373 1313l114 227h240l-170 -338h-367l-170 338h238z" />
    <glyph glyph-name="breve" unicode="&#x2d8;" horiz-adv-x="823" 
d="M716 1257c-65 -68 -167 -102 -304 -102c-138 0 -239 34 -304 102c-65 67 -94 162 -85 283h223c-13 -131 46 -199 166 -199s179 68 166 199h223c8 -121 -20 -216 -85 -283z" />
    <glyph glyph-name="dotaccent" unicode="&#x2d9;" horiz-adv-x="323" 
d="M265 1306c-25 -25 -60 -38 -103 -38c-44 0 -79 13 -104 38s-38 56 -38 93s13 68 38 93s60 38 104 38c43 0 78 -13 103 -38s38 -56 38 -93s-13 -68 -38 -93z" />
    <glyph glyph-name="ring" unicode="&#x2da;" horiz-adv-x="442" 
d="M368 1238c-37 -37 -86 -56 -147 -56s-110 19 -146 56c-37 37 -55 83 -55 138c0 56 18 103 55 141c36 37 85 56 146 56s110 -19 147 -56c36 -38 54 -85 54 -141c0 -55 -18 -101 -54 -138zM166 1323c13 -13 32 -20 55 -20s42 7 56 20c27 27 27 79 0 108
c-14 14 -33 21 -56 21s-42 -7 -55 -21c-28 -29 -28 -81 0 -108z" />
    <glyph glyph-name="tilde" unicode="&#x2dc;" horiz-adv-x="868" 
d="M233 1257c-82 0 -153 21 -213 64v199c63 -44 136 -66 220 -66c52 0 117 15 194 46s144 46 201 46c82 0 153 -21 213 -63v-199c-63 44 -136 66 -219 66c-52 0 -117 -15 -194 -46s-145 -47 -202 -47z" />
    <glyph glyph-name="hungarumlaut" unicode="&#x2dd;" horiz-adv-x="792" 
d="M264 1202h-244l170 338h244zM602 1202h-244l170 338h244z" />
    <glyph glyph-name="uni0328" unicode="&#x328;" horiz-adv-x="0" 
d="M-207 -365c-180 0 -270 89 -270 226c0 142 95 245 284 309l173 -23c-164 -38 -246 -107 -246 -206c0 -81 64 -120 160 -115l26 2v-172c-35 -14 -78 -21 -127 -21z" />
    <glyph glyph-name="Wgrave" unicode="&#x1e80;" horiz-adv-x="2461" 
d="M1184 1909l170 -338h-244l-170 338h244zM1784 319l358 1115h275l-471 -1434h-295l-420 1112l-422 -1112h-295l-469 1434h272l359 -1115l422 1115h264z" />
    <glyph glyph-name="wgrave" unicode="&#x1e81;" horiz-adv-x="1982" 
d="M944 1540l170 -338h-244l-170 338h244zM682 0h-283l-364 1065h264l252 -791l305 791h268l308 -791l251 791h265l-365 -1065h-283l-309 791z" />
    <glyph glyph-name="Wacute" unicode="&#x1e82;" horiz-adv-x="2461" 
d="M1303 1909h243l-170 -338h-243zM1784 319l358 1115h275l-471 -1434h-295l-420 1112l-422 -1112h-295l-469 1434h272l359 -1115l422 1115h264z" />
    <glyph glyph-name="wacute" unicode="&#x1e83;" horiz-adv-x="1982" 
d="M1137 1202h-244l170 338h244zM682 0h-283l-364 1065h264l252 -791l305 791h268l308 -791l251 791h265l-365 -1065h-283l-309 791z" />
    <glyph glyph-name="Wdieresis" unicode="&#x1e84;" horiz-adv-x="2461" 
d="M1048 1674c-25 -25 -60 -38 -103 -38c-44 0 -79 13 -104 38s-38 57 -38 94s13 68 38 93s60 37 104 37c43 0 78 -12 103 -37s37 -56 37 -93s-12 -69 -37 -94zM1619 1674c-25 -25 -60 -38 -103 -38c-44 0 -79 13 -104 38s-38 57 -38 94s13 68 38 93s60 37 104 37
c43 0 78 -12 103 -37s38 -56 38 -93s-13 -69 -38 -94zM1784 319l358 1115h275l-471 -1434h-295l-420 1112l-422 -1112h-295l-469 1434h272l359 -1115l422 1115h264z" />
    <glyph glyph-name="wdieresis" unicode="&#x1e85;" horiz-adv-x="1982" 
d="M808 1306c-25 -25 -60 -38 -103 -38c-44 0 -79 13 -104 38s-38 56 -38 93s13 68 38 93s60 38 104 38c43 0 78 -13 103 -38s38 -56 38 -93s-13 -68 -38 -93zM1379 1306c-25 -25 -60 -38 -103 -38c-44 0 -78 13 -103 38s-38 56 -38 93s13 68 38 93s59 38 103 38
c43 0 78 -13 103 -38s38 -56 38 -93s-13 -68 -38 -93zM682 0h-283l-364 1065h264l252 -791l305 791h268l308 -791l251 791h265l-365 -1065h-283l-309 791z" />
    <glyph glyph-name="uni1E9E" unicode="&#x1e9e;" horiz-adv-x="1445" 
d="M1253 1184l-342 -303c297 -13 446 -157 447 -430c0 -289 -172 -451 -524 -451h-213v240h186c196 0 287 62 287 229s-92 231 -283 231h-190v172l350 322h-387c-125 0 -183 -58 -183 -186v-1008h-264v1047c0 248 125 387 381 387h735v-250z" />
    <glyph glyph-name="Ygrave" unicode="&#x1ef2;" horiz-adv-x="1646" 
d="M776 1909l170 -338h-244l-170 338h244zM1321 1434h281l-646 -1080v-354h-264v348l-647 1086h279l491 -826h14z" />
    <glyph glyph-name="ygrave" unicode="&#x1ef3;" horiz-adv-x="1286" 
d="M596 1540l170 -338h-244l-170 338h244zM645 -295h-264l135 297l-57 117l-424 946h268l336 -778h8l336 778h268z" />
    <glyph glyph-name="endash" unicode="&#x2013;" horiz-adv-x="1413" 
d="M1350 420h-1284v225h1284v-225z" />
    <glyph glyph-name="emdash" unicode="&#x2014;" horiz-adv-x="1851" 
d="M1786 420h-1720v225h1720v-225z" />
    <glyph glyph-name="quoteleft" unicode="&#x2018;" horiz-adv-x="454" 
d="M254 1450l-2 -145c81 -5 137 -65 137 -142c0 -81 -60 -143 -147 -143c-48 0 -86 16 -114 48s-42 71 -42 116v12c0 52 16 101 48 148c32 46 72 81 120 106z" />
    <glyph glyph-name="quoteright" unicode="&#x2019;" horiz-adv-x="454" 
d="M201 1020l2 147c-81 3 -137 63 -137 140c0 81 59 143 147 143c48 0 86 -16 114 -47s42 -70 42 -115v-14c0 -53 -16 -103 -47 -148c-31 -46 -72 -81 -121 -106z" />
    <glyph glyph-name="quotesinglbase" unicode="&#x201a;" horiz-adv-x="393" 
d="M180 -156l2 148c-81 3 -137 63 -137 139c0 81 60 143 148 143c48 0 86 -16 114 -47c27 -31 41 -69 41 -114v-15c0 -53 -16 -103 -47 -149c-31 -45 -72 -80 -121 -105z" />
    <glyph glyph-name="quotedblleft" unicode="&#x201c;" horiz-adv-x="849" 
d="M254 1450l-2 -145c81 -5 137 -65 137 -142c0 -81 -60 -143 -147 -143c-48 0 -86 16 -114 48s-42 71 -42 116v12c0 52 16 101 48 148c32 46 72 81 120 106zM649 1450l-2 -145c81 -5 137 -65 137 -142c0 -81 -60 -143 -147 -143c-48 0 -86 16 -114 48s-42 71 -42 116v12
c0 52 16 101 48 148c32 46 72 81 120 106z" />
    <glyph glyph-name="quotedblright" unicode="&#x201d;" horiz-adv-x="849" 
d="M201 1020l2 147c-81 3 -137 63 -137 140c0 81 59 143 147 143c48 0 86 -16 114 -47s42 -70 42 -115v-14c0 -53 -16 -103 -47 -148c-31 -46 -72 -81 -121 -106zM596 1020l2 147c-81 3 -137 63 -137 140c0 81 60 143 147 143c48 0 86 -16 114 -47s42 -70 42 -115v-14
c0 -53 -16 -103 -47 -148c-31 -46 -72 -81 -121 -106z" />
    <glyph glyph-name="quotedblbase" unicode="&#x201e;" horiz-adv-x="788" 
d="M180 -156l2 148c-81 3 -137 63 -137 139c0 81 60 143 148 143c48 0 86 -16 114 -47c27 -31 41 -69 41 -114v-15c0 -53 -16 -103 -47 -149c-31 -45 -72 -80 -121 -105zM575 -156l3 148c-81 3 -138 63 -138 139c0 81 60 143 148 143c48 0 86 -16 114 -47
c27 -31 41 -69 41 -114v-15c0 -53 -16 -103 -47 -149c-31 -45 -72 -80 -121 -105z" />
    <glyph glyph-name="dagger" unicode="&#x2020;" horiz-adv-x="913" 
d="M573 1161h261v-225h-261v-272h-243v272h-260v225h260v273h243v-273z" />
    <glyph glyph-name="daggerdbl" unicode="&#x2021;" horiz-adv-x="913" 
d="M573 936v-438h261v-226h-261v-272h-243v272h-260v226h260v438h-260v225h260v273h243v-273h261v-225h-261z" />
    <glyph glyph-name="bullet" unicode="&#x2022;" horiz-adv-x="749" 
d="M499 459c-31 -31 -72 -47 -124 -47s-93 16 -124 47s-46 70 -46 117c0 46 15 85 46 117s72 48 124 48s93 -16 124 -48s46 -71 46 -117c0 -47 -15 -86 -46 -117z" />
    <glyph glyph-name="ellipsis" unicode="&#x2026;" horiz-adv-x="1239" 
d="M318 31c-26 -27 -62 -41 -107 -41s-81 14 -106 41c-26 27 -39 61 -39 100c0 81 54 143 145 143s145 -60 145 -143c0 -39 -13 -73 -38 -100zM618 -10c-88 0 -145 62 -145 141c0 39 13 73 40 101s62 42 105 42c91 0 146 -60 146 -143c0 -79 -55 -141 -146 -141zM1028 -10
c-91 0 -147 62 -147 141c0 81 58 143 147 143c44 0 79 -14 106 -42s40 -62 40 -101c0 -79 -58 -141 -146 -141z" />
    <glyph glyph-name="perthousand" unicode="&#x2030;" horiz-adv-x="1783" 
d="M381 1178c-31 -32 -73 -48 -125 -48s-93 16 -124 49c-31 32 -46 71 -46 117c0 96 67 168 170 168c107 0 172 -72 172 -168c0 -47 -16 -86 -47 -118zM358 0h-272l891 1434h272zM1077 -29c-52 0 -93 16 -124 49c-31 32 -46 72 -46 119s15 86 46 119s72 49 124 49
s94 -16 125 -49s47 -72 47 -119c0 -96 -65 -168 -172 -168zM1651 19c-31 -32 -73 -48 -125 -48s-93 16 -124 49c-31 32 -46 72 -46 119s15 86 46 119s72 49 124 49s94 -16 125 -49s47 -72 47 -119c0 -48 -16 -88 -47 -120z" />
    <glyph glyph-name="guilsinglleft" unicode="&#x2039;" horiz-adv-x="798" 
d="M737 190l-125 -178l-551 437v208l551 437l125 -179l-452 -362z" />
    <glyph glyph-name="guilsinglright" unicode="&#x203a;" horiz-adv-x="798" 
d="M737 449l-551 -437l-125 178l453 363l-453 362l125 179l551 -437v-208z" />
    <glyph glyph-name="fraction" unicode="&#x2044;" horiz-adv-x="1081" 
d="M328 0h-273l699 1434h272z" />
    <glyph glyph-name="Euro" unicode="&#x20ac;" horiz-adv-x="1771" 
d="M508 940h604v-184l-1026 -2v186h143c44 159 130 286 259 381c128 95 288 143 481 143c191 0 349 -47 472 -142s201 -230 234 -407h-256c-65 205 -215 307 -450 308c-229 0 -390 -108 -461 -283zM969 211c235 0 385 102 450 307h256c-33 -176 -111 -311 -234 -406
c-124 -95 -281 -143 -472 -143c-193 0 -353 48 -481 144c-129 95 -215 222 -259 381h-143v186l1026 2v-186l-602 -2c71 -175 230 -283 459 -283z" />
    <glyph glyph-name="uni2116" unicode="&#x2116;" horiz-adv-x="2652" 
d="M2432 641c-89 -90 -211 -135 -365 -135c-155 0 -277 45 -366 135s-134 204 -134 342c0 141 45 256 134 346s211 135 366 135c154 0 276 -45 365 -135s134 -205 134 -346c0 -138 -45 -252 -134 -342zM401 0h-264v1434h395l582 -1149h21l-2 207v942h262v-1434h-396
l-581 1149h-19l2 -207v-942zM1865 784c49 -51 116 -77 201 -77s152 26 202 77s75 117 75 199c0 83 -25 151 -75 202s-117 77 -202 77s-152 -26 -201 -77c-50 -51 -75 -119 -75 -202c0 -82 25 -148 75 -199zM2451 0h-770v215h770v-215z" />
    <glyph glyph-name="trademark" unicode="&#x2122;" horiz-adv-x="1947" 
d="M213 1434h172v-134h176v-153h-176v-254c0 -68 32 -92 109 -92h67v-156h-108c-160 0 -240 77 -240 232v270h-143v153h143v134zM1556 1319c176 0 264 -98 265 -295v-373h-170v348c0 107 -49 160 -148 160c-107 0 -168 -71 -168 -172v-336h-172v348c0 99 -48 160 -147 160
c-107 0 -168 -71 -168 -172v-336h-172v649h172v-81l-19 -64c45 109 127 164 246 164c117 0 194 -50 230 -150c45 100 128 150 251 150z" />
    <glyph glyph-name="partialdiff" unicode="&#x2202;" horiz-adv-x="1224" 
d="M543 1434l465 -600c94 -123 141 -246 141 -371c0 -141 -48 -258 -143 -352c-96 -95 -227 -142 -394 -142s-298 47 -393 142c-95 94 -143 211 -143 352c0 134 43 247 130 338s208 137 365 137c25 0 44 -1 58 -2l-387 498h301zM412 282c47 -47 114 -71 200 -71
s153 24 201 71s72 107 72 181c0 75 -24 137 -72 185c-48 47 -115 71 -201 71s-153 -24 -200 -72c-48 -48 -72 -109 -72 -184c0 -74 24 -134 72 -181z" />
    <glyph glyph-name="emptyset" unicode="&#x2205;" horiz-adv-x="1464" 
d="M1294 1212l95 -96l-205 -211c86 -103 129 -227 129 -373c0 -163 -53 -297 -158 -403c-105 -107 -247 -160 -426 -160c-138 0 -255 34 -352 101l-207 -215l-94 94l200 209c-87 103 -131 227 -131 374c0 163 53 297 158 404s247 160 426 160c139 0 257 -34 354 -101z
M397 532c0 -75 18 -141 54 -196l464 483c-49 33 -111 49 -186 49c-104 0 -185 -31 -244 -93s-88 -143 -88 -243zM1061 532c0 75 -16 140 -49 193l-467 -481c52 -31 113 -47 184 -47c104 0 185 31 244 93c59 61 88 142 88 242z" />
    <glyph glyph-name="product" unicode="&#x220f;" horiz-adv-x="1607" 
d="M137 0v1434h1333v-1434h-266v1194h-803v-1194h-264z" />
    <glyph glyph-name="summation" unicode="&#x2211;" horiz-adv-x="1523" 
d="M1386 0h-1249v250l467 459v16l-467 459v250h1249v-240h-905v-16l463 -453v-16l-463 -453v-16h905v-240z" />
    <glyph glyph-name="minus" unicode="&#x2212;" horiz-adv-x="1353" 
d="M1288 420h-1222v225h1222v-225z" />
    <glyph glyph-name="radical" unicode="&#x221a;" horiz-adv-x="1296" 
d="M469 295l506 1139h276l-643 -1434h-278l-285 633h274z" />
    <glyph glyph-name="infinity" unicode="&#x221e;" horiz-adv-x="2600" 
d="M659 -31c-176 0 -317 54 -423 163c-107 109 -160 241 -160 398c0 159 54 293 163 402c108 109 250 164 427 164c157 0 283 -45 378 -134c95 -90 146 -205 154 -346h-233c-27 156 -142 246 -299 246c-100 0 -180 -31 -241 -94s-91 -141 -91 -235c0 -95 31 -173 93 -236
s145 -94 249 -94c139 0 267 72 363 177c95 105 184 237 287 365c51 63 105 121 161 174c56 52 123 95 201 128c77 33 162 49 254 49c176 0 317 -54 424 -163c106 -109 159 -241 159 -398c0 -159 -54 -293 -162 -402c-109 -109 -251 -164 -428 -164c-157 0 -283 45 -378 135
c-95 89 -146 204 -154 345h233c27 -156 139 -246 299 -246c100 0 180 31 241 94s91 141 91 236c0 94 -31 172 -93 235s-145 94 -249 94c-139 0 -267 -72 -362 -177c-96 -105 -185 -237 -288 -364c-51 -64 -105 -122 -161 -174c-56 -53 -123 -95 -201 -128
c-78 -34 -163 -50 -254 -50z" />
    <glyph glyph-name="integral" unicode="&#x222b;" horiz-adv-x="933" 
d="M219 -410h-149v211h110c115 0 160 48 160 160v1174c0 119 29 210 87 274s154 96 288 96h151v-211h-112c-112 0 -158 -47 -158 -159v-1174c0 -247 -126 -371 -377 -371z" />
    <glyph glyph-name="approxequal" unicode="&#x2248;" horiz-adv-x="1392" 
d="M399 604c-127 0 -239 23 -338 68v235c104 -48 222 -72 355 -71c78 0 173 17 284 50s208 50 293 50c123 0 235 -23 338 -68v-235c-108 48 -226 72 -354 72c-78 0 -173 -17 -284 -50c-111 -34 -209 -51 -294 -51zM399 129c-127 0 -239 22 -338 66v237
c104 -48 222 -72 355 -72c78 0 173 17 284 51c111 33 208 50 293 50c123 0 235 -23 338 -68v-235c-108 48 -226 72 -354 71c-78 0 -173 -17 -284 -50s-209 -50 -294 -50z" />
    <glyph glyph-name="notequal" unicode="&#x2260;" horiz-adv-x="1353" 
d="M1288 930v-225h-323l-152 -347h475v-225h-573l-142 -319h-256l142 319h-393v225h491l152 347h-643v225h743l139 317h256l-139 -317h223z" />
    <glyph glyph-name="lessequal" unicode="&#x2264;" horiz-adv-x="1335" 
d="M1270 518v-237l-1204 358v238l1204 358v-238l-842 -239zM1270 111v-226h-1207v226h1207z" />
    <glyph glyph-name="greaterequal" unicode="&#x2265;" horiz-adv-x="1335" 
d="M1270 639l-1204 -358v237l839 240l-839 239v238l1204 -358v-238zM1270 -115h-1204v226h1204v-226z" />
    <glyph glyph-name="lozenge" unicode="&#x25ca;" horiz-adv-x="1343" 
d="M1268 537l-596 -586l-596 586l596 585zM369 537l303 -295l303 295l-303 294z" />
    <glyph glyph-name="I.aalt" horiz-adv-x="1482" 
d="M1415 1434v-236h-541v-962h541v-236h-1345v236h540v962h-540v236h1345z" />
    <glyph glyph-name="i.aalt" horiz-adv-x="489" 
d="M349 1306c-25 -25 -60 -38 -103 -38c-44 0 -79 13 -104 38s-38 56 -38 93s13 68 38 93s60 38 104 38c43 0 78 -13 103 -38s38 -56 38 -93s-13 -68 -38 -93zM373 0h-256v1065h256v-1065z" />
    <glyph glyph-name="a.aalt" horiz-adv-x="1384" 
d="M1001 928l5 137h251v-1065h-251l-5 166c-85 -131 -215 -197 -391 -197c-160 0 -289 54 -387 161s-147 242 -147 403s49 295 148 402c98 107 227 161 386 161c193 0 338 -90 437 -269zM419 289c61 -63 143 -94 247 -94c103 0 186 31 248 94c61 63 92 144 92 244
c0 99 -31 180 -92 243c-62 63 -145 94 -248 94c-104 0 -186 -31 -247 -94s-91 -144 -91 -243c0 -100 30 -181 91 -244z" />
    <glyph glyph-name="g.aalt" horiz-adv-x="1355" 
d="M625 -340c-179 0 -312 32 -400 96v181c104 -53 229 -80 375 -80c84 0 157 11 243 46c86 36 142 120 142 240v43l4 64c-69 -137 -202 -205 -399 -205c-159 0 -284 48 -376 145c-92 96 -138 220 -138 373c0 155 47 283 140 383s218 150 374 150c191 0 334 -90 428 -269
l-45 97l10 141h246v-920c0 -175 -70 -307 -186 -380c-116 -72 -251 -105 -418 -105zM414 338c57 -60 136 -90 236 -90c99 0 179 30 238 90s89 135 89 225c0 93 -30 169 -89 229c-59 59 -139 89 -238 89c-100 0 -179 -30 -236 -90c-57 -61 -86 -137 -86 -228
c0 -90 29 -165 86 -225z" />
    <glyph glyph-name="l.aalt" horiz-adv-x="638" 
d="M582 -10h-76c-271 0 -379 125 -379 362v1102h256v-1069c0 -117 48 -166 168 -166h31v-229z" />
    <glyph glyph-name="t_t.dlig" horiz-adv-x="1759" 
d="M1679 1065v-219h-295v-461c0 -117 49 -166 172 -166h123v-229h-172c-268 0 -379 125 -379 362v494h-569v-461c0 -117 50 -166 170 -166h125v-229h-172c-271 0 -379 125 -379 362v494h-233v219h233v369h256v-369h569v369h256v-369h295z" />
    <glyph glyph-name="quotesinglbase.aalt" horiz-adv-x="534" 
d="M289 -276h-244l201 538h243z" />
    <glyph glyph-name="quotedblbase.aalt" horiz-adv-x="919" 
d="M289 -276h-244l201 538h243zM676 -276h-244l199 538h243z" />
    <glyph glyph-name="quotedblleft.aalt" horiz-adv-x="919" 
d="M244 1434h245l-200 -539h-244zM631 1434h243l-198 -539h-246z" />
    <glyph glyph-name="quotedblright.aalt" horiz-adv-x="919" 
d="M289 895h-244l201 539h243zM676 895h-244l199 539h243z" />
    <glyph glyph-name="quoteleft.aalt" horiz-adv-x="534" 
d="M246 1434h243l-200 -539h-244z" />
    <glyph glyph-name="quoteright.aalt" horiz-adv-x="534" 
d="M289 895h-244l201 539h243z" />
    </font>
</defs>
</svg>
