<?xml version="1.0" encoding="UTF-8"?>
<svg width="36px" height="64px" viewBox="0 0 36 64" version="1.1" xmlns="http://www.w3.org/2000/svg" xmlns:xlink="http://www.w3.org/1999/xlink">
    <!-- Generator: Sketch 59 (86127) - https://sketch.com -->
    <title>Path</title>
    <desc>Created with Sketch.</desc>
    <g id="Page-1" stroke="none" stroke-width="1" fill="none" fill-rule="evenodd">
        <g id="Artboard" transform="translate(-651.000000, -308.000000)" fill="#808080" fill-rule="nonzero">
            <path d="M685.43,310 C684.679727,309.248892 683.661637,308.826853 682.6,308.826853 C681.538363,308.826853 680.520273,309.248892 679.77,310 L652.58,337.17 C651.828892,337.920273 651.406853,338.938363 651.406853,340 C651.406853,341.061637 651.828892,342.079727 652.58,342.83 L679.77,370 C680.772056,371.052833 682.266361,371.479253 683.67314,371.113812 C685.079919,370.748372 686.17776,369.648588 686.540713,368.241164 C686.903665,366.833741 686.474604,365.340193 685.42,364.34 L661.06,340 L685.42,315.66 C686.172435,314.911055 686.596274,313.89371 686.598149,312.832073 C686.600025,311.770435 686.179784,310.751599 685.43,310 Z" id="Path"></path>
        </g>
    </g>
</svg>