<?xml version="1.0" encoding="UTF-8"?>
<svg width="192px" height="151px" viewBox="0 0 192 151" version="1.1" xmlns="http://www.w3.org/2000/svg" xmlns:xlink="http://www.w3.org/1999/xlink">
    <!-- Generator: Sketch 59 (86127) - https://sketch.com -->
    <title>Group 3</title>
    <desc>Created with Sketch.</desc>
    <defs>
        <polygon id="path-1" points="0.0001582628 0 191.354498 0 191.354498 150.852 0.0001582628 150.852"></polygon>
    </defs>
    <g id="Page-1" stroke="none" stroke-width="1" fill="none" fill-rule="evenodd">
        <g id="Artboard" transform="translate(-65.000000, -483.000000)">
            <g id="Group-3" transform="translate(65.000000, 483.000000)">
                <mask id="mask-2" fill="white">
                    <use xlink:href="#path-1"></use>
                </mask>
                <g id="Clip-2"></g>
                <path d="M5.9911,24.3625 C3.9101,23.2325 2.1441,21.4835 1.0611,19.2645 C-1.5119,13.9965 0.7571,8.0695 6.1161,6.0325 C9.4811,4.7525 23.4491,0.9225 42.8271,0.1375 C67.8101,-0.8745 92.0041,3.7085 112.7921,13.3915 C148.4261,29.9895 174.6501,60.8555 190.7351,105.1305 C192.7181,110.5865 189.7821,116.1935 184.1781,117.6525 C178.5741,119.1125 172.4251,115.8735 170.4421,110.4155 C156.5861,72.2775 134.6431,45.8785 105.2391,31.9375 C83.3321,21.5565 60.9931,20.0145 46.1111,20.5485 C29.5801,21.1415 17.5121,24.3555 15.4101,25.1185 C12.3091,26.2985 8.8521,25.9155 5.9911,24.3625 M25.3021,59.4225 C28.7751,58.3095 60.1021,48.9725 89.9211,63.5795 C110.2431,73.5385 125.8141,92.6485 136.1951,120.3905 C138.2331,125.8345 144.4101,129.0195 149.9941,127.5065 C155.5791,125.9945 158.4551,120.3565 156.4191,114.9145 C143.9441,81.5795 124.4771,58.2415 98.5611,45.5475 C61.3361,27.3135 24.1031,37.7135 17.0171,39.9825 C11.5311,41.7405 8.9381,47.5165 11.2251,52.8845 C12.2671,55.3275 14.1381,57.2635 16.3861,58.4845 C19.0781,59.9465 22.3111,60.3805 25.3021,59.4225 M36.0551,94.3025 C39.4561,92.4755 56.4491,88.1185 72.2441,94.7955 C85.6251,100.4545 95.3741,112.8435 101.2151,131.6225 C102.9331,137.1415 108.9371,140.6415 114.6281,139.4405 C120.3191,138.2405 123.5411,132.7915 121.8241,127.2725 C111.9841,95.6385 93.4701,82.0465 79.6671,76.2095 C56.3581,66.3555 32.3491,72.0165 24.3741,76.3025 C19.3811,78.9855 17.9481,85.1895 21.1741,90.1605 C22.2671,91.8435 23.7531,93.1695 25.4351,94.0835 C28.7201,95.8665 32.7541,96.0775 36.0551,94.3025 M67.4151,114.3465 C57.1841,108.7915 44.7901,111.8395 39.7321,121.1535 C34.6751,130.4685 38.8691,142.5225 49.1001,148.0775 C59.3321,153.6325 71.7251,150.5855 76.7831,141.2705 C81.8401,131.9565 77.6461,119.9015 67.4151,114.3465" id="Fill-1" fill="#FEFEFE" mask="url(#mask-2)"></path>
            </g>
        </g>
    </g>
</svg>