<?xml version="1.0" encoding="UTF-8"?>
<svg width="102px" height="76px" viewBox="0 0 102 76" version="1.1" xmlns="http://www.w3.org/2000/svg" xmlns:xlink="http://www.w3.org/1999/xlink">
    <!-- Generator: Sketch 59 (86127) - https://sketch.com -->
    <title>‘‘</title>
    <desc>Created with Sketch.</desc>
    <g id="UI" stroke="none" stroke-width="1" fill="none" fill-rule="evenodd">
        <path d="M23.365,75.12 C16.4649655,75.12 10.9450207,72.7433571 6.805,67.99 C2.6649793,63.2366429 0.595,56.7200414 0.595,48.44 C0.595,37.2466107 4.2749632,27.5100414 11.635,19.23 C18.9950368,10.9499586 29.8049287,4.5866889 44.065,0.14 L49.125,11.18 C30.5715739,18.846705 20.1450115,28.7366061 17.845,40.85 L19.455,41.77 C21.7550115,39.0099862 24.8216475,37.63 28.655,37.63 C32.7950207,37.63 36.2449862,39.163318 39.005,42.23 C41.7650138,45.296682 43.145,49.2833088 43.145,54.19 C43.145,60.0166958 41.2666855,64.9616464 37.51,69.025 C33.7533145,73.0883537 29.0383617,75.12 23.365,75.12 Z M75.9,75.12 C68.9999655,75.12 63.4800207,72.7433571 59.34,67.99 C55.1999793,63.2366429 53.13,56.7200414 53.13,48.44 C53.13,37.2466107 56.8099632,27.5100414 64.17,19.23 C71.5300368,10.9499586 82.3399287,4.5866889 96.6,0.14 L101.66,11.18 C83.1065739,18.846705 72.6800115,28.7366061 70.38,40.85 L71.99,41.77 C74.2900115,39.0099862 77.3566475,37.63 81.19,37.63 C85.3300207,37.63 88.7799862,39.163318 91.54,42.23 C94.3000138,45.296682 95.68,49.2833088 95.68,54.19 C95.68,60.0166958 93.8016854,64.9616464 90.045,69.025 C86.2883145,73.0883537 81.5733617,75.12 75.9,75.12 Z" id="‘‘" fill="#144C92" fill-rule="nonzero"></path>
    </g>
</svg>