<?xml version="1.0" encoding="UTF-8"?>
<svg width="83px" height="74px" viewBox="0 0 83 74" version="1.1" xmlns="http://www.w3.org/2000/svg" xmlns:xlink="http://www.w3.org/1999/xlink">
    <!-- Generator: Sketch 59 (86127) - https://sketch.com -->
    <title>‘‘ 2</title>
    <desc>Created with Sketch.</desc>
    <g id="Page-1" stroke="none" stroke-width="1" fill="none" fill-rule="evenodd">
        <g id="Artboard" transform="translate(-250.000000, -198.000000)" fill="#FFFFFF" fill-rule="nonzero">
            <g id="‘‘-2" transform="translate(250.000000, 198.000000)">
                <path d="M27.5504202,38.8930233 C30.8053384,40.4992328 33.2464905,42.7364198 34.8739496,45.6046512 C36.5014087,48.4728826 37.3151261,51.6278898 37.3151261,55.0697674 C37.3151261,60.5767717 35.5133233,65.1085093 31.9096639,68.6651163 C28.3060044,72.2217232 23.8305589,74 18.4831933,74 C13.3683218,74 9.00912166,72.279087 5.40546218,68.8372093 C1.80180271,65.3953316 0,60.8062302 0,55.0697674 C0,52.5457238 0.523104013,49.9069905 1.56932773,47.1534884 C2.61555145,44.3999862 3.71988214,41.7612529 4.88235294,39.2372093 L23.7142857,0 L41.5,0 L27.5504202,38.8930233 Z M69.0504202,38.8930233 C72.3053384,40.4992328 74.7464905,42.7364198 76.3739496,45.6046512 C78.0014087,48.4728826 78.8151261,51.6278898 78.8151261,55.0697674 C78.8151261,60.5767717 77.0133233,65.1085093 73.4096639,68.6651163 C69.8060044,72.2217232 65.3305589,74 59.9831933,74 C54.8683218,74 50.5091217,72.279087 46.9054622,68.8372093 C43.3018027,65.3953316 41.5,60.8062302 41.5,55.0697674 C41.5,52.5457238 42.023104,49.9069905 43.0693277,47.1534884 C44.1155514,44.3999862 45.2198821,41.7612529 46.3823529,39.2372093 L65.2142857,0 L83,0 L69.0504202,38.8930233 Z" id="‘‘"></path>
            </g>
        </g>
    </g>
</svg>