<?xml version="1.0" encoding="UTF-8"?>
<svg width="191px" height="192px" viewBox="0 0 191 192" version="1.1" xmlns="http://www.w3.org/2000/svg" xmlns:xlink="http://www.w3.org/1999/xlink">
    <!-- Generator: Sketch 59 (86127) - https://sketch.com -->
    <title>noun_help_1154834</title>
    <desc>Created with Sketch.</desc>
    <g id="Page-1" stroke="none" stroke-width="1" fill="none" fill-rule="evenodd">
        <g id="noun_help_1154834" fill="#FFFFFF" fill-rule="nonzero">
            <path d="M185.24,124.16 C179.693333,115.413333 162.2,90.88 161.133333,89.3866667 C159.426667,86.8266667 156.866667,85.12 153.88,84.6933333 C150.68,84.0533333 147.266667,84.9066667 144.493333,86.8266667 C138.946667,90.6666667 137.24,98.1333333 140.866667,103.466667 L144.92,111.36 L124.226667,103.04 L101.826667,56.7466667 L114.413333,63.1466667 C121.24,67.4133333 129.986667,65.28 134.253333,58.4533333 C136.386667,55.2533333 137.026667,51.2 136.173333,47.5733333 C135.32,43.7333333 132.973333,40.5333333 129.773333,38.4 C127.853333,37.12 94.7866667,14.9333333 83.0533333,7.68 C68.3333333,-1.28 49.56,-1.92 32.92,5.97333333 C19.6933333,12.16 9.66666667,23.04 4.54666667,36.48 C-0.573333333,49.92 -0.146666667,64.64 5.4,77.8666667 C5.4,77.8666667 5.4,77.8666667 5.4,77.8666667 L31.8533333,134.613333 C34.4133333,139.946667 39.5333333,142.933333 45.08,142.933333 C47.2133333,142.933333 49.1333333,142.506667 51.2666667,141.653333 C54.04,140.373333 56.1733333,138.453333 57.4533333,136.106667 L60.8666667,143.36 C62.5733333,146.986667 65.3466667,149.546667 69.1866667,150.826667 C70.8933333,151.466667 72.3866667,151.68 74.0933333,151.68 C76.0133333,151.68 77.72,151.253333 79.64,150.613333 L82.2,151.466667 C80.7066667,152.746667 79.4266667,154.24 78.5733333,156.16 C77.08,159.36 77.08,162.56 78.36,165.76 C79.64,168.746667 81.7733333,170.88 84.76,171.946667 L129.346667,189.44 C129.346667,189.44 129.346667,189.44 129.346667,189.44 C134.04,191.146667 138.946667,192 143.64,192 C161.346667,192 178.626667,181.333333 186.52,164.053333 C192.92,150.4 192.28,135.466667 185.24,124.16 Z M71.32,144.64 C69.4,144 67.6933333,142.506667 66.84,140.586667 L58.52,122.88 C58.52,122.666667 58.3066667,122.453333 58.3066667,122.453333 L40.6,84.9066667 C39.7466667,83.2 37.8266667,82.56 36.3333333,83.4133333 C34.6266667,84.2666667 33.9866667,86.1866667 34.84,87.68 L52.5466667,125.226667 C54.4666667,129.28 52.76,133.973333 48.7066667,135.893333 C44.6533333,137.813333 39.96,136.106667 38.04,132.053333 L11.3733333,75.3066667 C0.92,50.9866667 11.5866667,23.2533333 35.48,11.9466667 C50.2,5.12 66.6266667,5.54666667 79.64,13.44 C91.3733333,20.48 125.933333,43.7333333 126.146667,43.9466667 C126.146667,43.9466667 126.146667,43.9466667 126.146667,43.9466667 C128.066667,45.0133333 129.133333,46.9333333 129.773333,49.0666667 C130.2,51.2 129.773333,53.3333333 128.706667,55.2533333 C127.64,57.1733333 125.72,58.24 123.586667,58.88 C121.453333,59.3066667 119.32,58.88 117.4,57.8133333 C117.4,57.8133333 117.186667,57.8133333 117.186667,57.6 L93.9333333,45.6533333 C92.8666667,45.0133333 91.5866667,45.2266667 90.52,45.8666667 C78.7866667,54.1866667 59.8,52.6933333 49.9866667,42.88 C48.7066667,41.6 46.5733333,41.6 45.2933333,42.88 C44.0133333,44.16 44.0133333,46.2933333 45.2933333,47.5733333 C56.8133333,59.0933333 77.72,61.2266667 92.2266667,52.6933333 L114.626667,99.6266667 L107.16,96 C103.533333,94.5066667 99.6933333,95.1466667 96.28,97.0666667 L86.2533333,75.7333333 C85.4,74.0266667 83.48,73.3866667 81.9866667,74.24 C80.28,75.0933333 79.64,77.0133333 80.4933333,78.5066667 L91.5866667,101.973333 C91.3733333,102.186667 91.3733333,102.4 91.16,102.826667 C90.3066667,104.746667 89.88,106.666667 90.0933333,108.8 L86.8933333,107.52 C83.48,106.24 79.8533333,106.453333 76.6533333,108.16 L69.6133333,93.2266667 C68.76,91.52 66.84,90.88 65.3466667,91.7333333 C63.64,92.5866667 63,94.5066667 63.8533333,96 L71.7466667,112.853333 C71.5333333,113.28 71.32,113.706667 71.1066667,114.346667 C69.6133333,117.546667 69.6133333,120.746667 70.8933333,123.946667 C71.96,126.293333 73.6666667,128.213333 75.8,129.493333 C74.3066667,130.773333 73.0266667,132.266667 72.1733333,134.186667 C70.68,137.386667 70.68,140.586667 71.96,143.786667 C72.1733333,144.213333 72.3866667,144.64 72.6,145.066667 C71.96,144.853333 71.7466667,144.64 71.32,144.64 Z M180.76,161.28 C172.013333,180.266667 150.466667,190.08 131.693333,183.466667 L87.1066667,165.973333 C85.8266667,165.546667 84.9733333,164.48 84.3333333,163.2 C83.6933333,161.92 83.9066667,160.213333 84.5466667,158.72 C85.8266667,155.733333 89.4533333,154.24 92.2266667,155.306667 L121.88,167.04 C123.586667,167.68 125.506667,166.826667 126.146667,165.12 C126.786667,163.413333 125.933333,161.493333 124.226667,160.853333 L94.5733333,149.333333 C94.5733333,149.333333 94.1466667,149.12 94.1466667,149.12 C94.1466667,149.12 79.64,143.36 79.2133333,143.146667 C78.36,142.72 77.9333333,141.866667 77.5066667,141.013333 C76.8666667,139.733333 77.08,138.026667 77.72,136.533333 C78.36,134.826667 79.8533333,133.76 81.3466667,133.12 C82.6266667,132.693333 115.053333,144.853333 115.053333,144.853333 C116.76,145.493333 118.68,144.64 119.32,142.933333 C119.96,141.226667 119.106667,139.306667 117.4,138.666667 L79.2133333,123.733333 C77.9333333,123.306667 77.08,122.24 76.44,120.96 C75.8,119.68 76.0133333,117.973333 76.6533333,116.48 C77.2933333,115.2 78.1466667,114.346667 79.2133333,113.493333 C80.7066667,112.64 82.6266667,112.213333 84.3333333,112.853333 L128.706667,130.346667 C130.413333,130.986667 132.333333,130.133333 132.973333,128.426667 C133.613333,126.72 132.76,124.8 131.053333,124.16 L99.9066667,111.786667 C99.9066667,111.786667 99.9066667,111.786667 99.9066667,111.786667 C98.4133333,111.146667 97.3466667,110.08 96.92,108.8 C96.28,107.52 96.4933333,106.026667 96.92,104.746667 C97.3466667,103.68 98.2,102.826667 99.0533333,102.186667 C100.76,100.906667 102.893333,100.48 104.6,101.333333 L150.466667,120.533333 C151.746667,120.96 153.24,120.746667 154.093333,119.68 C154.946667,118.613333 155.16,117.12 154.52,116.053333 C154.52,116.053333 145.986667,100.053333 145.986667,99.84 C144.28,97.28 145.133333,93.8666667 147.906667,91.9466667 C149.186667,91.0933333 150.893333,90.6666667 152.386667,90.88 C153.666667,91.0933333 154.733333,91.9466667 155.586667,93.0133333 C155.586667,93.0133333 155.586667,93.0133333 155.586667,93.0133333 C155.8,93.2266667 173.933333,118.826667 179.48,127.573333 C185.666667,136.96 186.093333,149.546667 180.76,161.28 Z" id="Shape"></path>
        </g>
    </g>
</svg>