<?xml version="1.0" encoding="UTF-8"?>
<svg width="48px" height="48px" viewBox="0 0 48 48" version="1.1" xmlns="http://www.w3.org/2000/svg" xmlns:xlink="http://www.w3.org/1999/xlink">
    <!-- Generator: Sketch 59 (86127) - https://sketch.com -->
    <title>noun_pause_1738025</title>
    <desc>Created with Sketch.</desc>
    <g id="Page-1" stroke="none" stroke-width="1" fill="none" fill-rule="evenodd">
        <g id="noun_pause_1738025" transform="translate(1.000000, 1.000000)" stroke="#AC026E">
            <path d="M0,22.9717791 C0,10.2723926 10.2723926,0 22.9717791,0 C35.6711656,0 46,10.2723926 46,22.9717791 C46,35.6711656 35.6711656,46 22.9717791,46 C10.2723926,46 0,35.6711656 0,22.9717791 Z M15.0134969,31.9460123 L15.0134969,14.0539877 C15.0134969,13.2638037 15.6343558,12.6993865 16.3680982,12.6993865 L19.6981595,12.6993865 C20.4319018,12.6993865 21.0527607,13.2638037 21.0527607,14.0539877 L21.0527607,31.9460123 C21.0527607,32.6797546 20.4319018,33.3006135 19.6981595,33.3006135 L16.3680982,33.3006135 C15.6343558,33.3006135 15.0134969,32.6797546 15.0134969,31.9460123 Z M24.9472393,31.9460123 L24.9472393,14.0539877 C24.9472393,13.2638037 25.5680982,12.6993865 26.3018405,12.6993865 L29.5754601,12.6993865 C30.3656442,12.6993865 30.9300613,13.2638037 30.9300613,14.0539877 L30.9300613,31.9460123 C30.9300613,32.6797546 30.3656442,33.3006135 29.5754601,33.3006135 L26.3018405,33.3006135 C25.5680982,33.3006135 24.9472393,32.6797546 24.9472393,31.9460123 Z" id="Shape"></path>
        </g>
    </g>
</svg>