<svg id="Calque_1" data-name="Calque 1" xmlns="http://www.w3.org/2000/svg" xmlns:xlink="http://www.w3.org/1999/xlink" viewBox="0 0 97.51 21.82"><defs><style>.cls-1{fill:none;}.cls-2{clip-path:url(#clip-path);}.cls-3{fill:url(#Dégradé_sans_nom_3);}.cls-4{clip-path:url(#clip-path-2);}.cls-5{fill:#fff;}.cls-6{fill:#832667;}.cls-7{fill:#575756;}</style><clipPath id="clip-path"><path class="cls-1" d="M66.79.2c-.35,0-.57.18-.57.52V16a.49.49,0,0,0,.48.51H94c.25,0,.45,0,.56-.35l2.82-8.82a.49.49,0,0,0-.24-.67C88.26,1,75,.17,68.91.17c-.87,0-1.59,0-2.12,0"/></clipPath><linearGradient id="Dégradé_sans_nom_3" x1="-84.58" y1="52.54" x2="-83.58" y2="52.54" gradientTransform="matrix(31.2, 0, 0, -31.2, 2704.83, 1647.4)" gradientUnits="userSpaceOnUse"><stop offset="0" stop-color="#832667"/><stop offset="0.25" stop-color="#af1773"/><stop offset="0.81" stop-color="#dc0d15"/><stop offset="1" stop-color="#dc0d15"/></linearGradient><clipPath id="clip-path-2"><rect class="cls-1" width="97.51" height="21.82"/></clipPath></defs><g class="cls-2"><rect class="cls-3" x="66.22" y="0.17" width="31.3" height="16.37"/></g><g class="cls-4"><path class="cls-5" d="M72.44,10c-1-.48-1.68-.74-1.52-1.23S72.12,8,73,8a5,5,0,0,1,1.16.16l.34-1.05A7.34,7.34,0,0,0,73.15,7c-1.83,0-3.49.46-3.91,1.53-.51,1.27.92,2,2.16,2.57,1,.47,1.76.91,1.49,1.49s-.91.67-1.92.65a7.39,7.39,0,0,1-2.84-.71l-.51,1.11a9,9,0,0,0,3.06.72c2.1,0,3.45-.48,4-1.62.64-1.35-1-2.09-2.24-2.71"/><path class="cls-5" d="M75.29,11.9a.05.05,0,0,0,0,0,0,0,0,0,0,0,0l1-3.17A17.73,17.73,0,0,1,79,14.19h1.68l.83-2.59a.05.05,0,0,1,.06,0,.05.05,0,0,1,0,0c.25,1.62,1.87,2.72,4.16,2.72A8.45,8.45,0,0,0,89,13.75L89.82,11h3.34L93.5,10H90.16l.58-1.8h4l.34-1.1H89.47L87.58,13a5.63,5.63,0,0,1-1.42.15,3.24,3.24,0,0,1-2.53-.85,2.06,2.06,0,0,1-.44-1.67c.23-1.53,1.71-2.49,3.71-2.49a9.65,9.65,0,0,1,1.23.08L88.53,7a11.79,11.79,0,0,0-1.63-.1,5.79,5.79,0,0,0-4.3,1.68.1.1,0,0,1-.08,0s0,0,0,0L83,7.05H81.52l-1.6,5a18.05,18.05,0,0,0-2.83-5H75.53l-1.17,3.64a2.27,2.27,0,0,1,.93,1.21"/><rect class="cls-6" x="66.2" y="18.86" width="0.64" height="2.89"/><polygon class="cls-6" points="67.87 18.86 68.84 18.86 69.5 20.75 69.51 20.75 70.18 18.86 71.14 18.86 71.14 21.75 70.5 21.75 70.5 19.54 70.49 19.54 69.73 21.75 69.25 21.75 68.52 19.54 68.51 19.54 68.51 21.75 67.87 21.75 67.87 18.86"/><polygon class="cls-6" points="72.18 18.86 73.14 18.86 73.81 20.75 73.82 20.75 74.48 18.86 75.44 18.86 75.44 21.75 74.81 21.75 74.81 19.54 74.8 19.54 74.04 21.75 73.56 21.75 72.83 19.54 72.82 19.54 72.82 21.75 72.18 21.75 72.18 18.86"/><path class="cls-6" d="M77.89,18.79a1.52,1.52,0,1,1-1.56,1.52,1.46,1.46,0,0,1,1.56-1.52m0,2.45a.93.93,0,1,0-.9-.93.88.88,0,0,0,.9.93"/><path class="cls-6" d="M80.34,18.86h1.08c.5,0,1,.11,1,.74a.64.64,0,0,1-.49.63h0a.69.69,0,0,1,.63.71c0,.6-.57.8-1.09.8H80.34ZM81,20h.46c.19,0,.4-.08.4-.32s-.23-.3-.43-.3H81Zm0,1.19h.57c.2,0,.42-.08.42-.34s-.3-.31-.51-.31H81Z"/><rect class="cls-6" x="83.43" y="18.86" width="0.64" height="2.89"/><polygon class="cls-6" points="85.13 18.86 85.77 18.86 85.77 21.16 86.94 21.16 86.94 21.75 85.13 21.75 85.13 18.86"/><rect class="cls-6" x="87.74" y="18.86" width="0.64" height="2.89"/><polygon class="cls-6" points="89.44 18.86 91.4 18.86 91.4 19.45 90.08 19.45 90.08 19.99 91.33 19.99 91.33 20.58 90.08 20.58 90.08 21.16 91.48 21.16 91.48 21.75 89.44 21.75 89.44 18.86"/><path class="cls-6" d="M92.44,18.86h1.12c.59,0,1.09.21,1.09.88a.75.75,0,0,1-.62.79l.73,1.22H94l-.61-1.15h-.31v1.15h-.64Zm.64,1.2h.38c.23,0,.53,0,.53-.32s-.26-.34-.49-.34h-.42Z"/><rect class="cls-7" x="0.63" y="0.18" width="0.85" height="7.15"/><path class="cls-7" d="M8.26,1.66A2.2,2.2,0,0,0,6.47.79a2.84,2.84,0,0,0-2.72,3,2.78,2.78,0,0,0,2.72,3,2.5,2.5,0,0,0,2.07-1l.64.54A3.18,3.18,0,0,1,6.47,7.51,3.6,3.6,0,0,1,2.84,3.76,3.61,3.61,0,0,1,6.47,0,3.07,3.07,0,0,1,9,1.12Z"/><polygon class="cls-7" points="10.35 0.18 14.79 0.18 14.79 0.97 11.2 0.97 11.2 3.33 14.53 3.33 14.53 4.12 11.2 4.12 11.2 7.33 10.35 7.33 10.35 0.18"/><polygon class="cls-7" points="18.77 0.18 19.62 0.18 19.62 3.21 23.43 3.21 23.43 0.18 24.28 0.18 24.28 7.33 23.43 7.33 23.43 4 19.62 4 19.62 7.33 18.77 7.33 18.77 0.18"/><path class="cls-7" d="M28.38.18h.8l3,7.15h-1L30.5,5.57H26.93l-.74,1.76h-1Zm.38,1.09h0L27.26,4.79h2.92Z"/><path class="cls-7" d="M33.16.18h2.18c1.18,0,2.37.45,2.37,1.76a1.6,1.6,0,0,1-1.25,1.61v0a1.75,1.75,0,0,1,1.62,1.76c0,1.57-1.47,2-2.79,2H33.16Zm.85,3h1.17c.8,0,1.63-.17,1.63-1.16S36,1,35.27,1H34Zm0,3.33h1.43c.83,0,1.73-.33,1.73-1.24S36.32,4,35.46,4H34Z"/><rect class="cls-7" x="39.52" y="0.18" width="0.85" height="7.15"/><polygon class="cls-7" points="46.94 0.97 44.58 0.97 44.58 7.33 43.73 7.33 43.73 0.97 41.37 0.97 41.37 0.18 46.94 0.18 46.94 0.97"/><path class="cls-7" d="M49.33.18h.8l3,7.15h-1l-.73-1.76H47.88l-.74,1.76h-1Zm.38,1.09h0L48.21,4.79h2.92Z"/><polygon class="cls-7" points="57.98 0.97 55.62 0.97 55.62 7.33 54.77 7.33 54.77 0.97 52.41 0.97 52.41 0.18 57.98 0.18 57.98 0.97"/><path class="cls-7" d="M2.33,11.24h.59l2.25,5.29H4.44l-.54-1.3H1.26l-.55,1.3H0Zm.29.8h0l-1.1,2.6H3.66Z"/><polygon class="cls-7" points="8.74 11.82 6.99 11.82 6.99 16.53 6.36 16.53 6.36 11.82 4.61 11.82 4.61 11.24 8.74 11.24 8.74 11.82"/><polygon class="cls-7" points="9.48 11.24 10.11 11.24 10.11 15.94 12.53 15.94 12.53 16.53 9.48 16.53 9.48 11.24"/><path class="cls-7" d="M14.94,11.24h.58l2.25,5.29H17l-.54-1.3H13.86l-.55,1.3H12.6Zm.28.8h0l-1.09,2.6h2.16Z"/><polygon class="cls-7" points="18.48 11.24 19.27 11.24 22.33 15.63 22.35 15.63 22.35 11.24 22.98 11.24 22.98 16.53 22.18 16.53 19.12 12.13 19.11 12.13 19.11 16.53 18.48 16.53 18.48 11.24"/><polygon class="cls-7" points="27.84 11.82 26.09 11.82 26.09 16.53 25.47 16.53 25.47 11.82 23.72 11.82 23.72 11.24 27.84 11.24 27.84 11.82"/><rect class="cls-7" x="28.58" y="11.24" width="0.63" height="5.29"/><path class="cls-7" d="M36,16.53H32.94a2.72,2.72,0,1,1,2.72-2.72A2.35,2.35,0,0,1,34.38,16v0H36Zm-3.07-.59A2.05,2.05,0,0,0,35,13.81a2,2,0,1,0-4.09,0,2.05,2.05,0,0,0,2,2.13"/><path class="cls-7" d="M40.73,14.51a2,2,0,1,1-4,0V11.24h.63v3.18c0,.85.31,1.66,1.37,1.66s1.36-.81,1.36-1.66V11.24h.63Z"/><polygon class="cls-7" points="42.03 11.24 45.35 11.24 45.35 11.82 42.65 11.82 42.65 13.48 45.17 13.48 45.17 14.06 42.65 14.06 42.65 15.94 45.48 15.94 45.48 16.53 42.03 16.53 42.03 11.24"/></g></svg>